<?xml version="1.0" encoding="UTF-8"?>
<svg version="1.1" xmlns="http://www.w3.org/2000/svg" width="275" height="183">
<path d="M0 0 C90.75 0 181.5 0 275 0 C275 60.39 275 120.78 275 183 C184.25 183 93.5 183 0 183 C0 122.61 0 62.22 0 0 Z " fill="#DD0000" transform="translate(0,0)"/>
<path d="M0 0 C90.75 0 181.5 0 275 0 C275 20.13 275 40.26 275 61 C184.25 61 93.5 61 0 61 C0 40.87 0 20.74 0 0 Z " fill="#FFCE00" transform="translate(0,122)"/>
<path d="M0 0 C90.75 0 181.5 0 275 0 C275 20.13 275 40.26 275 61 C184.25 61 93.5 61 0 61 C0 40.87 0 20.74 0 0 Z " fill="#000000" transform="translate(0,0)"/>
</svg>
