<?xml version="1.0" encoding="UTF-8"?>
<svg version="1.1" xmlns="http://www.w3.org/2000/svg" width="225" height="225">
<path d="M0 0 C74.25 0 148.5 0 225 0 C225 74.25 225 148.5 225 225 C150.75 225 76.5 225 0 225 C0 150.75 0 76.5 0 0 Z " fill="#FEFEFE" transform="translate(0,0)"/>
<path d="M0 0 C3.86392193 2.98467034 7.24831678 6.33626323 10.5234375 9.94921875 C10.94753906 9.58570312 11.37164062 9.2221875 11.80859375 8.84765625 C13.05268675 7.78129082 14.30039307 6.71913312 15.55078125 5.66015625 C16.75807536 4.6130378 17.94419176 3.54000638 19.08984375 2.42578125 C30.03644282 -7.94468103 43.10814105 -9.5429763 57.421875 -9.32421875 C68.47978172 -8.91224952 77.07849478 -5.05828691 85.5234375 1.94921875 C86.14734375 2.449375 86.77125 2.94953125 87.4140625 3.46484375 C97.35415438 12.3303311 102.96739871 25.80648252 103.76171875 38.8671875 C104.57268529 67.60198103 90.52531106 93.18005472 71.3984375 113.82421875 C69.89438172 115.41523733 68.3809635 116.99599933 66.85742188 118.56835938 C65.71634234 119.74953541 64.59441326 120.94916087 63.4765625 122.15234375 C51.25799262 134.99750696 35.89617445 144.59470411 20.4609375 153.07421875 C19.74639404 153.47721191 19.03185059 153.88020508 18.2956543 154.29541016 C13.32580909 156.95047639 13.32580909 156.95047639 10.03125 156.9453125 C6.372349 155.4920107 2.92357725 153.75638963 -0.5390625 151.88671875 C-1.29058594 151.48404785 -2.04210937 151.08137695 -2.81640625 150.66650391 C-17.58937272 142.63401851 -30.29024102 132.45431729 -42.4765625 120.94921875 C-43.67152344 119.83546875 -43.67152344 119.83546875 -44.890625 118.69921875 C-63.57298113 100.74303194 -80.33305604 74.35754731 -81.6796875 47.96875 C-82.00680128 30.64194211 -77.71615938 16.30762699 -65.7265625 3.44921875 C-47.75128997 -13.36457463 -19.82434695 -13.40032836 0 0 Z " fill="#F45952" transform="translate(101.4765625,39.05078125)"/>
<path d="M0 0 C3.86392193 2.98467034 7.24831678 6.33626323 10.5234375 9.94921875 C10.94753906 9.58570312 11.37164062 9.2221875 11.80859375 8.84765625 C13.05268675 7.78129082 14.30039307 6.71913312 15.55078125 5.66015625 C16.75807536 4.6130378 17.94419176 3.54000638 19.08984375 2.42578125 C30.03644282 -7.94468103 43.10814105 -9.5429763 57.421875 -9.32421875 C68.47978172 -8.91224952 77.07849478 -5.05828691 85.5234375 1.94921875 C86.14734375 2.449375 86.77125 2.94953125 87.4140625 3.46484375 C97.35415438 12.3303311 102.96739871 25.80648252 103.76171875 38.8671875 C104.57268529 67.60198103 90.52531106 93.18005472 71.3984375 113.82421875 C69.89438172 115.41523733 68.3809635 116.99599933 66.85742188 118.56835938 C65.71634234 119.74953541 64.59441326 120.94916087 63.4765625 122.15234375 C51.25799262 134.99750696 35.89617445 144.59470411 20.4609375 153.07421875 C19.74639404 153.47721191 19.03185059 153.88020508 18.2956543 154.29541016 C13.32580909 156.95047639 13.32580909 156.95047639 10.03125 156.9453125 C6.372349 155.4920107 2.92357725 153.75638963 -0.5390625 151.88671875 C-1.29058594 151.48404785 -2.04210937 151.08137695 -2.81640625 150.66650391 C-17.58937272 142.63401851 -30.29024102 132.45431729 -42.4765625 120.94921875 C-43.67152344 119.83546875 -43.67152344 119.83546875 -44.890625 118.69921875 C-63.57298113 100.74303194 -80.33305604 74.35754731 -81.6796875 47.96875 C-82.00680128 30.64194211 -77.71615938 16.30762699 -65.7265625 3.44921875 C-47.75128997 -13.36457463 -19.82434695 -13.40032836 0 0 Z M-49.4765625 1.94921875 C-49.4765625 2.60921875 -49.4765625 3.26921875 -49.4765625 3.94921875 C-51.4565625 4.27921875 -53.4365625 4.60921875 -55.4765625 4.94921875 C-55.4765625 5.60921875 -55.4765625 6.26921875 -55.4765625 6.94921875 C-57.4565625 7.93921875 -57.4565625 7.93921875 -59.4765625 8.94921875 C-59.4765625 9.60921875 -59.4765625 10.26921875 -59.4765625 10.94921875 C-60.1365625 10.94921875 -60.7965625 10.94921875 -61.4765625 10.94921875 C-69.85402381 18.35599185 -73.00317064 30.31978816 -73.921875 41.11328125 C-74.35098718 50.23576605 -72.55949561 58.40797783 -69.4765625 66.94921875 C-69.11433594 67.96628906 -68.75210938 68.98335938 -68.37890625 70.03125 C-65.32512219 77.92968131 -61.02979676 84.8526507 -56.4765625 91.94921875 C-55.94289063 92.89925781 -55.40921875 93.84929687 -54.859375 94.828125 C-54.40304688 95.52808594 -53.94671875 96.22804688 -53.4765625 96.94921875 C-52.8165625 96.94921875 -52.1565625 96.94921875 -51.4765625 96.94921875 C-51.13625 97.72265625 -51.13625 97.72265625 -50.7890625 98.51171875 C-47.83657356 103.9949125 -44.13373034 108.79552852 -39.4765625 112.94921875 C-38.8165625 112.94921875 -38.1565625 112.94921875 -37.4765625 112.94921875 C-37.2084375 113.58859375 -36.9403125 114.22796875 -36.6640625 114.88671875 C-35.58988498 117.28053561 -35.58988498 117.28053561 -32.4765625 117.94921875 C-32.1465625 118.93921875 -31.8165625 119.92921875 -31.4765625 120.94921875 C-29.52755223 122.61118774 -27.60303877 124.13368377 -25.5390625 125.63671875 C-24.98798828 126.05244141 -24.43691406 126.46816406 -23.86914062 126.89648438 C-20.98023512 129.22614241 -20.98023512 129.22614241 -17.4765625 129.94921875 C-17.29351562 130.51640625 -17.11046875 131.08359375 -16.921875 131.66796875 C-14.80802648 135.00442155 -11.70413235 136.54087022 -8.3515625 138.44921875 C-7.67303223 138.84431641 -6.99450195 139.23941406 -6.29541016 139.64648438 C3.63192765 146.11098426 3.63192765 146.11098426 14.8359375 147.51171875 C15.3928125 147.32609375 15.9496875 147.14046875 16.5234375 146.94921875 C16.5234375 146.28921875 16.5234375 145.62921875 16.5234375 144.94921875 C17.50183594 144.62050781 17.50183594 144.62050781 18.5 144.28515625 C22.5977551 142.47452027 26.17387434 140.04857889 29.8984375 137.57421875 C35.02264366 134.1882592 40.15579044 130.93753941 45.5234375 127.94921875 C45.5234375 127.28921875 45.5234375 126.62921875 45.5234375 125.94921875 C46.1834375 125.94921875 46.8434375 125.94921875 47.5234375 125.94921875 C47.5234375 125.28921875 47.5234375 124.62921875 47.5234375 123.94921875 C48.1215625 123.66046875 48.7196875 123.37171875 49.3359375 123.07421875 C51.71671542 121.90179849 51.71671542 121.90179849 54.5234375 119.94921875 C54.5234375 119.28921875 54.5234375 118.62921875 54.5234375 117.94921875 C55.08289063 117.72492188 55.64234375 117.500625 56.21875 117.26953125 C63.70216383 112.98242299 69.57493445 103.89365739 74.5234375 96.94921875 C75.34934972 95.82875523 76.17626461 94.70903043 77.00390625 93.58984375 C77.90680337 92.35587346 78.80914344 91.1214954 79.7109375 89.88671875 C80.13955078 89.30881592 80.56816406 88.73091309 81.00976562 88.13549805 C84.3374471 83.53120408 87.5234375 78.79753259 87.5234375 72.94921875 C88.1834375 72.94921875 88.8434375 72.94921875 89.5234375 72.94921875 C90.33914968 70.38770192 91.15109881 67.82509247 91.9609375 65.26171875 C92.30608398 64.17987305 92.30608398 64.17987305 92.65820312 63.07617188 C97.13458066 48.86853884 97.04487058 33.72171135 90.3359375 20.13671875 C89.7378125 19.08484375 89.1396875 18.03296875 88.5234375 16.94921875 C87.8634375 16.94921875 87.2034375 16.94921875 86.5234375 16.94921875 C86.2759375 16.20671875 86.0284375 15.46421875 85.7734375 14.69921875 C83.5577239 9.82464883 79.68330918 7.18433552 75.2734375 4.32421875 C74.38140625 3.73382813 73.489375 3.1434375 72.5703125 2.53515625 C65.86899379 -0.95296605 59.42364818 -1.37205134 52.0234375 -1.30078125 C50.81880859 -1.31238281 50.81880859 -1.31238281 49.58984375 -1.32421875 C44.25056076 -1.30691151 39.6534089 -0.53329592 34.5234375 0.94921875 C34.5234375 1.60921875 34.5234375 2.26921875 34.5234375 2.94921875 C33.8221875 3.19671875 33.1209375 3.44421875 32.3984375 3.69921875 C24.707795 7.04297636 17.739518 12.9490118 14.2890625 20.734375 C14.03640625 21.46527344 13.78375 22.19617188 13.5234375 22.94921875 C8.60314949 21.58247208 7.17856303 19.16079718 4.5234375 14.94921875 C3.8634375 14.94921875 3.2034375 14.94921875 2.5234375 14.94921875 C2.27335937 14.35496094 2.02328125 13.76070312 1.765625 13.1484375 C0.35277597 10.64707271 -1.04567374 9.45415409 -3.3515625 7.76171875 C-4.02960938 7.25253906 -4.70765625 6.74335937 -5.40625 6.21875 C-7.46018236 4.95926318 -9.12245235 4.38731548 -11.4765625 3.94921875 C-11.4765625 3.28921875 -11.4765625 2.62921875 -11.4765625 1.94921875 C-17.90295945 -0.82619176 -24.13008441 -1.37726409 -31.0390625 -1.42578125 C-31.82966064 -1.43931641 -32.62025879 -1.45285156 -33.43481445 -1.46679688 C-39.24338004 -1.42349874 -44.08305924 -0.16957134 -49.4765625 1.94921875 Z " fill="#944C4A" transform="translate(101.4765625,39.05078125)"/>
<path d="M0 0 C2.86754378 2.49990997 3.80920716 4.38946292 4.9375 8 C5.01607629 11.77166176 4.28537684 13.01426574 2 16 C-0.32705513 17.33459298 -2.49393274 18.44591216 -4.9375 19.5 C-12.26483425 22.68050438 -15.87939775 26.61245182 -19 34 C-19.69463662 37.26177197 -20.25693325 40.48724464 -20.72851562 43.78515625 C-21.55253407 48.65125336 -21.55253407 48.65125336 -23.89453125 50.4765625 C-26.79868479 51.19855986 -29.11412138 50.65588151 -32 50 C-35.26906735 40.19279795 -33.94693689 27.5363846 -29.4140625 18.4453125 C-28.94742188 17.63835937 -28.48078125 16.83140625 -28 16 C-27.61585937 15.31679688 -27.23171875 14.63359375 -26.8359375 13.9296875 C-21.11820907 4.94468568 -10.72167659 -1.40612152 0 0 Z " fill="#FCFAF8" transform="translate(72,47)"/>
<path d="M0 0 C2 3 2 3 1.625 5.6875 C1.41875 6.450625 1.2125 7.21375 1 8 C0.34 8 -0.32 8 -1 8 C-1.0825 8.66 -1.165 9.32 -1.25 10 C-3.18727412 17.74909646 -7.76801708 24.06767291 -13 30 C-13.33 30 -13.66 30 -14 30 C-14.70645953 24.87816844 -14.70645953 24.87816844 -14 22 C-12.25390625 20.4140625 -12.25390625 20.4140625 -10.0625 19 C-7.00896609 17.09321942 -7.00896609 17.09321942 -5.24609375 14.09765625 C-4.99617494 12.03086734 -4.94010757 10.08026373 -5 8 C-4.98839844 7.31808594 -4.97679687 6.63617188 -4.96484375 5.93359375 C-4.94158949 4.28918516 -4.9657455 2.64421622 -5 1 C-2 0 -2 0 0 0 Z " fill="#E15352" transform="translate(190,104)"/>
<path d="M0 0 C1.875 1.1875 1.875 1.1875 3 3 C3.59636329 6.3225955 3.29109393 7.57455503 1.375 10.375 C-1 12 -1 12 -4.125 11.875 C-7 11 -7 11 -9 9 C-9.33015665 5.89652746 -9.50531294 3.84218824 -7.875 1.125 C-5.11909116 -0.52854531 -3.14924548 -0.39365568 0 0 Z " fill="#FBF6F7" transform="translate(53,108)"/>
<path d="M0 0 C0.33 0.66 0.66 1.32 1 2 C2.9914056 2.38133299 4.99279077 2.71325582 7 3 C7.66 3.33 8.32 3.66 9 4 C9.625 7.0625 9.625 7.0625 10 10 C12.31 10.33 14.62 10.66 17 11 C16.67 12.32 16.34 13.64 16 15 C17.32 15 18.64 15 20 15 C20 15.99 20 16.98 20 18 C16.25969173 17.44418496 13.8320691 16.48707097 10.75 14.3125 C6.77577849 11.54056399 2.74106544 8.89688264 -1.34765625 6.296875 C-1.89292969 5.86890625 -2.43820313 5.4409375 -3 5 C-3 4.34 -3 3.68 -3 3 C-3.66 2.67 -4.32 2.34 -5 2 C-3.35 1.34 -1.7 0.68 0 0 Z " fill="#DE5351" transform="translate(87,166)"/>
<path d="M0 0 C5.10607613 5.10607613 5.22078917 15.12219704 5.375 22 C5.2350254 28.9209662 3.85531387 35.35179195 2 42 C1.67 42 1.34 42 1 42 C0.67 38.7 0.34 35.4 0 32 C0.66 32 1.32 32 2 32 C1.83757812 31.49597656 1.67515625 30.99195312 1.5078125 30.47265625 C0.8158028 27.10310135 0.86827981 23.87487902 0.875 20.4375 C0.87113281 19.76525391 0.86726562 19.09300781 0.86328125 18.40039062 C0.86938927 15.32500248 1.02008771 12.93973687 2 10 C1.34 10 0.68 10 0 10 C0 6.7 0 3.4 0 0 Z " fill="#DD5452" transform="translate(192,62)"/>
<path d="M0 0 C0.66 1.32 1.32 2.64 2 4 C1.01 4.495 1.01 4.495 0 5 C0.33 6.32 0.66 7.64 1 9 C-0.6875 10.5625 -0.6875 10.5625 -3 12 C-5.75 11.6875 -5.75 11.6875 -8 11 C-8 11.66 -8 12.32 -8 13 C-8.66 12.67 -9.32 12.34 -10 12 C-7.20870403 7.10632366 -4.74107498 3.25102284 0 0 Z " fill="#F3625B" transform="translate(63,67)"/>
<path d="M0 0 C3 1 3 1 4 3 C4.99 2.34 5.98 1.68 7 1 C9.6875 1.375 9.6875 1.375 12 2 C11.07347299 3.17539996 10.13336613 4.34010577 9.1875 5.5 C8.40439453 6.47453125 8.40439453 6.47453125 7.60546875 7.46875 C6 9 6 9 3 9 C1.39453125 7.46875 1.39453125 7.46875 -0.1875 5.5 C-0.71730469 4.8503125 -1.24710937 4.200625 -1.79296875 3.53125 C-2.19128906 3.0259375 -2.58960937 2.520625 -3 2 C-2.01 1.34 -1.02 0.68 0 0 Z " fill="#F6F5F2" transform="translate(108,40)"/>
<path d="M0 0 C0.99 0.33 1.98 0.66 3 1 C0.06072511 4.14822808 -2.9856778 6.45457845 -6.625 8.75 C-7.58664063 9.36359375 -8.54828125 9.9771875 -9.5390625 10.609375 C-12 12 -12 12 -14 12 C-14.125 9.625 -14.125 9.625 -14 7 C-12 5 -12 5 -8.875 4.875 C-7.92625 4.91625 -6.9775 4.9575 -6 5 C-5.67 4.01 -5.34 3.02 -5 2 C-5 2.66 -5 3.32 -5 4 C-3.01508358 3.73323796 -3.01508358 3.73323796 -1 3 C-0.67 2.01 -0.34 1.02 0 0 Z " fill="#E25452" transform="translate(134,171)"/>
<path d="M0 0 C1.98 0 3.96 0 6 0 C6 4.10746566 4.36039564 5.19754861 1.625 8.1875 C0.81289062 9.08855469 0.00078125 9.98960937 -0.8359375 10.91796875 C-3 13 -3 13 -5 13 C-5.33 13.99 -5.66 14.98 -6 16 C-6.33 15.34 -6.66 14.68 -7 14 C-6.67 13.34 -6.34 12.68 -6 12 C-5.34 12 -4.68 12 -4 12 C-4.33 11.01 -4.66 10.02 -5 9 C-4.0409375 8.7215625 -4.0409375 8.7215625 -3.0625 8.4375 C-0.57873787 7.05753944 -0.57873787 7.05753944 -0.25 3.375 C-0.1675 2.26125 -0.085 1.1475 0 0 Z " fill="#DE5453" transform="translate(161,144)"/>
<path d="M0 0 C0.87011719 0.00902344 1.74023438 0.01804688 2.63671875 0.02734375 C4.7579342 0.05065381 6.87900562 0.08651421 9 0.125 C9 0.455 9 0.785 9 1.125 C0.585 1.62 0.585 1.62 -8 2.125 C-8.66 3.445 -9.32 4.765 -10 6.125 C-13.63 6.125 -17.26 6.125 -21 6.125 C-20.67 5.465 -20.34 4.805 -20 4.125 C-19.34 4.125 -18.68 4.125 -18 4.125 C-18 3.465 -18 2.805 -18 2.125 C-11.84497718 0.31553727 -6.39462981 -0.12769614 0 0 Z " fill="#DA5552" transform="translate(154,37.875)"/>
<path d="M0 0 C1.32 0.66 2.64 1.32 4 2 C4 4.83967231 3.59732819 7.23735711 3 10 C2.443125 9.690625 1.88625 9.38125 1.3125 9.0625 C-1.12540433 7.94238179 -3.36224186 7.43962636 -6 7 C-6 6.34 -6 5.68 -6 5 C-5.38125 4.731875 -4.7625 4.46375 -4.125 4.1875 C-1.7004767 3.04443152 -1.7004767 3.04443152 0 0 Z " fill="#F95850" transform="translate(46,47)"/>
<path d="M0 0 C0.33 0 0.66 0 1 0 C1 1.65 1 3.3 1 5 C-0.98 5.99 -0.98 5.99 -3 7 C-3 7.99 -3 8.98 -3 10 C-3.66 10 -4.32 10 -5 10 C-5.2475 10.804375 -5.495 11.60875 -5.75 12.4375 C-6.1625 13.283125 -6.575 14.12875 -7 15 C-9 15.6875 -9 15.6875 -11 16 C-11.66 16.66 -12.32 17.32 -13 18 C-13 13.71871015 -10.44364457 11.91729713 -7.625 9 C-3.54806773 4.72239636 -3.54806773 4.72239636 0 0 Z " fill="#F7F2EE" transform="translate(181,142)"/>
<path d="M0 0 C1.07753311 3.23259933 1.06911883 5.61317734 1 9 C0.7770601 12.71435826 0.7770601 12.71435826 1.6875 14.9375 C2.1513912 17.99918192 0.7087205 19.53944248 -1 22 C-3.11898017 18.50991501 -3.11898017 18.50991501 -2.5625 16.125 C-2.376875 15.42375 -2.19125 14.7225 -2 14 C-2.20625 13.0925 -2.4125 12.185 -2.625 11.25 C-3.14382886 6.75348324 -1.78047863 4.13071041 0 0 Z " fill="#954948" transform="translate(193,104)"/>
<path d="M0 0 C0.66 0.33 1.32 0.66 2 1 C1.42415568 3.38564077 0.77772405 5.66682784 0 8 C-3.375 8.625 -3.375 8.625 -7 9 C-7.66 8.34 -8.32 7.68 -9 7 C-6.03 4.69 -3.06 2.38 0 0 Z M-11 8 C-10.01 8.495 -10.01 8.495 -9 9 C-9.99 9.495 -9.99 9.495 -11 10 C-11 9.34 -11 8.68 -11 8 Z " fill="#F6F2F0" transform="translate(150,173)"/>
<path d="M0 0 C-3.67557852 4.00972202 -7.18966896 6.45335415 -12 9 C-12 8.01 -12 7.02 -12 6 C-11.34 6 -10.68 6 -10 6 C-9.67 4.35 -9.34 2.7 -9 1 C-5.8035914 -0.06546953 -3.34252724 -0.07427838 0 0 Z " fill="#925151" transform="translate(146,176)"/>
<path d="M0 0 C0.99 0.99 1.98 1.98 3 3 C3 3.66 3 4.32 3 5 C3.66 5 4.32 5 5 5 C5.66 6.65 6.32 8.3 7 10 C6.01 9.67 5.02 9.34 4 9 C3.67 10.32 3.34 11.64 3 13 C2.01 12.67 1.02 12.34 0 12 C0 8.04 0 4.08 0 0 Z " fill="#DA524E" transform="translate(185,51)"/>
<path d="M0 0 C1.875 2 1.875 2 3 4 C1.68 4.33 0.36 4.66 -1 5 C-1 3.68 -1 2.36 -1 1 C-1.99 1 -2.98 1 -4 1 C-3.67 1.99 -3.34 2.98 -3 4 C-3.61875 4.268125 -4.2375 4.53625 -4.875 4.8125 C-7.2995233 5.95556848 -7.2995233 5.95556848 -9 9 C-9.36 3.6 -9.36 3.6 -7.875 1.125 C-5.08893958 -0.54663625 -3.18011138 -0.46376624 0 0 Z " fill="#F3F2EC" transform="translate(53,108)"/>
<path d="M0 0 C0 0.66 0 1.32 0 2 C2.31 2 4.62 2 7 2 C7 2.33 7 2.66 7 3 C5.865625 3.309375 4.73125 3.61875 3.5625 3.9375 C0.21224901 4.62924531 0.21224901 4.62924531 -1 6 C-1.04092937 8.33297433 -1.04241723 10.66705225 -1 13 C-1.66 13 -2.32 13 -3 13 C-3 10.03 -3 7.06 -3 4 C-3.66 3.67 -4.32 3.34 -5 3 C-2.25 0 -2.25 0 0 0 Z M-5 13 C-4.01 13.495 -4.01 13.495 -3 14 C-3.99 14.495 -3.99 14.495 -5 15 C-5 14.34 -5 13.68 -5 13 Z " fill="#EF605A" transform="translate(46,105)"/>
<path d="M0 0 C1.98 1.65 3.96 3.3 6 5 C5.01 6.32 4.02 7.64 3 9 C1.125 8.6875 1.125 8.6875 -1 8 C-1.66 7.01 -2.32 6.02 -3 5 C-2.34 4.67 -1.68 4.34 -1 4 C-0.34786708 1.97536745 -0.34786708 1.97536745 0 0 Z " fill="#945051" transform="translate(48,139)"/>
<path d="M0 0 C2.31 0 4.62 0 7 0 C7 0.99 7 1.98 7 3 C6.34 3 5.68 3 5 3 C5 3.66 5 4.32 5 5 C4.34 5 3.68 5 3 5 C3 5.66 3 6.32 3 7 C2.01 7.33 1.02 7.66 0 8 C0 5.36 0 2.72 0 0 Z " fill="#DE5350" transform="translate(144,160)"/>
<path d="M0 0 C1.32 0.33 2.64 0.66 4 1 C2.46395304 4.14191424 0.94268841 7.08596738 -1 10 C-1.99 9.67 -2.98 9.34 -4 9 C-2.80100302 5.9168649 -1.52299523 2.93720508 0 0 Z " fill="#955151" transform="translate(188,125)"/>
<path d="M0 0 C1.98 1.65 3.96 3.3 6 5 C5.34 5.66 4.68 6.32 4 7 C3.01 7 2.02 7 1 7 C0.34 6.34 -0.32 5.68 -1 5 C-1.66 4.67 -2.32 4.34 -3 4 C-2.67 3.01 -2.34 2.02 -2 1 C-1.34 0.67 -0.68 0.34 0 0 Z " fill="#F8F4F1" transform="translate(51,152)"/>
<path d="M0 0 C0.33 0 0.66 0 1 0 C1 3.96 1 7.92 1 12 C1.66 12 2.32 12 3 12 C3 14.64 3 17.28 3 20 C2.34 20 1.68 20 1 20 C-0.14982602 15.90996141 -0.11094256 11.96822949 -0.0625 7.75 C-0.05798828 7.00492187 -0.05347656 6.25984375 -0.04882812 5.4921875 C-0.03709246 3.6614236 -0.0191585 1.83070127 0 0 Z " fill="#E95956" transform="translate(28,76)"/>
<path d="M0 0 C2.29633824 3.44450737 2.54016485 5.93812283 3 10 C2.01 9.67 1.02 9.34 0 9 C-0.99 9.33 -1.98 9.66 -3 10 C-2.25 2.25 -2.25 2.25 0 0 Z " fill="#8D4A44" transform="translate(35,44)"/>
<path d="M0 0 C0.45375 0.66 0.9075 1.32 1.375 2 C1.91125 2.66 2.4475 3.32 3 4 C3.66 4 4.32 4 5 4 C5 5.65 5 7.3 5 9 C3.68 9.33 2.36 9.66 1 10 C0 3.375 0 3.375 0 0 Z " fill="#904947" transform="translate(28,53)"/>
<path d="M0 0 C4.51478398 0.53115106 7.34666857 2.36620292 11 5 C10.01 5.33 9.02 5.66 8 6 C7.01 5.34 6.02 4.68 5 4 C2.35367713 4.3121764 2.35367713 4.3121764 0 5 C0 3.35 0 1.7 0 0 Z " fill="#DC5453" transform="translate(168,40)"/>
<path d="M0 0 C2.31 0.33 4.62 0.66 7 1 C5.625 2.5 5.625 2.5 4 4 C3.34 4 2.68 4 2 4 C1.67 4.66 1.34 5.32 1 6 C0.01 5.34 -0.98 4.68 -2 4 C-1.34 2.68 -0.68 1.36 0 0 Z " fill="#955350" transform="translate(41,38)"/>
<path d="M0 0 C3.3 1.65 6.6 3.3 10 5 C8 7 8 7 5.375 7.125 C4.59125 7.08375 3.8075 7.0425 3 7 C2.67 6.01 2.34 5.02 2 4 C1.34 2.68 0.68 1.36 0 0 Z " fill="#F4F0ED" transform="translate(91,185)"/>
<path d="M0 0 C0 0.66 0 1.32 0 2 C-6.6 1.67 -13.2 1.34 -20 1 C-20 0.67 -20 0.34 -20 0 C-17.41703983 -0.19522373 -14.83395921 -0.38144403 -12.25 -0.5625 C-11.52039063 -0.61857422 -10.79078125 -0.67464844 -10.0390625 -0.73242188 C-6.45046349 -0.97709908 -3.44972775 -0.99666259 0 0 Z " fill="#DCC5C1" transform="translate(84,29)"/>
<path d="M0 0 C1.093125 0.33 2.18625 0.66 3.3125 1 C6.84578884 2.13086649 6.84578884 2.13086649 10 2 C10.33 3.32 10.66 4.64 11 6 C6.87248551 5.39301257 3.6678852 3.96189209 0 2 C0 1.34 0 0.68 0 0 Z " fill="#925A58" transform="translate(103,190)"/>
<path d="M0 0 C0.8125 1.6875 0.8125 1.6875 1 4 C-1.4375 6.75 -1.4375 6.75 -4 9 C-4.33 8.01 -4.66 7.02 -5 6 C-5.33 5.67 -5.66 5.34 -6 5 C-2.25 1.125 -2.25 1.125 0 0 Z " fill="#A34E4F" transform="translate(131,176)"/>
<path d="M0 0 C2 1 2 1 3 3 C2.01 3 1.02 3 0 3 C-0.33 3.99 -0.66 4.98 -1 6 C-2.65 6.33 -4.3 6.66 -6 7 C-6 6.34 -6 5.68 -6 5 C-5.34 5 -4.68 5 -4 5 C-4 4.34 -4 3.68 -4 3 C-2 1.375 -2 1.375 0 0 Z " fill="#994845" transform="translate(153,160)"/>
<path d="M0 0 C2.72426311 2.35277269 3.8141763 4.62496331 5 8 C3.68 8.33 2.36 8.66 1 9 C-0.4783226 6.04335481 -0.06032783 3.25770263 0 0 Z " fill="#9C4D4B" transform="translate(38,120)"/>
<path d="M0 0 C0.33 0.66 0.66 1.32 1 2 C0.01 2 -0.98 2 -2 2 C-2.28875 2.78375 -2.5775 3.5675 -2.875 4.375 C-4 7 -4 7 -6 9 C-6.99 9 -7.98 9 -9 9 C-9 8.34 -9 7.68 -9 7 C-8.34 7 -7.68 7 -7 7 C-6.34 5.68 -5.68 4.36 -5 3 C-4.34 3 -3.68 3 -3 3 C-3 2.34 -3 1.68 -3 1 C-2.01 0.67 -1.02 0.34 0 0 Z " fill="#E75C54" transform="translate(49,43)"/>
<path d="M0 0 C0.66 0.33 1.32 0.66 2 1 C2.625 3.0625 2.625 3.0625 3 5 C1.02 5.99 1.02 5.99 -1 7 C-1.99 6.01 -2.98 5.02 -4 4 C-2.68 2.68 -1.36 1.36 0 0 Z " fill="#935452" transform="translate(123,39)"/>
<path d="M0 0 C1.2065625 0.0309375 1.2065625 0.0309375 2.4375 0.0625 C3.37173645 3.07281744 3.48199911 3.92900268 2.4375 7.0625 C1.4475 6.7325 0.4575 6.4025 -0.5625 6.0625 C-0.8925 5.0725 -1.2225 4.0825 -1.5625 3.0625 C-2.2225 2.4025 -2.8825 1.7425 -3.5625 1.0625 C-2.5625 0.0625 -2.5625 0.0625 0 0 Z " fill="#8E4644" transform="translate(91.5625,34.9375)"/>
<path d="M0 0 C0 0.99 0 1.98 0 3 C1.32 3.66 2.64 4.32 4 5 C2.68 6.32 1.36 7.64 0 9 C0 8.01 0 7.02 0 6 C-0.99 6 -1.98 6 -3 6 C-2.42655063 3.13275314 -2.1385485 2.1385485 0 0 Z " fill="#944644" transform="translate(115,51)"/>
<path d="M0 0 C0.66 1.32 1.32 2.64 2 4 C-1.96 5.98 -1.96 5.98 -6 8 C-6.99 7.01 -7.98 6.02 -9 5 C-6.03 4.34 -3.06 3.68 0 3 C0 2.01 0 1.02 0 0 Z " fill="#975455" transform="translate(131,182)"/>
<path d="M0 0 C0.99 0.99 1.98 1.98 3 3 C2.39816251 5.02045442 1.72693904 7.02111039 1 9 C0.01 9.495 0.01 9.495 -1 10 C-2.46726798 6.18510326 -1.43336419 3.70988378 0 0 Z " fill="#884743" transform="translate(192,116)"/>
<path d="M0 0 C0.66 0 1.32 0 2 0 C1.71125 0.53625 1.4225 1.0725 1.125 1.625 C-0.16711808 4.35280484 -1.08558592 7.12612718 -2 10 C-2.33 9.34 -2.66 8.68 -3 8 C-3.66 7.67 -4.32 7.34 -5 7 C-4.21654285 5.82780457 -3.42297164 4.66236332 -2.625 3.5 C-2.18414062 2.8503125 -1.74328125 2.200625 -1.2890625 1.53125 C-0.65097656 0.77328125 -0.65097656 0.77328125 0 0 Z " fill="#F9F0E9" transform="translate(49,56)"/>
<path d="M0 0 C2 1.375 2 1.375 4 3 C4 3.66 4 4.32 4 5 C4.66 5.33 5.32 5.66 6 6 C5.01 6.66 4.02 7.32 3 8 C1.68 6.68 0.36 5.36 -1 4 C-0.34 4 0.32 4 1 4 C0.67 2.68 0.34 1.36 0 0 Z " fill="#A34D4B" transform="translate(58,147)"/>
<path d="M0 0 C1.53166168 4.08443115 0.63081652 7.79455657 0 12 C-0.66 12 -1.32 12 -2 12 C-1.85962479 10.18706911 -1.71255111 8.3746557 -1.5625 6.5625 C-1.48128906 5.55316406 -1.40007813 4.54382813 -1.31640625 3.50390625 C-1 1 -1 1 0 0 Z " fill="#915A5A" transform="translate(22,68)"/>
<path d="M0 0 C1.98 0.99 1.98 0.99 4 2 C3.67 2.99 3.34 3.98 3 5 C3.66 5.66 4.32 6.32 5 7 C4.34 7 3.68 7 3 7 C2.67 7.66 2.34 8.32 2 9 C2 8.34 2 7.68 2 7 C1.34 7 0.68 7 0 7 C0 4.69 0 2.38 0 0 Z " fill="#934F50" transform="translate(94,35)"/>
<path d="M0 0 C2.97 1.65 5.94 3.3 9 5 C8.34 5.66 7.68 6.32 7 7 C4.13435314 6.81511956 3.18762835 6.20773139 1.25 4.0625 C0 2 0 2 0 0 Z " fill="#925353" transform="translate(176,34)"/>
<path d="M0 0 C1.32 0 2.64 0 4 0 C4.33 1.65 4.66 3.3 5 5 C3.125 4.6875 3.125 4.6875 1 4 C0.34 3.01 -0.32 2.02 -1 1 C-0.67 0.67 -0.34 0.34 0 0 Z " fill="#945352" transform="translate(51,149)"/>
<path d="M0 0 C0.33 0 0.66 0 1 0 C1.3125 2.3125 1.3125 2.3125 1 5 C-1.375 6.75 -1.375 6.75 -4 8 C-4.99 8.495 -4.99 8.495 -6 9 C-4.47300326 5.56425733 -2.44973747 2.84485642 0 0 Z " fill="#F3EAE5" transform="translate(181,142)"/>
<path d="M0 0 C2.8125 -0.25 2.8125 -0.25 6 0 C7.875 2 7.875 2 9 4 C7.68 4.33 6.36 4.66 5 5 C5 3.68 5 2.36 5 1 C3.02 1.33 1.04 1.66 -1 2 C-0.67 1.34 -0.34 0.68 0 0 Z " fill="#F6EBE2" transform="translate(47,108)"/>
<path d="M0 0 C1.98 0.99 3.96 1.98 6 3 C6 3.66 6 4.32 6 5 C4.68 4.67 3.36 4.34 2 4 C1.67 4.66 1.34 5.32 1 6 C0.01 4.68 -0.98 3.36 -2 2 C-1.34 1.34 -0.68 0.68 0 0 Z " fill="#8C4A47" transform="translate(38,41)"/>
<path d="M0 0 C1.98 0.99 1.98 0.99 4 2 C3.67 2.99 3.34 3.98 3 5 C3.66 5.33 4.32 5.66 5 6 C4.67 6.66 4.34 7.32 4 8 C3.01 7.67 2.02 7.34 1 7 C0.11706286 4.35118859 0 2.74807818 0 0 Z " fill="#8B4643" transform="translate(89,177)"/>
<path d="M0 0 C2 1 2 1 4 4 C0.25 5.125 0.25 5.125 -2 4 C-2.33 3.01 -2.66 2.02 -3 1 C-2.01 0.67 -1.02 0.34 0 0 Z " fill="#9B5454" transform="translate(156,162)"/>
<path d="M0 0 C7.75 -0.125 7.75 -0.125 10 1 C10 1.99 10 2.98 10 4 C6.58978257 3.21302675 3.31114834 2.12880057 0 1 C0 0.67 0 0.34 0 0 Z " fill="#985252" transform="translate(126,37)"/>
<path d="M0 0 C0.99 0 1.98 0 3 0 C1.55746343 3.36591866 -0.33264727 5.51047079 -3 8 C-3.33 7.01 -3.66 6.02 -4 5 C-3.01 4.34 -2.02 3.68 -1 3 C-0.67 2.01 -0.34 1.02 0 0 Z " fill="#DB5450" transform="translate(172,136)"/>
<path d="M0 0 C0.99 0.66 1.98 1.32 3 2 C0.03 4.475 0.03 4.475 -3 7 C-3.33 6.01 -3.66 5.02 -4 4 C-2.68 2.68 -1.36 1.36 0 0 Z " fill="#F4E7E5" transform="translate(117,41)"/>
<path d="M0 0 C3.875 1.75 3.875 1.75 5 4 C4.34 4 3.68 4 3 4 C2.67 4.66 2.34 5.32 2 6 C1.01 5.34 0.02 4.68 -1 4 C-0.67 2.68 -0.34 1.36 0 0 Z " fill="#8C4543" transform="translate(103,42)"/>
<path d="M0 0 C2.91387197 0.2913872 3.82565583 0.79452294 5.75 3.0625 C6.1625 3.701875 6.575 4.34125 7 5 C3.09161134 5 1.88405893 3.49432124 -1 1 C-0.67 0.67 -0.34 0.34 0 0 Z " fill="#F1EAE8" transform="translate(99,36)"/>
<path d="M0 0 C1.65 1.65 3.3 3.3 5 5 C4.34 5 3.68 5 3 5 C2.67 5.66 2.34 6.32 2 7 C0.5393715 4.35261084 0 3.10551666 0 0 Z " fill="#F6ECE8" transform="translate(58,159)"/>
<path d="M0 0 C1.32 1.32 2.64 2.64 4 4 C3.34 4.66 2.68 5.32 2 6 C-0.125 5.625 -0.125 5.625 -2 5 C-2 4.01 -2 3.02 -2 2 C-1.34 2 -0.68 2 0 2 C0 1.34 0 0.68 0 0 Z " fill="#964F4F" transform="translate(160,156)"/>
<path d="M0 0 C-1.65 1.32 -3.3 2.64 -5 4 C-5.33 2.68 -5.66 1.36 -6 0 C-3.50907189 -1.24546405 -2.58919267 -0.7767578 0 0 Z " fill="#F4EDEE" transform="translate(38,42)"/>
</svg>
