<svg xmlns="http://www.w3.org/2000/svg" width="225" height="225" viewBox="0 0 225 225">
<g>
<path d="M 159.44 134.09 C158.55,135.54 157.51,135.17 155.02,132.53 C149.41,126.55 135.36,125.23 127.39,129.94 C124.97,131.36 123.37,131.77 122.72,131.12 C121.85,130.25 125.96,126.93 129.50,125.65 C130.08,125.44 129.72,123.94 128.67,122.11 C127.67,120.36 126.59,116.48 126.28,113.47 C125.63,107.11 126.48,106.67 133.00,110.00 C135.16,111.10 137.17,112.00 137.47,112.00 C137.78,112.00 136.42,108.80 134.45,104.90 C132.48,100.99 131.01,97.68 131.19,97.53 C134.86,94.47 141.77,94.24 145.36,97.07 C150.66,101.24 152.30,114.02 148.47,121.39 C148.37,121.58 148.28,121.76 148.19,121.93 C147.43,123.39 147.05,124.12 147.24,124.64 C147.45,125.22 148.37,125.55 150.25,126.34 C154.45,128.09 160.17,132.92 159.44,134.09 ZM 70.13 133.34 C68.41,135.41 67.00,135.48 67.00,133.48 C67.00,132.21 74.16,126.78 77.15,125.78 C77.64,125.62 77.13,123.71 76.02,121.53 C73.97,117.53 73.18,108.00 74.89,108.00 C75.38,108.00 77.73,108.87 80.12,109.94 C82.50,111.01 84.60,111.74 84.77,111.56 C84.95,111.38 83.61,108.22 81.80,104.54 C78.58,98.00 78.55,97.81 80.44,96.42 C83.60,94.11 89.42,94.64 92.89,97.56 C98.11,101.96 99.60,112.87 96.05,120.70 L 94.15 124.89 L 97.45 125.98 C100.80,127.09 104.77,130.57 103.79,131.55 C103.49,131.84 101.11,130.94 98.48,129.54 C92.07,126.13 83.56,126.06 76.50,129.35 C73.75,130.63 70.88,132.43 70.13,133.34 ZM 128.18 188.50 C116.15,190.97 97.32,189.56 96.20,186.11 C95.83,185.00 96.49,184.90 99.62,185.61 C101.75,186.10 109.12,186.47 116.00,186.43 C127.44,186.37 129.19,186.11 136.65,183.29 C141.13,181.60 147.45,178.41 150.70,176.20 C158.01,171.24 167.13,161.50 171.16,154.38 C174.12,149.12 176.00,147.58 176.00,150.42 C176.00,153.18 165.83,166.99 159.71,172.53 C152.09,179.43 138.26,186.44 128.18,188.50 ZM 119.90 148.55 C115.88,150.63 109.11,150.36 105.19,147.98 C103.28,146.81 101.07,144.17 99.96,141.73 C97.64,136.60 97.53,135.00 99.50,135.00 C100.32,135.00 101.00,135.79 101.00,136.75 C101.01,139.94 104.99,145.10 108.63,146.62 C115.20,149.36 122.14,145.90 124.01,138.95 C124.60,136.77 125.70,135.00 126.46,135.00 C127.57,135.00 127.64,135.73 126.82,138.68 C125.44,143.69 123.24,146.82 119.90,148.55 ZM 116.65 132.87 C111.77,136.92 104.66,133.70 106.57,128.30 C108.59,122.58 118.00,123.04 118.00,128.86 C118.00,130.45 117.39,132.26 116.65,132.87 Z" fill="rgb(13,14,19)"/>
<path d="M 125.86 193.47 C112.00,196.10 97.27,195.21 84.26,190.96 C54.99,181.41 35.98,155.71 32.04,120.39 C28.16,85.60 46.26,52.04 76.50,37.95 C87.50,32.83 95.59,30.89 108.50,30.28 C132.82,29.14 153.79,36.99 170.72,53.58 C177.55,60.26 179.66,63.13 182.96,70.18 C190.51,86.30 195.06,111.47 193.09,126.28 C191.20,140.45 186.91,151.36 179.45,161.00 C166.33,177.94 147.45,189.37 125.86,193.47 ZM 70.13 133.34 C70.88,132.43 73.75,130.63 76.50,129.35 C83.56,126.06 92.07,126.13 98.48,129.54 C101.11,130.94 103.49,131.84 103.79,131.55 C104.77,130.57 100.80,127.09 97.45,125.98 L 96.45 125.65 C98.19,125.96 99.28,124.62 101.23,120.20 C103.83,114.34 104.71,101.16 102.99,93.89 C101.12,85.95 97.37,80.89 91.57,78.46 C78.05,72.82 66.98,84.91 67.01,105.30 C67.01,111.36 68.34,116.80 71.26,122.75 C72.70,125.67 73.65,126.90 74.86,126.90 C71.50,128.85 67.00,132.47 67.00,133.48 C67.00,135.48 68.41,135.41 70.13,133.34 ZM 159.44 134.09 C160.17,132.92 154.45,128.09 150.25,126.34 C149.96,126.21 149.69,126.10 149.44,126.00 C149.47,126.00 149.51,126.00 149.54,126.00 C151.75,126.00 154.84,118.89 156.07,111.00 C157.74,100.19 155.31,88.54 150.13,82.64 C147.63,79.80 141.45,77.00 137.79,77.04 C130.41,77.14 122.95,84.38 120.93,93.43 C119.11,101.57 120.16,115.46 123.04,121.25 C124.83,124.86 125.95,126.00 127.70,126.00 C128.17,126.00 128.56,125.96 128.88,125.89 C125.50,127.30 121.90,130.30 122.72,131.12 C123.37,131.77 124.97,131.36 127.39,129.94 C135.36,125.23 149.41,126.55 155.02,132.53 C157.51,135.17 158.55,135.54 159.44,134.09 ZM 128.18 188.50 C138.26,186.44 152.09,179.43 159.71,172.53 C165.83,166.99 176.00,153.18 176.00,150.42 C176.00,147.58 174.12,149.12 171.16,154.38 C167.13,161.50 158.01,171.24 150.70,176.20 C147.45,178.41 141.13,181.60 136.65,183.29 C129.19,186.11 127.44,186.37 116.00,186.43 C109.12,186.47 101.75,186.10 99.62,185.61 C96.49,184.90 95.83,185.00 96.20,186.11 C97.32,189.56 116.15,190.97 128.18,188.50 ZM 119.90 148.55 C123.24,146.82 125.44,143.69 126.82,138.68 C127.64,135.73 127.57,135.00 126.46,135.00 C125.70,135.00 124.60,136.77 124.01,138.95 C122.14,145.90 115.20,149.36 108.63,146.62 C104.99,145.10 101.01,139.94 101.00,136.75 C101.00,135.79 100.32,135.00 99.50,135.00 C97.53,135.00 97.64,136.60 99.96,141.73 C101.07,144.17 103.28,146.81 105.19,147.98 C109.11,150.36 115.88,150.63 119.90,148.55 ZM 116.65 132.87 C117.39,132.26 118.00,130.45 118.00,128.86 C118.00,123.04 108.59,122.58 106.57,128.30 C104.66,133.70 111.77,136.92 116.65,132.87 ZM 95.37 125.30 L 94.15 124.89 L 95.99 120.83 C94.54,124.03 94.40,124.81 95.37,125.30 ZM 147.68 125.15 C147.45,124.99 147.31,124.83 147.24,124.64 C147.05,124.12 147.43,123.39 148.19,121.93 C148.28,121.76 148.37,121.58 148.47,121.39 C147.57,123.13 147.31,124.39 147.68,125.15 ZM 128.17 121.08 C127.39,119.51 126.58,116.33 126.30,113.58 L 126.29 113.51 C126.55,116.01 127.34,119.11 128.17,121.08 ZM 77.16 125.78 C77.26,125.62 77.32,125.42 77.33,125.19 C77.36,125.52 77.30,125.73 77.16,125.78 ZM 129.44 125.67 C129.56,125.59 129.65,125.51 129.72,125.41 C129.68,125.53 129.61,125.61 129.50,125.65 C129.48,125.65 129.46,125.66 129.44,125.67 ZM 126.97 108.09 C127.92,107.62 129.76,108.34 133.00,110.00 C129.76,108.35 127.92,107.62 126.97,108.09 Z" fill="rgb(240,162,198)"/>
<path d="M 0.00 112.50 L 0.00 0.00 L 112.50 0.00 L 225.00 0.00 L 225.00 112.50 L 225.00 225.00 L 112.50 225.00 L 0.00 225.00 L 0.00 112.50 ZM 125.86 193.47 C147.45,189.37 166.33,177.94 179.45,161.00 C186.91,151.36 191.20,140.45 193.09,126.28 C195.06,111.47 190.51,86.30 182.96,70.18 C179.66,63.13 177.55,60.26 170.72,53.58 C153.79,36.99 132.82,29.14 108.50,30.28 C95.59,30.89 87.50,32.83 76.50,37.95 C46.26,52.04 28.16,85.60 32.04,120.39 C35.98,155.71 54.99,181.41 84.26,190.96 C97.27,195.21 112.00,196.10 125.86,193.47 ZM 71.26 122.75 C68.34,116.80 67.01,111.36 67.01,105.30 C66.98,84.91 78.05,72.82 91.57,78.46 C97.37,80.89 101.12,85.95 102.99,93.89 C104.71,101.16 103.83,114.34 101.23,120.20 C99.00,125.24 97.90,126.28 95.67,125.43 C94.36,124.92 94.41,124.30 96.06,120.67 C99.60,112.87 98.11,101.95 92.89,97.56 C89.42,94.64 83.60,94.11 80.44,96.42 C78.55,97.81 78.58,98.00 81.80,104.54 C83.61,108.22 84.95,111.38 84.77,111.56 C84.60,111.74 82.50,111.01 80.12,109.94 C77.73,108.87 75.38,108.00 74.89,108.00 C73.19,108.00 73.97,117.52 75.99,121.48 C77.52,124.49 77.70,125.57 76.74,126.18 C74.41,127.66 73.35,127.00 71.26,122.75 ZM 123.04 121.25 C120.16,115.46 119.11,101.57 120.93,93.43 C122.95,84.38 130.41,77.14 137.79,77.04 C141.45,77.00 147.63,79.80 150.13,82.64 C155.31,88.54 157.74,100.19 156.07,111.00 C154.84,118.89 151.75,126.00 149.54,126.00 C147.26,126.00 146.90,124.42 148.48,121.38 C152.30,114.02 150.66,101.24 145.36,97.07 C141.77,94.24 134.86,94.47 131.19,97.53 C131.01,97.68 132.48,100.99 134.45,104.90 C136.42,108.80 137.78,112.00 137.47,112.00 C137.17,112.00 135.16,111.10 133.00,110.00 C126.45,106.66 125.63,107.10 126.30,113.58 C126.61,116.65 127.58,120.23 128.44,121.54 C130.59,124.83 130.40,126.00 127.70,126.00 C125.95,126.00 124.83,124.86 123.04,121.25 Z" fill="rgb(254,254,254)"/>
</g>
</svg>