<?xml version="1.0" encoding="UTF-8"?>
<svg version="1.1" xmlns="http://www.w3.org/2000/svg" width="512" height="512">
<path d="M0 0 C0.69423701 -0.00320648 1.38847401 -0.00641296 2.1037485 -0.0097166 C4.42338246 -0.01799903 6.74275704 -0.01209856 9.0623951 -0.00622082 C10.74494252 -0.0092423 12.42748858 -0.01313177 14.1100322 -0.01781338 C18.72870703 -0.02810248 23.34730432 -0.02590923 27.96598554 -0.02163279 C32.94904815 -0.01916723 37.93209202 -0.02817762 42.91514778 -0.03567028 C52.67561998 -0.04842402 62.43606467 -0.05021013 72.1965438 -0.04787002 C80.12965585 -0.04608746 88.06275954 -0.04783517 95.99587059 -0.05209446 C97.12467104 -0.05268965 98.25347149 -0.05328484 99.41647802 -0.05389806 C101.7095917 -0.05510981 104.00270538 -0.05632394 106.29581906 -0.05754044 C127.8040021 -0.06841857 149.31216947 -0.06625219 170.8203534 -0.06015559 C190.49795459 -0.05498617 210.17550627 -0.06624207 229.85309766 -0.08525381 C250.05685913 -0.10462432 270.26059717 -0.1128896 290.46436799 -0.10913056 C301.80771776 -0.10721732 313.1510254 -0.10971802 324.4943676 -0.1238451 C334.15102498 -0.13574982 343.8076143 -0.13717398 353.4642726 -0.12505493 C358.39092874 -0.11915989 363.31746031 -0.11808415 368.2441082 -0.13005733 C372.7557108 -0.14089441 377.2670845 -0.13783867 381.77867629 -0.12379565 C383.40916809 -0.12114273 385.03967771 -0.12353392 386.67015205 -0.13153151 C407.23691265 -0.22539593 407.23691265 -0.22539593 414.45573616 6.66682911 C421.66436235 15.23209424 421.60324093 24.46345996 421.49870491 35.12215137 C421.47944926 37.75018222 421.51897827 40.372932 421.56340218 43.00056934 C421.61106663 52.34851057 421.39865233 59.96199404 414.7919178 67.25447559 C412.3778553 69.50838184 412.3778553 69.50838184 410.1669178 70.81697559 C409.43215218 71.27201466 408.69738655 71.72705372 407.9403553 72.19588184 C403.6095704 74.32977768 399.72220775 74.38107348 394.91895103 74.38590336 C394.22449922 74.38795599 393.5300474 74.39000863 392.81455159 74.39212346 C390.4761991 74.39779981 388.13790538 74.39633543 385.7995472 74.39491749 C384.11062768 74.39750076 382.42170877 74.40051381 380.73279071 74.40392089 C376.08262469 74.41199859 371.4324741 74.41378089 366.7823019 74.41451836 C361.77057988 74.41636756 356.7588659 74.42391422 351.74714851 74.43065357 C340.78438903 74.44424272 329.8216332 74.45026247 318.85886669 74.45466423 C312.01567507 74.45742558 305.17248487 74.46166272 298.3292942 74.4661684 C279.38813173 74.47836166 260.44697038 74.48866097 241.50580406 74.4920435 C240.29323643 74.49226306 239.0806688 74.49248263 237.83135669 74.49270885 C236.61586409 74.49292712 235.40037149 74.4931454 234.14804578 74.49337029 C231.68493541 74.49381376 229.22182504 74.49426033 226.75871468 74.49470997 C225.53692311 74.4949314 224.31513154 74.49515283 223.05631599 74.49538097 C203.25498728 74.49932973 183.45369535 74.51678588 163.65238085 74.54006949 C143.33007111 74.56377315 123.00777983 74.57624489 102.68545604 74.57741141 C91.27222551 74.57832871 79.85904291 74.58409481 68.44582558 74.60223103 C58.7279533 74.61761867 49.01014377 74.62276035 39.29226163 74.61449292 C34.33334296 74.61058174 29.37455069 74.6115389 24.41564751 74.62555027 C19.87561023 74.63826093 15.33579471 74.63711662 10.79575786 74.62495956 C9.15375192 74.62299765 7.51173042 74.62610376 5.86974636 74.63480392 C-13.44238214 74.73064806 -13.44238214 74.73064806 -20.83650017 67.7737627 C-28.31795218 59.48663635 -28.01589335 50.66753332 -27.91486931 40.03499317 C-27.8956442 37.32571319 -27.93509399 34.62157491 -27.97956657 31.91267872 C-28.0252466 22.48021511 -27.9293823 14.6012244 -21.2080822 7.25447559 C-15.04292371 1.56413275 -8.35717715 0.00588034 0 0 Z " fill="#FE7088" transform="translate(59.20808219909668,406.7455244064331)"/>
<path d="M0 0 C1.09175537 -0.00503792 1.09175537 -0.00503792 2.20556641 -0.01017761 C4.59165188 -0.01961139 6.97766662 -0.02162681 9.36376953 -0.02270508 C11.03614327 -0.02592266 12.70851673 -0.0292871 14.38088989 -0.03279114 C17.87925875 -0.03876328 21.37760297 -0.04063298 24.87597656 -0.04003906 C29.33990875 -0.03993749 33.80368172 -0.05359333 38.26757622 -0.07081127 C41.71986607 -0.08197517 45.17211793 -0.08395693 48.62442398 -0.08342934 C50.26931431 -0.0846027 51.91420584 -0.08898797 53.55907822 -0.0967617 C65.86195458 -0.14946929 76.49624175 -0.16350656 86.37158203 8.14526367 C91.89292039 14.79918426 92.67089183 21.90881489 92.61209106 30.22520447 C92.61379991 31.1173163 92.61550876 32.00942814 92.6172694 32.92857367 C92.620553 35.90575298 92.6095792 38.88270487 92.59863281 41.85986328 C92.59806845 43.99879959 92.59838574 46.13773628 92.59951782 48.27667236 C92.60009137 54.07569369 92.58833655 59.8746322 92.57436991 65.67363429 C92.56186305 71.73681006 92.56069208 77.79998776 92.55831909 83.86317444 C92.5521042 95.34127462 92.53569323 106.81933668 92.51562011 118.29742008 C92.48908028 133.81016267 92.47828854 149.32291568 92.46661568 164.83567524 C92.44781268 189.27223327 92.40796701 213.70871085 92.37158203 238.14526367 C51.45158203 238.14526367 10.53158203 238.14526367 -31.62841797 238.14526367 C-31.74932707 184.08993856 -31.74932707 184.08993856 -31.77490234 161.44799805 C-31.7927071 145.81084239 -31.81364469 130.17373521 -31.85473633 114.53662109 C-31.88464811 103.14848416 -31.90399524 91.76038653 -31.91068345 80.3722114 C-31.91459266 74.34287458 -31.92377359 68.31365021 -31.94560814 62.28434944 C-31.96600125 56.60697317 -31.97224599 50.92975546 -31.96774101 45.25234604 C-31.96856494 43.17108104 -31.97451365 41.08981062 -31.98603439 39.00857735 C-32.00102261 36.16076296 -31.99734844 33.31354245 -31.98918152 30.4657135 C-31.99792004 29.64759329 -32.00665857 28.82947309 -32.0156619 27.98656136 C-31.96099418 20.9044018 -30.39699777 14.85015042 -26.50341797 8.89526367 C-18.59424339 1.32996625 -10.73833122 0.03130721 0 0 Z " fill="#FE6F88" transform="translate(225.62841796875,153.854736328125)"/>
<path d="M0 0 C0 49.17 0 98.34 0 149 C-30.03 149 -60.06 149 -91 149 C-91.16121214 116.22019884 -91.16121214 116.22019884 -91.1953125 102.46875 C-91.21903382 92.97907857 -91.24689865 83.48954935 -91.30175781 74 C-91.34169497 67.08835156 -91.36744922 60.17681866 -91.37635398 53.26505804 C-91.38155717 49.60712724 -91.39373879 45.9495269 -91.42292023 42.29170227 C-91.4552746 38.20278421 -91.45595502 34.11443637 -91.45410156 30.02539062 C-91.46848267 28.81985535 -91.48286377 27.61432007 -91.49768066 26.37225342 C-91.45931687 18.54646093 -90.46380957 13.19780732 -85.359375 7.01171875 C-84.56273438 6.35623047 -84.56273438 6.35623047 -83.75 5.6875 C-83.22921875 5.23761719 -82.7084375 4.78773438 -82.171875 4.32421875 C-58.75304853 -9.95452617 -27.42852511 0 0 0 Z " fill="#FE8D8A" transform="translate(179,243)"/>
<path d="M0 0 C11.83875 -0.103125 23.6775 -0.20625 35.875 -0.3125 C39.59507324 -0.35802002 43.31514648 -0.40354004 47.14794922 -0.45043945 C51.73657227 -0.47302246 51.73657227 -0.47302246 53.89358521 -0.47721863 C55.38072214 -0.48483124 56.86783075 -0.50227976 58.35476685 -0.52787781 C68.36551828 -0.69140487 77.21931638 -0.44603946 84.92599487 6.8144989 C90.50795996 12.79186716 91.29319652 18.27627582 91.22705078 26.1965332 C91.22734283 27.11409897 91.22763489 28.03166473 91.22793579 28.97703552 C91.22654547 32.00171453 91.21099816 35.02614542 91.1953125 38.05078125 C91.19158132 40.15113694 91.18873484 42.25149437 91.18673706 44.35185242 C91.17910892 49.8740013 91.15946739 55.39604462 91.1373291 60.91815186 C91.11325159 67.54697742 91.10408579 74.17583833 91.09242249 80.80469513 C91.0730426 90.86987013 91.03471419 100.93481358 91 111 C60.97 111 30.94 111 0 111 C0 74.37 0 37.74 0 0 Z " fill="#FD5286" transform="translate(333,281)"/>
<path d="M0 0 C6.54723444 5.79897908 8.74956405 16.76441965 11.1875 24.9375 C11.1875 25.5975 11.1875 26.2575 11.1875 26.9375 C12.16976562 26.9060791 12.16976562 26.9060791 13.171875 26.87402344 C16.17692328 26.79019617 19.18172464 26.73863105 22.1875 26.6875 C23.21746094 26.65398438 24.24742187 26.62046875 25.30859375 26.5859375 C32.11691606 26.49920728 36.38944919 27.30700754 42.1875 30.9375 C45.87056417 34.73565993 45.57619538 39.08769019 45.68359375 44.12109375 C44.42894157 51.24396163 39.10813492 54.90293362 33.5625 58.8125 C32.881875 59.31007812 32.20125 59.80765625 31.5 60.3203125 C26.47171188 63.9375 26.47171188 63.9375 24.1875 63.9375 C24.36925781 64.49622803 24.55101562 65.05495605 24.73828125 65.63061523 C25.56821738 68.20793934 26.37790288 70.7912182 27.1875 73.375 C27.47367187 74.25349609 27.75984375 75.13199219 28.0546875 76.03710938 C30.21369712 83.00248565 31.91914322 89.59790236 28.4375 96.3125 C25.53955909 99.69343106 23.41212114 101.52929295 19.1875 102.9375 C9.88884013 103.63928565 4.18498906 98.68279531 -2.68945312 93.16992188 C-4.65878834 91.62224224 -4.65878834 91.62224224 -7.8125 89.9375 C-12.39280285 90.65654283 -16.26208148 94.26471485 -19.9375 97 C-25.79494553 101.34132917 -30.26703414 103.99500847 -37.8125 102.9375 C-42.4439797 100.40329412 -46.12282562 98.00652315 -47.8125 92.9375 C-48.56407716 85.42172844 -46.52808863 79.3590475 -44.00390625 72.390625 C-43.02365743 69.54951039 -42.30329841 66.8935732 -41.8125 63.9375 C-42.32683594 63.70675781 -42.84117187 63.47601563 -43.37109375 63.23828125 C-46.72463095 61.45151663 -49.77250322 59.31253407 -52.875 57.125 C-53.49955078 56.69896484 -54.12410156 56.27292969 -54.76757812 55.83398438 C-58.38991311 53.27863387 -61.00491873 51.11631692 -62.8125 46.9375 C-63.51049014 42.17474377 -63.36610878 37.56372579 -61.8125 33 C-57.25411918 28.29916978 -52.38659694 26.69273275 -46 26.546875 C-43.93713477 26.57315354 -41.8744412 26.62040304 -39.8125 26.6875 C-38.22115234 26.71457031 -38.22115234 26.71457031 -36.59765625 26.7421875 C-34.0016428 26.78896252 -31.40756472 26.85448858 -28.8125 26.9375 C-28.52028564 25.84864502 -28.52028564 25.84864502 -28.22216797 24.73779297 C-22.45279112 3.38434457 -22.45279112 3.38434457 -14.5625 -1.4375 C-9.52055053 -2.58339761 -4.8000896 -1.81336718 0 0 Z " fill="#FE6F88" transform="translate(264.8125,33.0625)"/>
</svg>
