<?xml version="1.0" encoding="UTF-8"?>
<svg version="1.1" xmlns="http://www.w3.org/2000/svg" width="256" height="256">
<path d="M0 0 C4.31445556 4.31445556 4.16697788 11.56104465 4.3125 17.375 C4.2317881 23.60449132 2.9808031 29.11654318 1 35 C1.60714844 35.13019531 2.21429688 35.26039062 2.83984375 35.39453125 C6.93712789 36.54295628 9.36458 39.12355862 11.8125 42.5 C14.84851631 51.4482586 12.70369644 61.48197024 11.0625 70.5625 C10.78889648 72.16061523 10.78889648 72.16061523 10.50976562 73.79101562 C9.17125496 81.48623512 9.17125496 81.48623512 8 85 C9.1446875 85.37125 9.1446875 85.37125 10.3125 85.75 C13.44463315 87.20680612 14.48717792 87.89473363 16 91 C16.69465685 95.52374093 16.61072902 98.89598984 14.375 102.9375 C9.65381929 107.03747272 5.08062475 107.24322499 -1 107 C-1.01417969 107.58265625 -1.02835938 108.1653125 -1.04296875 108.765625 C-1.85776132 122.77124856 -9.08248914 134.88501287 -19.375 144.1875 C-22.68149883 147 -22.68149883 147 -25 147 C-25 148.65 -25 150.3 -25 152 C-24.11828125 152.11214844 -23.2365625 152.22429687 -22.328125 152.33984375 C-9.67855421 154.84897223 0.9334688 165.10873685 8.6015625 174.8984375 C10 177 10 177 10 179 C11.00160156 179.11988281 12.00320312 179.23976562 13.03515625 179.36328125 C22.48997928 180.72551751 33.33647149 183.85169488 40 191 C44.58574704 197.92755185 45.74863817 204.08055183 45.6640625 212.265625 C45.66884613 213.30265564 45.67362976 214.33968628 45.67855835 215.40814209 C45.68193804 217.58298271 45.67287215 219.75787549 45.65185547 221.93261719 C45.62495381 225.25570541 45.6517268 228.57544981 45.68359375 231.8984375 C45.68029144 234.02084075 45.67388892 236.14324193 45.6640625 238.265625 C45.67418365 239.25322815 45.68430481 240.2408313 45.69473267 241.25836182 C45.61785272 245.78636974 45.49654834 249.00209352 42.58349609 252.60839844 C38.62450968 256.27332292 35.90834367 256.15029509 30.73858643 256.15390015 C29.98157023 256.1582824 29.22455404 256.16266465 28.44459796 256.1671797 C25.89437795 256.18059129 23.34419252 256.18675185 20.79394531 256.19287109 C18.9708948 256.20077021 17.14784586 256.20903904 15.32479858 256.21765137 C9.32592263 256.24389372 3.32703961 256.25918129 -2.671875 256.2734375 C-4.73524226 256.27879629 -6.79860946 256.28417379 -8.86197662 256.28956985 C-17.44383005 256.3112019 -26.02568158 256.3299393 -34.60755539 256.34119225 C-46.91518031 256.35743546 -59.22248972 256.39061864 -71.52999568 256.44759309 C-80.17889055 256.48626866 -88.82770095 256.50582212 -97.47668004 256.51111281 C-102.64469947 256.51476956 -107.81238255 256.52682518 -112.98030853 256.55921555 C-117.84278564 256.58925412 -122.70472214 256.59562304 -127.56727219 256.58383179 C-129.35148761 256.5836107 -131.13572781 256.59194492 -132.91985703 256.60948563 C-135.35744053 256.63214528 -137.79305842 256.62389884 -140.23065186 256.60800171 C-140.93552695 256.6218838 -141.64040205 256.63576588 -142.36663699 256.65006864 C-147.93904689 256.56062285 -150.21830669 254.79649207 -154 251 C-155.1805079 248.6389842 -155.1514617 247.1596379 -155.19287109 244.52539062 C-155.20893402 243.59682251 -155.22499695 242.66825439 -155.24154663 241.71154785 C-155.28615435 237.43791456 -155.32711349 233.16443729 -155.35009766 228.890625 C-155.3665948 226.6444254 -155.39380128 224.39827692 -155.43212891 222.15234375 C-155.48726939 218.90337041 -155.50883474 215.65563013 -155.5234375 212.40625 C-155.54610687 211.41419556 -155.56877625 210.42214111 -155.59213257 209.40002441 C-155.56896982 201.6484413 -153.67020338 194.93479325 -148.27328491 189.14880371 C-140.90225931 182.61394619 -129.53619705 180.1413981 -120 179 C-119.74734375 178.27296875 -119.4946875 177.5459375 -119.234375 176.796875 C-114.31445434 165.64920667 -102.02018395 158.07927421 -91.2578125 153.24609375 C-88 152 -88 152 -85 152 C-85 150.35 -85 148.7 -85 147 C-85.87205078 146.59587891 -85.87205078 146.59587891 -86.76171875 146.18359375 C-97.0791091 140.72780095 -103.29766165 130.13058459 -107.2890625 119.50390625 C-108.45774814 115.3878211 -108.81860781 111.26271649 -109 107 C-110.010625 107.061875 -111.02125 107.12375 -112.0625 107.1875 C-117.17875385 106.94386886 -120.98366944 105.69111596 -124.9375 102.375 C-126.62019898 98.61367287 -126.65580539 95.04293215 -126 91 C-124.23759159 87.97872845 -123.25488284 86.36638915 -119.859375 85.375 C-119.24578125 85.25125 -118.6321875 85.1275 -118 85 C-118.05534912 84.44352783 -118.11069824 83.88705566 -118.16772461 83.3137207 C-119.20010361 72.8062295 -120.15309097 62.28806663 -120.8125 51.75 C-120.91002563 50.50343628 -120.91002563 50.50343628 -121.00952148 49.23168945 C-121.40532478 42.09363113 -120.11882216 35.6338349 -116.4921875 29.4140625 C-111.2647257 23.63102505 -106.00416865 20.45949476 -98.1875 19.5625 C-94.02434822 18.82782616 -93.4394075 17.35418531 -91 14 C-83.17622523 7.10378615 -75.09292467 5.5597798 -64.95703125 5.55859375 C-63.91157639 5.54538589 -62.86612152 5.53217804 -61.78898621 5.51856995 C-58.46346387 5.47790162 -55.13821346 5.4560902 -51.8125 5.4375 C-30.32764904 5.95423553 -30.32764904 5.95423553 -9.5625 1.375 C-6.03048507 0.01176617 -3.73849059 -0.4450584 0 0 Z " fill="#F7B97E" transform="translate(183,0)"/>
<path d="M0 0 C-0.06558105 0.85505127 -0.13116211 1.71010254 -0.19873047 2.59106445 C-0.2458828 6.34497272 -0.04057635 9.38433983 1 13 C4.46380262 16.42603992 8.46024331 18.21327758 12.875 20.1875 C13.99003906 20.73212891 15.10507813 21.27675781 16.25390625 21.83789062 C18.31547658 22.84380763 20.38742692 23.82891636 22.47216797 24.78588867 C25 26 25 26 28 28 C27.50700679 32.13928262 25.40832444 33.58473182 22.3125 36.1875 C18.92459751 39.26719233 18.92459751 39.26719233 17.78125 43.48046875 C18.61351188 47.23176678 19.86021239 49.79031858 22 53 C22.09239576 55.62095986 22.04513267 58.07949741 21.875 60.6875 C21.82786865 61.45090698 21.7807373 62.21431396 21.73217773 63.00085449 C21.12483889 71.61027087 20.04230455 80.14995463 18.9453125 88.70703125 C18.75634151 90.19711183 18.56761914 91.68722397 18.37915039 93.17736816 C17.92229322 96.78527961 17.46209424 100.39275511 17 104 C6.54265542 104.11594033 -3.91453582 104.20473901 -14.37239265 104.25906086 C-19.22863623 104.28513514 -24.08443951 104.32049347 -28.94042969 104.37719727 C-33.62832836 104.43159457 -38.31580402 104.46143686 -43.00399399 104.47438622 C-44.79098036 104.48361226 -46.57794403 104.501629 -48.36474991 104.52865028 C-50.87143912 104.56504445 -53.37638912 104.56994121 -55.88330078 104.56762695 C-56.61913895 104.58560333 -57.35497711 104.60357971 -58.1131134 104.62210083 C-63.83190939 104.56511701 -66.13731447 102.9145623 -70 99 C-71.1805079 96.6389842 -71.1514617 95.1596379 -71.19287109 92.52539062 C-71.20893402 91.59682251 -71.22499695 90.66825439 -71.24154663 89.71154785 C-71.28615435 85.43791456 -71.32711349 81.16443729 -71.35009766 76.890625 C-71.3665948 74.6444254 -71.39380128 72.39827692 -71.43212891 70.15234375 C-71.48726939 66.90337041 -71.50883474 63.65563013 -71.5234375 60.40625 C-71.54610687 59.41419556 -71.56877625 58.42214111 -71.59213257 57.40002441 C-71.56896982 49.6484413 -69.67020338 42.93479325 -64.27328491 37.14880371 C-56.90225931 30.61394619 -45.53619705 28.1413981 -36 27 C-35.62101562 25.90945312 -35.62101562 25.90945312 -35.234375 24.796875 C-30.31385195 13.64784177 -18.05134887 6.13709088 -7.3203125 1.24609375 C-4 0 -4 0 0 0 Z " fill="#FECD5C" transform="translate(99,152)"/>
<path d="M0 0 C10.81116722 0.48049632 20.36046046 7.82613255 28 15 C36 23.87154472 36 23.87154472 36 27 C37.50240234 27.17982422 37.50240234 27.17982422 39.03515625 27.36328125 C48.48997928 28.72551751 59.33647149 31.85169488 66 39 C70.58574704 45.92755185 71.74863817 52.08055183 71.6640625 60.265625 C71.66884613 61.30265564 71.67362976 62.33968628 71.67855835 63.40814209 C71.68193804 65.58298271 71.67287215 67.75787549 71.65185547 69.93261719 C71.62495381 73.25570541 71.6517268 76.57544981 71.68359375 79.8984375 C71.68029144 82.02084075 71.67388892 84.14324193 71.6640625 86.265625 C71.67924423 87.74702972 71.67924423 87.74702972 71.69473267 89.25836182 C71.61785272 93.78636974 71.49654834 97.00209352 68.58349609 100.60839844 C64.52529512 104.36516811 61.63645015 104.13892002 56.33740234 104.11352539 C55.15190544 104.11374443 55.15190544 104.11374443 53.94245911 104.1139679 C51.32359089 104.11326983 48.70479333 104.10548239 46.0859375 104.09765625 C44.27275634 104.09579169 42.45957467 104.09436797 40.64639282 104.09336853 C35.86896377 104.08954632 31.09156501 104.07971855 26.31414795 104.06866455 C21.44120697 104.05844407 16.5682611 104.05386954 11.6953125 104.04882812 C2.13019501 104.03809603 -7.43489998 104.02102314 -17 104 C-17.71805696 98.02332165 -18.42993112 92.04595033 -19.13623047 86.06787109 C-19.37706879 84.03674734 -19.61955853 82.00581866 -19.86376953 79.97509766 C-20.21567246 77.04640347 -20.5615166 74.1170457 -20.90625 71.1875 C-21.0156189 70.28821777 -21.12498779 69.38893555 -21.2376709 68.46240234 C-22.9404901 53.82843584 -22.9404901 53.82843584 -19.9375 48.25 C-18.34761865 45.29092901 -18.34761865 45.29092901 -18.09375 42.01953125 C-19.36935568 39.17690998 -21.28433431 37.54453587 -23.5625 35.4375 C-26.06640625 33.12109375 -26.06640625 33.12109375 -28 31 C-28 30.01 -28 29.02 -28 28 C-27.18732666 27.55084229 -26.37465332 27.10168457 -25.53735352 26.63891602 C-22.53057709 24.97604654 -19.52464822 23.31166529 -16.51928711 21.64624023 C-15.21689115 20.92492574 -13.91415759 20.20422045 -12.61108398 19.48413086 C-10.74113893 18.45064658 -8.87240788 17.41499737 -7.00390625 16.37890625 C-5.87799072 15.7557251 -4.7520752 15.13254395 -3.59204102 14.49047852 C-1.148047 13.23488288 -1.148047 13.23488288 0 12 C0.07244053 9.98035801 0.08377188 7.95832876 0.0625 5.9375 C0.05347656 4.83277344 0.04445312 3.72804687 0.03515625 2.58984375 C0.02355469 1.73519531 0.01195312 0.88054687 0 0 Z " fill="#FECD5C" transform="translate(157,152)"/>
<path d="M0 0 C4.31445556 4.31445556 4.16697788 11.56104465 4.3125 17.375 C4.2317881 23.60449132 2.9808031 29.11654318 1 35 C1.60714844 35.13019531 2.21429688 35.26039062 2.83984375 35.39453125 C6.93712789 36.54295628 9.36458 39.12355862 11.8125 42.5 C14.84851631 51.4482586 12.70369644 61.48197024 11.0625 70.5625 C10.78889648 72.16061523 10.78889648 72.16061523 10.50976562 73.79101562 C9.17125496 81.48623512 9.17125496 81.48623512 8 85 C6.25215533 85.13560864 4.50126074 85.23227209 2.75 85.3125 C1.77546875 85.37050781 0.8009375 85.42851563 -0.203125 85.48828125 C-3 85 -3 85 -5.3359375 82.99609375 C-7.44449107 79.19970739 -7.42415149 75.96914508 -7.375 71.75 C-7.53154545 65.366349 -8.11547468 60.81382432 -12.24609375 55.66796875 C-17.42537121 50.74246435 -22.92587192 48.88695261 -29.99682617 48.82299805 C-31.23208542 48.81016281 -32.46734467 48.79732758 -33.74003601 48.78410339 C-35.09100949 48.77593362 -36.44198754 48.76849034 -37.79296875 48.76171875 C-38.47528376 48.75764322 -39.15759876 48.7535677 -39.86058998 48.74936867 C-43.4748466 48.72852139 -47.08906544 48.71421612 -50.70336914 48.70483398 C-54.42113299 48.69379573 -58.13829398 48.65942296 -61.85584545 48.61966228 C-64.72735134 48.59340487 -67.59871584 48.58513396 -70.47033119 48.58155251 C-71.83976609 48.57670694 -73.20919554 48.56515124 -74.57851219 48.54651451 C-82.48465838 48.44563195 -88.28586433 48.62234288 -95 53 C-97.07823115 54.95871592 -97.07823115 54.95871592 -98.4375 57.125 C-98.91058594 57.80820312 -99.38367188 58.49140625 -99.87109375 59.1953125 C-102.69866889 63.71551913 -102.24509156 68.41897613 -102.25390625 73.61523438 C-102.3841958 77.56163618 -102.76961337 79.63522117 -104.921875 83.04296875 C-109.26733526 85.80575503 -112.98651892 85.43807116 -118 85 C-119.10088593 73.93184986 -120.11781906 62.85174968 -120.8125 51.75 C-120.87751709 50.91895752 -120.94253418 50.08791504 -121.00952148 49.23168945 C-121.40532478 42.09363113 -120.11882216 35.6338349 -116.4921875 29.4140625 C-111.2647257 23.63102505 -106.00416865 20.45949476 -98.1875 19.5625 C-94.02434822 18.82782616 -93.4394075 17.35418531 -91 14 C-83.17622523 7.10378615 -75.09292467 5.5597798 -64.95703125 5.55859375 C-63.91157639 5.54538589 -62.86612152 5.53217804 -61.78898621 5.51856995 C-58.46346387 5.47790162 -55.13821346 5.4560902 -51.8125 5.4375 C-30.32764904 5.95423553 -30.32764904 5.95423553 -9.5625 1.375 C-6.03048507 0.01176617 -3.73849059 -0.4450584 0 0 Z " fill="#7A4646" transform="translate(183,0)"/>
<path d="M0 0 C1.14095627 0.00007553 2.28191254 0.00015106 3.45744324 0.00022888 C4.6887648 0.00539017 5.92008636 0.01055145 7.1887207 0.01586914 C8.44965042 0.01728409 9.71058014 0.01869904 11.00971985 0.02015686 C14.35851904 0.02480964 17.70725006 0.03379198 21.05603027 0.04486084 C24.47460339 0.05509852 27.89318355 0.05965953 31.31176758 0.06469727 C38.01686456 0.0757344 44.72192932 0.09247853 51.42700195 0.11352539 C49.95008971 5.77502232 49.95008971 5.77502232 47.60455322 7.2928772 C45.3450607 8.14440638 43.73921512 8.36454606 41.33618164 8.36889648 C40.54145447 8.37585541 39.74672729 8.38281433 38.92791748 8.38998413 C37.65129242 8.38848862 37.65129242 8.38848862 36.34887695 8.38696289 C34.52986047 8.4072597 32.7108501 8.42811063 30.8918457 8.44946289 C28.03713825 8.4720065 25.18267308 8.48851373 22.32788086 8.49438477 C19.56360513 8.50396133 16.80040839 8.53780656 14.03637695 8.57446289 C12.77189728 8.56689468 12.77189728 8.56689468 11.48187256 8.55917358 C4.54812696 8.67308401 -0.85747474 10.47139461 -5.88549805 15.36352539 C-10.74627476 23.28479114 -11.04604672 30.53344831 -10.96411133 39.61987305 C-10.94818846 41.71348879 -10.9639293 43.80512876 -10.9831543 45.89868164 C-11.01170029 63.33591029 -7.37317156 78.95639556 5.0168457 91.86352539 C12.95948418 99.27837104 23.21665471 106.07001591 34.36450195 106.73852539 C39.80083273 106.46538722 44.57699794 104.40551504 49.54418945 102.30493164 C52.42700195 101.11352539 52.42700195 101.11352539 56.42700195 100.11352539 C56.42700195 105.72352539 56.42700195 111.33352539 56.42700195 117.11352539 C52.53297793 119.2418988 48.63689516 121.36633771 44.73950195 123.48852539 C43.63670898 124.09180664 42.53391602 124.69508789 41.39770508 125.31665039 C39.79765625 126.18676758 39.79765625 126.18676758 38.1652832 127.07446289 C36.6963562 127.8756958 36.6963562 127.8756958 35.19775391 128.69311523 C32.64851638 129.99996728 30.10455334 131.10062886 27.42700195 132.11352539 C29.31733195 135.89418539 31.59117817 138.14476565 34.73950195 140.86352539 C38.38262086 144.37344068 38.38262086 144.37344068 38.5715332 147.52368164 C37.75471663 151.30069062 36.58138775 153.8819467 34.42700195 157.11352539 C34.36354058 159.87560614 34.42941651 162.49078371 34.61450195 165.23852539 C34.66276123 166.05804688 34.71102051 166.87756836 34.76074219 167.72192383 C35.31058822 176.04133337 36.3262763 184.30638165 37.41015625 192.57104492 C37.60605347 194.08480713 37.60605347 194.08480713 37.8059082 195.62915039 C37.92522705 196.51892578 38.0445459 197.40870117 38.16748047 198.32543945 C38.46997878 201.57523313 38.42700195 204.84968345 38.42700195 208.11352539 C30.50700195 208.11352539 22.58700195 208.11352539 14.42700195 208.11352539 C14.91188728 196.57325464 15.90013453 185.24814078 17.41064453 173.79541016 C19.16784639 162.80971212 19.16784639 162.80971212 16.36450195 152.36352539 C14.39888286 148.68378056 14.39888286 148.68378056 14.5246582 146.13305664 C15.789392 143.30246195 17.67084166 141.66082086 19.92700195 139.55102539 C23.44923176 136.34079858 23.44923176 136.34079858 25.42700195 132.11352539 C24.35240723 131.70469116 24.35240723 131.70469116 23.25610352 131.28759766 C20.44329723 130.1202879 17.83291326 128.78832161 15.16137695 127.32836914 C14.18942383 126.79791992 13.2174707 126.2674707 12.21606445 125.72094727 C10.71172852 124.89433594 10.71172852 124.89433594 9.17700195 124.05102539 C8.15864258 123.49608398 7.1402832 122.94114258 6.09106445 122.36938477 C-1.43810298 118.24842046 -1.43810298 118.24842046 -2.57299805 117.11352539 C-2.72882108 115.77337318 -2.82343947 114.42593636 -2.8894043 113.07836914 C-2.93129883 112.26948242 -2.97319336 111.4605957 -3.01635742 110.62719727 C-3.05567383 109.77706055 -3.09499023 108.92692383 -3.13549805 108.05102539 C-3.17868164 107.19702148 -3.22186523 106.34301758 -3.26635742 105.46313477 C-3.37276506 103.34680502 -3.47341536 101.23018726 -3.57299805 99.11352539 C-4.19392334 98.81115967 -4.81484863 98.50879395 -5.45458984 98.19726562 C-15.7383625 92.9362691 -21.92982242 82.08659555 -25.86206055 71.61743164 C-27.03074619 67.50134649 -27.39160586 63.37624188 -27.57299805 59.11352539 C-28.58362305 59.17540039 -29.59424805 59.23727539 -30.63549805 59.30102539 C-35.75175189 59.05739426 -39.55666748 57.80464135 -43.51049805 54.48852539 C-45.19036541 50.73352776 -45.24209747 47.14970577 -44.57299805 43.11352539 C-42.77906137 40.2432267 -41.59036528 38.62220901 -38.57299805 37.11352539 C-35.55557527 36.91558949 -32.5402496 36.79540536 -29.51831055 36.68774414 C-26.53239394 36.29609034 -26.53239394 36.29609034 -24.21362305 34.58227539 C-21.91613775 31.12510703 -22.15188977 27.92961583 -22.19799805 23.92602539 C-22.01852365 16.55665079 -21.01227755 11.49223386 -15.57299805 6.11352539 C-10.6284809 1.80667324 -6.54586886 -0.01445004 0 0 Z " fill="#F0A572" transform="translate(101.572998046875,47.886474609375)"/>
<path d="M0 0 C4.18761663 1.28060018 7.82056379 2.86346914 11.6171875 5.0390625 C12.63554688 5.61914062 13.65390625 6.19921875 14.703125 6.796875 C15.74984375 7.40015625 16.7965625 8.0034375 17.875 8.625 C19.47988281 9.54152344 19.47988281 9.54152344 21.1171875 10.4765625 C23.74755755 11.9796311 26.37500926 13.48756286 29 15 C28.18832534 19.14705726 26.54880094 20.4666283 23.3125 23.1875 C19.92459751 26.26719233 19.92459751 26.26719233 18.78125 30.48046875 C19.61351188 34.23176678 20.86021239 36.79031858 23 40 C23.0924099 42.62136085 23.04377863 45.07907777 22.875 47.6875 C22.82931885 48.48389893 22.7836377 49.28029785 22.73657227 50.10083008 C21.81722838 63.78505571 19.77699714 77.41457022 18 91 C5.46 91 -7.08 91 -20 91 C-20.08415306 83.35609676 -20.16425681 75.71389551 -20.20700073 68.06993103 C-20.22802246 64.50947005 -20.25605833 60.94939717 -20.30175781 57.38916016 C-20.35399721 53.29325857 -20.37302984 49.19776058 -20.390625 45.1015625 C-20.41127014 43.8407486 -20.43191528 42.57993469 -20.45318604 41.28091431 C-20.45572708 31.18408804 -18.75466374 23.0788098 -11.5 15.6875 C-6.7454359 10.76196699 -2.90694978 6.24994202 0 0 Z " fill="#E8E6E8" transform="translate(98,165)"/>
<path d="M0 0 C0.25652344 0.54527344 0.51304687 1.09054688 0.77734375 1.65234375 C3.15656799 6.33869453 5.64979252 9.83797381 9.5 13.4375 C14.98145307 18.63574466 19.76559131 25.856661 20.12025452 33.63859558 C20.11803391 34.6978273 20.11581329 35.75705902 20.11352539 36.84838867 C20.11344986 38.0494072 20.11337433 39.25042572 20.11329651 40.48783875 C20.10813522 41.78478165 20.10297394 43.08172455 20.09765625 44.41796875 C20.09579077 45.75889534 20.09436748 47.09982261 20.09336853 48.44075012 C20.08955356 51.96709073 20.07973199 55.49339004 20.06866455 59.01971436 C20.0584285 62.61925691 20.0538114 66.21880635 20.04882812 69.81835938 C20.03863969 76.8789427 20.01906549 83.93941268 20 91 C7.46 91 -5.08 91 -18 91 C-18.71641093 85.02308598 -19.42992899 79.0459684 -20.13623047 73.06787109 C-20.37706879 71.03674734 -20.61955853 69.00581866 -20.86376953 66.97509766 C-21.21567246 64.04640347 -21.5615166 61.1170457 -21.90625 58.1875 C-22.07030334 56.83857666 -22.07030334 56.83857666 -22.2376709 55.46240234 C-23.9404901 40.82843584 -23.9404901 40.82843584 -20.9375 35.25 C-19.34761865 32.29092901 -19.34761865 32.29092901 -19.09375 29.01953125 C-20.36935568 26.17690998 -22.28433431 24.54453587 -24.5625 22.4375 C-27.06640625 20.12109375 -27.06640625 20.12109375 -29 18 C-29 17.01 -29 16.02 -29 15 C-25.19441498 12.85836165 -21.38578825 10.72226974 -17.57421875 8.59130859 C-16.27746488 7.86529534 -14.98156103 7.13776169 -13.68652344 6.40869141 C-11.82707484 5.36221765 -9.96465796 4.3212138 -8.1015625 3.28125 C-6.42054443 2.33862305 -6.42054443 2.33862305 -4.70556641 1.37695312 C-2 0 -2 0 0 0 Z " fill="#E8E6E8" transform="translate(158,165)"/>
<path d="M0 0 C-0.30035156 0.556875 -0.60070313 1.11375 -0.91015625 1.6875 C-3.22183264 6.32652517 -4.65851152 9.90781953 -3.69921875 15.0859375 C-2.65499465 17.94442806 -0.95726083 20.08731641 1.0390625 22.359375 C2 24 2 24 1.72802734 25.91845703 C0.50533913 29.41431206 -2.36691597 31.63145729 -5 34.125 C-10.1543181 38.61542404 -10.1543181 38.61542404 -12.25 44.82421875 C-12.16579336 50.6269587 -10.42205069 56.22358455 -9 61.8125 C-8.43566895 64.06855319 -7.8730768 66.32504229 -7.3125 68.58203125 C-7.06113281 69.57436768 -6.80976562 70.5667041 -6.55078125 71.58911133 C-6 74 -6 74 -6 76 C-9.54122827 76.14601614 -13.08167644 76.2343056 -16.625 76.3125 C-17.62402344 76.35439453 -18.62304688 76.39628906 -19.65234375 76.43945312 C-27.99630922 76.57759825 -27.99630922 76.57759825 -31.6484375 73.60546875 C-34.63887734 70.29214089 -35.12482057 68.85440584 -35.19287109 64.52539062 C-35.20893402 63.59682251 -35.22499695 62.66825439 -35.24154663 61.71154785 C-35.28615435 57.43791456 -35.32711349 53.16443729 -35.35009766 48.890625 C-35.3665948 46.6444254 -35.39380128 44.39827692 -35.43212891 42.15234375 C-35.48726939 38.90337041 -35.50883474 35.65563013 -35.5234375 32.40625 C-35.54610687 31.41419556 -35.56877625 30.42214111 -35.59213257 29.40002441 C-35.56897078 21.64876578 -33.6706771 14.9336326 -28.27255249 9.14880371 C-22.43208355 3.96857487 -14.35121336 2.12575409 -7 0 C-6.25234375 -0.23074219 -5.5046875 -0.46148437 -4.734375 -0.69921875 C-3 -1 -3 -1 0 0 Z " fill="#FFDC76" transform="translate(63,180)"/>
<path d="M0 0 C10.46178079 1.25218226 22.58431262 4.04481589 30 12 C34.58574704 18.92755185 35.74863817 25.08055183 35.6640625 33.265625 C35.66884613 34.30265564 35.67362976 35.33968628 35.67855835 36.40814209 C35.68193804 38.58298271 35.67287215 40.75787549 35.65185547 42.93261719 C35.62495381 46.25570541 35.6517268 49.57544981 35.68359375 52.8984375 C35.68029144 55.02084075 35.67388892 57.14324193 35.6640625 59.265625 C35.67418365 60.25322815 35.68430481 61.2408313 35.69473267 62.25836182 C35.61785272 66.78636974 35.49654834 70.00209352 32.58349609 73.60839844 C29.0985398 76.83450237 27.61483684 77.1242232 22.9921875 77.09765625 C22.00605469 77.09443359 21.01992187 77.09121094 20.00390625 77.08789062 C18.97136719 77.07951172 17.93882812 77.07113281 16.875 77.0625 C15.31458984 77.05573242 15.31458984 77.05573242 13.72265625 77.04882812 C11.14838038 77.03701952 8.57421854 77.02055075 6 77 C6.9765625 72.60546875 7.953125 68.2109375 8.9296875 63.81640625 C9.10540283 63.02435791 9.28111816 62.23230957 9.4621582 61.41625977 C9.82561433 59.78342938 10.19139791 58.1511156 10.55932617 56.51928711 C10.7369751 55.72917236 10.91462402 54.93905762 11.09765625 54.125 C11.25758057 53.41730469 11.41750488 52.70960938 11.58227539 51.98046875 C12.27435816 48.69924408 12.54681113 46.3416236 12 43 C9.46721384 39.23079456 6.24844384 36.16553012 2.94140625 33.078125 C2.30074219 32.47484375 1.66007813 31.8715625 1 31.25 C0.401875 30.71890625 -0.19625 30.1878125 -0.8125 29.640625 C-2 28 -2 28 -1.8515625 26.02734375 C-0.93353542 23.84176551 0.20402411 22.20581145 1.625 20.3125 C4.16498942 16.36303668 4.41534882 13.7602274 3.59765625 9.1875 C2.70761538 5.92983408 1.48449744 3.03353824 0 0 Z " fill="#FFDC76" transform="translate(193,179)"/>
<path d="M0 0 C5.3763701 2.36609836 9.67422464 6.17949414 13 11 C13.39682104 15.76933961 11.59142302 19.11286547 9 23 C8.93653863 25.76208075 9.00241456 28.37725832 9.1875 31.125 C9.25988892 32.35428223 9.25988892 32.35428223 9.33374023 33.60839844 C9.88358627 41.92780797 10.89927434 50.19285626 11.9831543 58.45751953 C12.11375244 59.46669434 12.24435059 60.47586914 12.37890625 61.515625 C12.4982251 62.40540039 12.61754395 63.29517578 12.74047852 64.21191406 C13.04297682 67.46170774 13 70.73615806 13 74 C5.08 74 -2.84 74 -11 74 C-10.51511467 62.45972924 -9.52686742 51.13461539 -8.01635742 39.68188477 C-6.25915557 28.69618673 -6.25915557 28.69618673 -9.0625 18.25 C-11.01894909 14.5874219 -11.01894909 14.5874219 -10.9375 12.0625 C-9.53960304 8.98712669 -7.35984255 7.08035485 -4.9375 4.75 C-4.01839844 3.85796875 -3.09929687 2.9659375 -2.15234375 2.046875 C-1.44207031 1.37140625 -0.73179688 0.6959375 0 0 Z " fill="#624550" transform="translate(127,182)"/>
<path d="M0 0 C3.04027214 0.72476705 5.75308709 1.69799361 8.625 2.9375 C24.26153423 9.19666581 38.60140489 7.94331741 54 2 C55.98 1.34 57.96 0.68 60 0 C60 5.61 60 11.22 60 17 C56.10597597 19.12837341 52.2098932 21.25281232 48.3125 23.375 C47.20970703 23.97828125 46.10691406 24.5815625 44.97070312 25.203125 C43.90400391 25.78320312 42.83730469 26.36328125 41.73828125 26.9609375 C40.75899658 27.49509277 39.77971191 28.02924805 38.77075195 28.57958984 C36.22151443 29.88644189 33.67755139 30.98710347 31 32 C31 32.66 31 33.32 31 34 C30.34 34 29.68 34 29 34 C29 33.34 29 32.68 29 32 C28.28360352 31.72744385 27.56720703 31.4548877 26.82910156 31.17407227 C24.01629528 30.00676251 21.40591131 28.67479622 18.734375 27.21484375 C17.76242188 26.68439453 16.79046875 26.15394531 15.7890625 25.60742188 C14.28472656 24.78081055 14.28472656 24.78081055 12.75 23.9375 C11.73164062 23.38255859 10.71328125 22.82761719 9.6640625 22.25585938 C2.13489507 18.13489507 2.13489507 18.13489507 1 17 C0.76298761 14.14122091 0.57780818 11.30116703 0.4375 8.4375 C0.39431641 7.63119141 0.35113281 6.82488281 0.30664062 5.99414062 C0.20024738 3.99631195 0.09959112 1.9981793 0 0 Z " fill="#DF976C" transform="translate(98,148)"/>
<path d="M0 0 C0.25652344 0.54527344 0.51304687 1.09054688 0.77734375 1.65234375 C3.71894094 7.44639882 7.24322966 11.55719846 12.01171875 15.95703125 C13.90843778 17.90591937 14.95456953 19.51221092 16 22 C15.34 22 14.68 22 14 22 C13.73501709 22.58571777 13.47003418 23.17143555 13.19702148 23.77490234 C11.96100846 26.07247989 10.62713616 27.70135698 8.84765625 29.6015625 C8.23599609 30.25640625 7.62433594 30.91125 6.99414062 31.5859375 C6.35669922 32.25882813 5.71925781 32.93171875 5.0625 33.625 C4.42892578 34.305625 3.79535156 34.98625 3.14257812 35.6875 C-3.62494099 42.88910814 -3.62494099 42.88910814 -8.875 43.3125 C-11.95638529 43.26180079 -12.94818018 43.03133292 -15.6875 41.375 C-16.450625 40.92125 -17.21375 40.4675 -18 40 C-20.78223378 40.69485264 -20.78223378 40.69485264 -23 42 C-22.566875 41.0409375 -22.566875 41.0409375 -22.125 40.0625 C-21.568125 38.5465625 -21.568125 38.5465625 -21 37 C-20.69320312 36.34515625 -20.38640625 35.6903125 -20.0703125 35.015625 C-19.0957623 32.39826162 -18.67436632 30.79428901 -19 28 C-21.33465358 25.00140219 -23.86058083 22.63737612 -26.7421875 20.1640625 C-27.48726562 19.44992188 -28.23234375 18.73578125 -29 18 C-29 17.01 -29 16.02 -29 15 C-25.19441498 12.85836165 -21.38578825 10.72226974 -17.57421875 8.59130859 C-16.27746488 7.86529534 -14.98156103 7.13776169 -13.68652344 6.40869141 C-11.82707484 5.36221765 -9.96465796 4.3212138 -8.1015625 3.28125 C-6.42054443 2.33862305 -6.42054443 2.33862305 -4.70556641 1.37695312 C-2 0 -2 0 0 0 Z " fill="#E7E5E6" transform="translate(158,165)"/>
<path d="M0 0 C4.18761663 1.28060018 7.82056379 2.86346914 11.6171875 5.0390625 C12.63554688 5.61914062 13.65390625 6.19921875 14.703125 6.796875 C15.74984375 7.40015625 16.7965625 8.0034375 17.875 8.625 C19.47988281 9.54152344 19.47988281 9.54152344 21.1171875 10.4765625 C23.74755755 11.9796311 26.37500926 13.48756286 29 15 C28.19027996 19.14678079 26.58100689 20.38462682 23.3125 23.0625 C19.72831985 26.39605598 19.72831985 26.39605598 18.8515625 31.03125 C19.3846787 33.78923782 20.04738163 36.35932215 21 39 C20.37609375 39.30679688 19.7521875 39.61359375 19.109375 39.9296875 C17.02240975 40.94371155 17.02240975 40.94371155 15.25 42.125 C11.73531961 43.49182015 8.6458057 43.83619397 5 43 C1.86502071 41.12157682 -0.4928446 38.63887985 -3 36 C-3.46970215 35.51257324 -3.9394043 35.02514648 -4.42333984 34.52294922 C-5.96060188 32.92173708 -7.48377373 31.30863774 -9 29.6875 C-9.49346924 29.15995117 -9.98693848 28.63240234 -10.49536133 28.08886719 C-14 24.24126883 -14 24.24126883 -14 22 C-14.66 21.67 -15.32 21.34 -16 21 C-15.09507813 20.00419922 -15.09507813 20.00419922 -14.171875 18.98828125 C-13.37265625 18.10527344 -12.5734375 17.22226563 -11.75 16.3125 C-10.96109375 15.44238281 -10.1721875 14.57226562 -9.359375 13.67578125 C-5.50953686 9.30965687 -2.46409826 5.29781126 0 0 Z " fill="#E8E5E6" transform="translate(98,165)"/>
<path d="M0 0 C5.75084495 2.02970998 8.46499371 4.00940289 12 9 C14.89769999 17.69309997 12.65158241 27.77031048 11.0625 36.5625 C10.88009766 37.62791016 10.69769531 38.69332031 10.50976562 39.79101562 C9.17125496 47.48623512 9.17125496 47.48623512 8 51 C6.25215533 51.13560864 4.50126074 51.23227209 2.75 51.3125 C1.77546875 51.37050781 0.8009375 51.42851563 -0.203125 51.48828125 C-3 51 -3 51 -5.3359375 48.99609375 C-7.44449107 45.19970739 -7.42415149 41.96914508 -7.375 37.75 C-7.53161647 31.36345268 -8.11926624 26.81513876 -12.24609375 21.6640625 C-14.95980978 19.08935642 -17.61316452 17.5975639 -21 16 C-21.99 15.34 -22.98 14.68 -24 14 C-22.80503906 13.74476562 -22.80503906 13.74476562 -21.5859375 13.484375 C-11.70255441 11.22394189 -6.25481184 7.89614544 0 0 Z " fill="#845252" transform="translate(183,34)"/>
<path d="M0 0 C0.495 3.96 0.495 3.96 1 8 C-2.89337879 10.12952021 -6.7901172 12.25281798 -10.6875 14.375 C-11.79029297 14.97828125 -12.89308594 15.5815625 -14.02929688 16.203125 C-15.09599609 16.78320312 -16.16269531 17.36328125 -17.26171875 17.9609375 C-18.73064575 18.76217041 -18.73064575 18.76217041 -20.22924805 19.57958984 C-22.77848557 20.88644189 -25.32244861 21.98710347 -28 23 C-28 23.66 -28 24.32 -28 25 C-28.66 25 -29.32 25 -30 25 C-30 24.34 -30 23.68 -30 23 C-30.66386719 22.75507813 -31.32773438 22.51015625 -32.01171875 22.2578125 C-35.7438397 20.68690669 -39.25449907 18.80210864 -42.8125 16.875 C-43.50537109 16.50246094 -44.19824219 16.12992188 -44.91210938 15.74609375 C-46.60934836 14.83309623 -48.30485138 13.91687284 -50 13 C-48.53450214 8.35925678 -48.53450214 8.35925678 -46.27319336 6.83935547 C-43.48064856 5.80823432 -41.35202513 5.83691627 -38.37890625 5.9453125 C-36.73656006 5.98615967 -36.73656006 5.98615967 -35.06103516 6.02783203 C-33.90651855 6.05989746 -32.75200195 6.09196289 -31.5625 6.125 C-20.90838811 6.28751291 -12.38880182 5.7071843 -2.7421875 0.8671875 C-1 0 -1 0 0 0 Z " fill="#F0A674" transform="translate(157,157)"/>
<path d="M0 0 C1.43352212 0.00015908 2.86704998 0.00585132 4.30053711 0.01586914 C5.43041298 0.01799156 5.43041298 0.01799156 6.58311462 0.02015686 C8.99807646 0.02577163 11.41294687 0.03832656 13.82788086 0.05102539 C15.46134307 0.05603849 17.09480672 0.06060173 18.72827148 0.06469727 C22.74067671 0.07574585 26.75301326 0.09302033 30.76538086 0.11352539 C31.96069336 4.73071289 31.96069336 4.73071289 30.20288086 8.17602539 C26.45087498 12.6976735 22.2718195 15.77293183 16.31225586 16.35180664 C9.8069511 16.52443344 6.00127397 16.06715896 0.76538086 12.11352539 C-2.69364745 8.65449708 -3.90120732 6.00356546 -4.23461914 1.11352539 C-3.23461914 0.11352539 -3.23461914 0.11352539 0 0 Z " fill="#FEFEFD" transform="translate(114.234619140625,112.886474609375)"/>
<path d="M0 0 C5.3763701 2.36609836 9.67422464 6.17949414 13 11 C13.39682104 15.76933961 11.59142302 19.11286547 9 23 C8.61500109 24.65549531 8.27206865 26.3222433 8 28 C7.67 26.68 7.34 25.36 7 24 C3.04 24 -0.92 24 -5 24 C-5.33 25.32 -5.66 26.64 -6 28 C-6.268125 27.175 -6.53625 26.35 -6.8125 25.5 C-7.44406972 23.63853135 -8.09030537 21.77972242 -8.8359375 19.9609375 C-9.25746094 18.92839844 -9.25746094 18.92839844 -9.6875 17.875 C-9.95949219 17.23304688 -10.23148437 16.59109375 -10.51171875 15.9296875 C-11.14509264 13.42659387 -11.02767362 12.38599005 -10 10 C-7.71484375 7.421875 -7.71484375 7.421875 -4.9375 4.75 C-4.01839844 3.85796875 -3.09929687 2.9659375 -2.15234375 2.046875 C-1.44207031 1.37140625 -0.73179688 0.6959375 0 0 Z " fill="#6B4F5A" transform="translate(127,182)"/>
<path d="M0 0 C4.875 4.75 4.875 4.75 6 7 C5.34 7 4.68 7 4 7 C3.73501709 7.58571777 3.47003418 8.17143555 3.19702148 8.77490234 C1.96100846 11.07247989 0.62713616 12.70135698 -1.15234375 14.6015625 C-1.76400391 15.25640625 -2.37566406 15.91125 -3.00585938 16.5859375 C-3.64330078 17.25882813 -4.28074219 17.93171875 -4.9375 18.625 C-5.57107422 19.305625 -6.20464844 19.98625 -6.85742188 20.6875 C-13.62494099 27.88910814 -13.62494099 27.88910814 -18.875 28.3125 C-21.95638529 28.26180079 -22.94818018 28.03133292 -25.6875 26.375 C-26.450625 25.92125 -27.21375 25.4675 -28 25 C-30.78223378 25.69485264 -30.78223378 25.69485264 -33 27 C-32.731875 26.360625 -32.46375 25.72125 -32.1875 25.0625 C-30.64635858 21.08797739 -29.32390688 17.05115505 -28 13 C-27.55269531 13.44472656 -27.10539063 13.88945312 -26.64453125 14.34765625 C-26.03996094 14.91355469 -25.43539062 15.47945312 -24.8125 16.0625 C-24.22082031 16.63097656 -23.62914062 17.19945312 -23.01953125 17.78515625 C-21.0550503 19.1847262 -21.0550503 19.1847262 -18.640625 19.109375 C-14.66369671 17.43859447 -12.58942808 14.5065798 -9.9375 11.1875 C-8.90637868 9.9298152 -7.87385847 8.6732758 -6.83984375 7.41796875 C-6.11450439 6.53117432 -6.11450439 6.53117432 -5.37451172 5.62646484 C-3.6911483 3.63453463 -1.88822393 1.79766163 0 0 Z " fill="#D7D4D7" transform="translate(168,180)"/>
<path d="M0 0 C5.23159508 4.0942918 9.36829549 8.65798472 13.35888672 13.94824219 C15.29930957 16.41502723 16.66019037 17.87515142 19.63671875 18.96875 C23.13128078 19.01495908 24.529208 17.33723568 27 15 C27.66 14.34 28.32 13.68 29 13 C29.99 16.63 30.98 20.26 32 24 C30.02 24.99 30.02 24.99 28 26 C27.13375 26.556875 27.13375 26.556875 26.25 27.125 C22.73531961 28.49182015 19.6458057 28.83619397 16 28 C12.86502071 26.12157682 10.5071554 23.63887985 8 21 C7.53029785 20.51257324 7.0605957 20.02514648 6.57666016 19.52294922 C5.03939812 17.92173708 3.51622627 16.30863774 2 14.6875 C1.50653076 14.15995117 1.01306152 13.63240234 0.50463867 13.08886719 C-3 9.24126883 -3 9.24126883 -3 7 C-3.66 6.67 -4.32 6.34 -5 6 C-3.35 4.02 -1.7 2.04 0 0 Z " fill="#D7D4D7" transform="translate(87,180)"/>
<path d="M0 0 C1.27875 0.00257812 2.5575 0.00515625 3.875 0.0078125 C5.15375 0.00523438 6.4325 0.00265625 7.75 0 C10.875 0.1328125 10.875 0.1328125 11.875 1.1328125 C12.0625 3.5703125 12.0625 3.5703125 11.875 6.1328125 C9.875 8.1328125 9.875 8.1328125 7.125 8.3984375 C6.0525 8.39328125 4.98 8.388125 3.875 8.3828125 C2.26625 8.39054687 2.26625 8.39054687 0.625 8.3984375 C-2.125 8.1328125 -2.125 8.1328125 -4.125 6.1328125 C-4.3125 3.5703125 -4.3125 3.5703125 -4.125 1.1328125 C-3.125 0.1328125 -3.125 0.1328125 0 0 Z " fill="#865452" transform="translate(149.125,72.8671875)"/>
<path d="M0 0 C1.27875 0.00257812 2.5575 0.00515625 3.875 0.0078125 C5.15375 0.00523438 6.4325 0.00265625 7.75 0 C10.875 0.1328125 10.875 0.1328125 11.875 1.1328125 C12.0625 3.5703125 12.0625 3.5703125 11.875 6.1328125 C9.875 8.1328125 9.875 8.1328125 7.125 8.3984375 C6.0525 8.39328125 4.98 8.388125 3.875 8.3828125 C2.26625 8.39054687 2.26625 8.39054687 0.625 8.3984375 C-2.125 8.1328125 -2.125 8.1328125 -4.125 6.1328125 C-4.3125 3.5703125 -4.3125 3.5703125 -4.125 1.1328125 C-3.125 0.1328125 -3.125 0.1328125 0 0 Z " fill="#865452" transform="translate(99.125,72.8671875)"/>
<path d="M0 0 C4.55555556 0.55555556 4.55555556 0.55555556 6 2 C6.16796875 3.99609375 6.16796875 3.99609375 6.1875 6.4375 C6.20167969 7.24058594 6.21585938 8.04367188 6.23046875 8.87109375 C6 11 6 11 4 13 C-0.55555556 12.44444444 -0.55555556 12.44444444 -2 11 C-2.16796875 9.00390625 -2.16796875 9.00390625 -2.1875 6.5625 C-2.20167969 5.75941406 -2.21585938 4.95632812 -2.23046875 4.12890625 C-2 2 -2 2 0 0 Z " fill="#694B51" transform="translate(151,85)"/>
<path d="M0 0 C4.55555556 0.55555556 4.55555556 0.55555556 6 2 C6.16796875 3.99609375 6.16796875 3.99609375 6.1875 6.4375 C6.20167969 7.24058594 6.21585938 8.04367188 6.23046875 8.87109375 C6 11 6 11 4 13 C-0.55555556 12.44444444 -0.55555556 12.44444444 -2 11 C-2.16796875 9.00390625 -2.16796875 9.00390625 -2.1875 6.5625 C-2.20167969 5.75941406 -2.21585937 4.95632812 -2.23046875 4.12890625 C-2 2 -2 2 0 0 Z " fill="#6A4B51" transform="translate(101,85)"/>
</svg>
