<?xml version="1.0" encoding="UTF-8"?>
<svg version="1.1" xmlns="http://www.w3.org/2000/svg" width="225" height="225">
<path d="M0 0 C74.25 0 148.5 0 225 0 C225 74.25 225 148.5 225 225 C150.75 225 76.5 225 0 225 C0 150.75 0 76.5 0 0 Z " fill="#FD99A1" transform="translate(0,0)"/>
<path d="M0 0 C1.3734407 -0.00639748 1.3734407 -0.00639748 2.77462769 -0.01292419 C3.78712082 -0.01247101 4.79961395 -0.01201782 5.8427887 -0.0115509 C7.43289764 -0.01658882 7.43289764 -0.01658882 9.05513 -0.02172852 C12.57884373 -0.03127085 16.1025101 -0.03318325 19.62623596 -0.03425598 C22.06382263 -0.03746621 24.50140911 -0.0408301 26.93899536 -0.04434204 C32.05618232 -0.05034149 37.17335237 -0.0521811 42.2905426 -0.05158997 C48.86280154 -0.05148828 55.43495259 -0.06514339 62.00718594 -0.08236217 C67.0436249 -0.09345486 72.08003757 -0.09551002 77.1164875 -0.09498024 C79.54029271 -0.09616438 81.96409851 -0.10061024 84.38789177 -0.10831261 C87.77137282 -0.11805777 91.15461671 -0.1152562 94.5381012 -0.10920715 C95.5485701 -0.11482666 96.559039 -0.12044617 97.60012817 -0.12623596 C98.97779861 -0.11994423 98.97779861 -0.11994423 100.38330078 -0.11352539 C101.18396186 -0.11407016 101.98462294 -0.11461493 102.80954647 -0.1151762 C104.75514221 0.13371277 104.75514221 0.13371277 106.75514221 2.13371277 C106.75514221 3.12371277 106.75514221 4.11371277 106.75514221 5.13371277 C107.80701721 5.07183777 108.85889221 5.00996277 109.94264221 4.94621277 C113.96867244 5.14421426 115.611378 5.70852324 118.75514221 8.13371277 C121.57882792 12.36924133 121.42167978 16.15848591 120.75514221 21.13371277 C118.95867367 24.06794472 117.81103511 25.60576632 114.75514221 27.13371277 C112.08278012 27.26786749 109.43263733 27.17689817 106.75514221 27.13371277 C106.61076721 27.77308777 106.46639221 28.41246277 106.31764221 29.07121277 C105.75514221 31.13371277 105.75514221 31.13371277 104.75514221 32.13371277 C102.11514221 32.13371277 99.47514221 32.13371277 96.75514221 32.13371277 C96.75514221 58.20371277 96.75514221 84.27371277 96.75514221 111.13371277 C99.39514221 111.13371277 102.03514221 111.13371277 104.75514221 111.13371277 C106.75514221 113.13371277 106.75514221 113.13371277 106.75514221 116.13371277 C107.97201721 116.05121277 109.18889221 115.96871277 110.44264221 115.88371277 C113.82775961 115.87170881 114.69382455 116.09457384 117.69264221 118.00871277 C121.27203743 121.69657451 121.08723113 124.68695734 121.04420471 129.64933777 C120.63854453 133.13582254 119.3514242 134.83414872 116.75514221 137.13371277 C113.28189041 138.29146337 110.39446774 138.20237929 106.75514221 138.13371277 C106.61076721 138.77308777 106.46639221 139.41246277 106.31764221 140.07121277 C105.75514221 142.13371277 105.75514221 142.13371277 104.75514221 143.13371277 C103.34301145 143.23353319 101.92593573 143.26446108 100.51028442 143.26742554 C99.13684372 143.27382301 99.13684372 143.27382301 97.73565674 143.28034973 C96.7231636 143.27989655 95.71067047 143.27944336 94.66749573 143.27897644 C93.6074231 143.28233505 92.54735046 143.28569366 91.45515442 143.28915405 C87.9314407 143.29869639 84.40777432 143.30060879 80.88404846 143.30168152 C78.44646179 143.30489175 76.00887532 143.30825564 73.57128906 143.31176758 C68.4541021 143.31776703 63.33693205 143.31960664 58.21974182 143.3190155 C51.64748288 143.31891382 45.07533183 143.33256893 38.50309849 143.34978771 C33.46665952 143.3608804 28.43024686 143.36293556 23.39379692 143.36240578 C20.96999171 143.36358992 18.54618591 143.36803577 16.12239265 143.37573814 C12.7389116 143.38548331 9.35566771 143.38268173 5.97218323 143.37663269 C4.45647987 143.38506195 4.45647987 143.38506195 2.91015625 143.3936615 C1.53248581 143.38736977 1.53248581 143.38736977 0.12698364 143.38095093 C-0.67367743 143.3814957 -1.47433851 143.38204046 -2.29926205 143.38260174 C-4.24485779 143.13371277 -4.24485779 143.13371277 -6.24485779 141.13371277 C-6.24485779 140.14371277 -6.24485779 139.15371277 -6.24485779 138.13371277 C-7.29673279 138.19558777 -8.34860779 138.25746277 -9.43235779 138.32121277 C-13.45838802 138.12321128 -15.10109358 137.5589023 -18.24485779 135.13371277 C-21.06854349 130.89818421 -20.91139536 127.10893963 -20.24485779 122.13371277 C-18.44838925 119.19948082 -17.30075068 117.66165922 -14.24485779 116.13371277 C-11.57249569 115.99955804 -8.9223529 116.09052736 -6.24485779 116.13371277 C-6.10048279 115.49433777 -5.95610779 114.85496277 -5.80735779 114.19621277 C-5.24485779 112.13371277 -5.24485779 112.13371277 -4.24485779 111.13371277 C-1.60485779 111.13371277 1.03514221 111.13371277 3.75514221 111.13371277 C3.75514221 85.06371277 3.75514221 58.99371277 3.75514221 32.13371277 C1.11514221 32.13371277 -1.52485779 32.13371277 -4.24485779 32.13371277 C-4.90485779 31.47371277 -5.56485779 30.81371277 -6.24485779 30.13371277 C-6.24485779 29.14371277 -6.24485779 28.15371277 -6.24485779 27.13371277 C-8.07017029 27.25746277 -8.07017029 27.25746277 -9.93235779 27.38371277 C-13.31747519 27.39571673 -14.18354013 27.1728517 -17.18235779 25.25871277 C-20.89189793 21.43676232 -20.70814536 18.0045602 -20.64720154 12.84465027 C-20.22089813 9.97227582 -19.83462575 8.90572419 -17.74485779 6.94621277 C-13.39808498 4.69520542 -11.06055979 4.71856604 -6.24485779 5.13371277 C-6.10048279 4.49433777 -5.95610779 3.85496277 -5.80735779 3.19621277 C-4.81943191 -0.42618213 -3.4992889 0.00732773 0 0 Z " fill="#0B0706" transform="translate(62.24485778808594,40.86628723144531)"/>
<path d="M0 0 C28.71 0 57.42 0 87 0 C87 26.07 87 52.14 87 79 C58.29 79 29.58 79 0 79 C0 52.93 0 26.86 0 0 Z " fill="#EAD6B2" transform="translate(69,73)"/>
<path d="M0 0 C1.32512352 -0.00422974 1.32512352 -0.00422974 2.67701721 -0.00854492 C4.14200905 -0.00550858 4.14200905 -0.00550858 5.63659668 -0.00241089 C7.17059364 -0.00503937 7.17059364 -0.00503937 8.73558044 -0.00772095 C12.13424347 -0.01214163 15.53285495 -0.00920071 18.93151855 -0.00582886 C21.28181976 -0.00650183 23.63212091 -0.00747181 25.98242188 -0.00872803 C30.91549337 -0.01020529 35.84854681 -0.00804952 40.78161621 -0.00338745 C47.12077523 0.00230985 53.45989191 -0.000969 59.79904938 -0.00695992 C64.65444256 -0.01056475 69.50982563 -0.0094273 74.36521912 -0.00683212 C76.70332341 -0.00616264 79.04142862 -0.00699202 81.37953186 -0.00931168 C84.64102632 -0.01183693 87.90245118 -0.0079994 91.16394043 -0.00241089 C92.14060165 -0.00443512 93.11726288 -0.00645935 94.1235199 -0.00854492 C95.00693558 -0.0057251 95.89035126 -0.00290527 96.80053711 0 C97.95866535 0.00056554 97.95866535 0.00056554 99.14019012 0.0011425 C100.90026855 0.12698364 100.90026855 0.12698364 101.90026855 1.12698364 C101.90026855 9.37698364 101.90026855 17.62698364 101.90026855 26.12698364 C66.59026855 26.12698364 31.28026855 26.12698364 -5.09973145 26.12698364 C-5.09973145 0.00249031 -5.09973145 0.00249031 0 0 Z " fill="#2F2F2F" transform="translate(64.0997314453125,154.87301635742188)"/>
<path d="M0 0 C35.31 0 70.62 0 107 0 C107 8.25 107 16.5 107 25 C105.45989313 26.54010687 104.0460141 26.12593583 101.90026855 26.12698364 C100.57514503 26.13121338 100.57514503 26.13121338 99.22325134 26.13552856 C98.24659012 26.13350433 97.26992889 26.1314801 96.26367188 26.12939453 C94.72967491 26.13202301 94.72967491 26.13202301 93.16468811 26.13470459 C89.76602508 26.13912527 86.36741361 26.13618435 82.96875 26.1328125 C80.61844879 26.13348548 78.26814765 26.13445545 75.91784668 26.13571167 C70.98477518 26.13718894 66.05172175 26.13503316 61.11865234 26.13037109 C54.77949333 26.1246738 48.44037664 26.12795265 42.10121918 26.13394356 C37.24582599 26.13754839 32.39044292 26.13641094 27.53504944 26.13381577 C25.19694514 26.13314628 22.85883994 26.13397566 20.52073669 26.13629532 C17.25924223 26.13882057 13.99781737 26.13498304 10.73632812 26.12939453 C9.7596669 26.13141876 8.78300568 26.13344299 7.77674866 26.13552856 C6.89333298 26.13270874 6.0099173 26.12988892 5.09973145 26.12698364 C4.32764595 26.12660662 3.55556046 26.12622959 2.76007843 26.12584114 C1 26 1 26 0 25 C0 16.75 0 8.5 0 0 Z " fill="#2F2F2F" transform="translate(59,44)"/>
<path d="M0 0 C0.33 0 0.66 0 1 0 C1 33.99 1 67.98 1 103 C-32.33 103 -65.66 103 -100 103 C-100 102.67 -100 102.34 -100 102 C-98.07800781 101.65388672 -98.07800781 101.65388672 -96.1171875 101.30078125 C-74.40870693 97.26610778 -56.22636524 90.03537429 -39 76 C-38.22269531 75.38769531 -37.44539063 74.77539062 -36.64453125 74.14453125 C-22.32962907 62.26189564 -12.34829702 45.26931373 -6 28 C-5.57267578 26.84371094 -5.57267578 26.84371094 -5.13671875 25.6640625 C-2.37684274 17.37028126 -1.32293012 8.6131195 0 0 Z " fill="#FEFEFE" transform="translate(224,122)"/>
<path d="M0 0 C0.33 0 0.66 0 1 0 C1.05945801 0.54712646 1.11891602 1.09425293 1.18017578 1.65795898 C3.92455322 25.85952688 11.45876356 46.0348767 27 65 C27.69738281 65.86238281 28.39476563 66.72476563 29.11328125 67.61328125 C46.46436845 88.00953184 72.79739957 100.41189616 99 104 C99 104.33 99 104.66 99 105 C66.33 105 33.66 105 0 105 C0 70.35 0 35.7 0 0 Z " fill="#FEFEFE" transform="translate(0,120)"/>
<path d="M0 0 C33 0 66 0 100 0 C100 32.67 100 65.34 100 99 C98.19435288 95.38870576 97.70172361 93.60040603 97.25 89.75 C93.21454716 64.20247931 76.48083309 38.93411713 56.10107422 23.56933594 C46.48214432 16.57731869 36.13450908 11.18144873 25 7 C24.27941406 6.71511719 23.55882812 6.43023437 22.81640625 6.13671875 C15.4739678 3.43014881 7.68384545 2.3293524 0 1 C0 0.67 0 0.34 0 0 Z " fill="#FEFEFE" transform="translate(125,0)"/>
<path d="M0 0 C33.99 0 67.98 0 103 0 C103 0.33 103 0.66 103 1 C101.741875 1.14695313 100.48375 1.29390625 99.1875 1.4453125 C76.68730853 4.29844551 57.60864866 12.6042448 40 27 C38.74123047 27.99386719 38.74123047 27.99386719 37.45703125 29.0078125 C16.70146664 46.36461216 4.9785751 72.75536426 1 99 C0.67 99 0.34 99 0 99 C0 66.33 0 33.66 0 0 Z " fill="#FEFEFE" transform="translate(0,0)"/>
<path d="M0 0 C1.32512352 -0.00422974 1.32512352 -0.00422974 2.67701721 -0.00854492 C4.14200905 -0.00550858 4.14200905 -0.00550858 5.63659668 -0.00241089 C7.17059364 -0.00503937 7.17059364 -0.00503937 8.73558044 -0.00772095 C12.13424347 -0.01214163 15.53285495 -0.00920071 18.93151855 -0.00582886 C21.28181976 -0.00650183 23.63212091 -0.00747181 25.98242188 -0.00872803 C30.91549337 -0.01020529 35.84854681 -0.00804952 40.78161621 -0.00338745 C47.12077523 0.00230985 53.45989191 -0.000969 59.79904938 -0.00695992 C64.65444256 -0.01056475 69.50982563 -0.0094273 74.36521912 -0.00683212 C76.70332341 -0.00616264 79.04142862 -0.00699202 81.37953186 -0.00931168 C84.64102632 -0.01183693 87.90245118 -0.0079994 91.16394043 -0.00241089 C92.14060165 -0.00443512 93.11726288 -0.00645935 94.1235199 -0.00854492 C95.00693558 -0.0057251 95.89035126 -0.00290527 96.80053711 0 C97.95866535 0.00056554 97.95866535 0.00056554 99.14019012 0.0011425 C100.90026855 0.12698364 100.90026855 0.12698364 101.90026855 1.12698364 C101.90026855 9.37698364 101.90026855 17.62698364 101.90026855 26.12698364 C66.59026855 26.12698364 31.28026855 26.12698364 -5.09973145 26.12698364 C-5.09973145 0.00249031 -5.09973145 0.00249031 0 0 Z M-0.09973145 6.12698364 C-0.19882447 8.45858419 -0.22943649 10.79328306 -0.22473145 13.12698364 C-0.22730957 14.40573364 -0.2298877 15.68448364 -0.23254395 17.00198364 C-0.45834037 19.99385608 -0.45834037 19.99385608 0.90026855 21.12698364 C3.84736271 21.22758134 6.77105997 21.26313414 9.71862793 21.25637817 C11.10632133 21.25900665 11.10632133 21.25900665 12.52204895 21.26168823 C15.59605761 21.26610832 18.67000926 21.26316821 21.74401855 21.25979614 C23.8701173 21.26046914 25.99621597 21.26143912 28.12231445 21.26269531 C32.58460216 21.2641725 37.04686989 21.26201707 41.50915527 21.25735474 C47.24297424 21.25165744 52.97674641 21.25493634 58.71056366 21.2609272 C63.10272579 21.26453226 67.49487673 21.26339448 71.88703918 21.26079941 C74.00185654 21.26012998 76.1166749 21.26095909 78.23149109 21.26327896 C81.18165801 21.26580458 84.13174802 21.26196618 87.08190918 21.25637817 C88.40663994 21.25941452 88.40663994 21.25941452 89.75813293 21.26251221 C93.64111769 21.63360794 93.64111769 21.63360794 96.90026855 20.12698364 C96.99936158 17.79538309 97.0299736 15.46068423 97.02526855 13.12698364 C97.02784668 11.84823364 97.0304248 10.56948364 97.03308105 9.25198364 C97.25887748 6.2601112 97.25887748 6.2601112 95.90026855 5.12698364 C92.9531744 5.02638595 90.02947714 4.99083314 87.08190918 4.99758911 C86.15678024 4.99583679 85.23165131 4.99408447 84.27848816 4.99227905 C81.2044795 4.98785897 78.13052785 4.99079908 75.05651855 4.99417114 C72.93041981 4.99349815 70.80432114 4.99252816 68.67822266 4.99127197 C64.21593495 4.98979479 59.75366722 4.99195022 55.29138184 4.99661255 C49.55756287 5.00230984 43.8237907 4.99903095 38.08997345 4.99304008 C33.69781132 4.98943503 29.30566038 4.9905728 24.91349792 4.99316788 C22.79868057 4.9938373 20.68386221 4.99300819 18.56904602 4.99068832 C15.6188791 4.98816271 12.66878909 4.99200111 9.71862793 4.99758911 C8.83547409 4.99556488 7.95232025 4.99354065 7.04240417 4.99145508 C3.15941942 4.62035935 3.15941942 4.62035935 -0.09973145 6.12698364 Z " fill="#F8A51A" transform="translate(64.0997314453125,154.87301635742188)"/>
<path d="M0 0 C35.31 0 70.62 0 107 0 C107 8.25 107 16.5 107 25 C105.45989313 26.54010687 104.0460141 26.12593583 101.90026855 26.12698364 C100.57514503 26.13121338 100.57514503 26.13121338 99.22325134 26.13552856 C98.24659012 26.13350433 97.26992889 26.1314801 96.26367188 26.12939453 C94.72967491 26.13202301 94.72967491 26.13202301 93.16468811 26.13470459 C89.76602508 26.13912527 86.36741361 26.13618435 82.96875 26.1328125 C80.61844879 26.13348548 78.26814765 26.13445545 75.91784668 26.13571167 C70.98477518 26.13718894 66.05172175 26.13503316 61.11865234 26.13037109 C54.77949333 26.1246738 48.44037664 26.12795265 42.10121918 26.13394356 C37.24582599 26.13754839 32.39044292 26.13641094 27.53504944 26.13381577 C25.19694514 26.13314628 22.85883994 26.13397566 20.52073669 26.13629532 C17.25924223 26.13882057 13.99781737 26.13498304 10.73632812 26.12939453 C9.7596669 26.13141876 8.78300568 26.13344299 7.77674866 26.13552856 C6.89333298 26.13270874 6.0099173 26.12988892 5.09973145 26.12698364 C4.32764595 26.12660662 3.55556046 26.12622959 2.76007843 26.12584114 C1 26 1 26 0 25 C0 16.75 0 8.5 0 0 Z M5 6 C4.90090698 8.33160055 4.87029496 10.66629942 4.875 13 C4.87242188 14.27875 4.86984375 15.5575 4.8671875 16.875 C4.64139107 19.86687244 4.64139107 19.86687244 6 21 C8.94709415 21.10059769 11.87079141 21.1361505 14.81835938 21.12939453 C16.20605278 21.13202301 16.20605278 21.13202301 17.6217804 21.13470459 C20.69578905 21.13912467 23.7697407 21.13618457 26.84375 21.1328125 C28.96984875 21.13348549 31.09594742 21.13445548 33.2220459 21.13571167 C37.6843336 21.13718886 42.14660133 21.13503342 46.60888672 21.13037109 C52.34270569 21.1246738 58.07647785 21.12795269 63.8102951 21.13394356 C68.20245723 21.13754861 72.59460817 21.13641084 76.98677063 21.13381577 C79.10158799 21.13314634 81.21640634 21.13397545 83.33122253 21.13629532 C86.28138946 21.13882093 89.23147946 21.13498254 92.18164062 21.12939453 C93.50637138 21.13243088 93.50637138 21.13243088 94.85786438 21.13552856 C98.74084913 21.5066243 98.74084913 21.5066243 102 20 C102.09909302 17.66839945 102.12970504 15.33370058 102.125 13 C102.12757813 11.72125 102.13015625 10.4425 102.1328125 9.125 C102.35860893 6.13312756 102.35860893 6.13312756 101 5 C98.05290585 4.89940231 95.12920859 4.8638495 92.18164062 4.87060547 C91.25651169 4.86885315 90.33138275 4.86710083 89.3782196 4.86529541 C86.30421095 4.86087533 83.2302593 4.86381543 80.15625 4.8671875 C78.03015125 4.86651451 75.90405258 4.86554452 73.7779541 4.86428833 C69.3156664 4.86281114 64.85339867 4.86496658 60.39111328 4.86962891 C54.65729431 4.8753262 48.92352215 4.87204731 43.1897049 4.86605644 C38.79754277 4.86245139 34.40539183 4.86358916 30.01322937 4.86618423 C27.89841201 4.86685366 25.78359366 4.86602455 23.66877747 4.86370468 C20.71861054 4.86117907 17.76852054 4.86501746 14.81835938 4.87060547 C13.93520554 4.86858124 13.0520517 4.86655701 12.14213562 4.86447144 C8.25915087 4.4933757 8.25915087 4.4933757 5 6 Z " fill="#F8A51A" transform="translate(59,44)"/>
<path d="M0 0 C0.88315384 0.00202423 1.76630768 0.00404846 2.67622375 0.00613403 C3.60135269 0.00438171 4.52648163 0.00262939 5.47964478 0.00082397 C8.55365343 -0.00359611 11.62760508 -0.000656 14.70161438 0.00271606 C16.82771313 0.00204307 18.9538118 0.00107308 21.07991028 -0.00018311 C25.54219798 -0.00166029 30.00446571 0.00049514 34.4667511 0.00515747 C40.20057007 0.01085477 45.93434223 0.00757587 51.66815948 0.00158501 C56.06032161 -0.00202005 60.45247255 -0.00088228 64.84463501 0.0017128 C66.95945237 0.00238222 69.07427072 0.00155312 71.18908691 -0.00076675 C74.13925384 -0.00329237 77.08934384 0.00054603 80.039505 0.00613403 C80.92265884 0.0041098 81.80581268 0.00208557 82.71572876 0 C88.74360204 0.02126622 88.74360204 0.02126622 89.85786438 1.13552856 C89.9569574 3.46712912 89.98756942 5.80182798 89.98286438 8.13552856 C89.98673157 10.05365356 89.98673157 10.05365356 89.99067688 12.01052856 C89.85786438 15.13552856 89.85786438 15.13552856 88.85786438 16.13552856 C85.91077023 16.23612626 82.98707297 16.27167906 80.039505 16.2649231 C78.6518116 16.26755157 78.6518116 16.26755157 77.23608398 16.27023315 C74.16207533 16.27465324 71.08812368 16.27171313 68.01411438 16.26834106 C65.88801563 16.26901406 63.76191696 16.26998405 61.63581848 16.27124023 C57.17353078 16.27271742 52.71126305 16.27056199 48.24897766 16.26589966 C42.51515869 16.26020236 36.78138652 16.26348126 31.04756927 16.26947212 C26.65540715 16.27307718 22.26325621 16.27193941 17.87109375 16.26934433 C15.75627639 16.26867491 13.64145804 16.26950401 11.52664185 16.27182388 C8.57647492 16.2743495 5.62638492 16.2705111 2.67622375 16.2649231 C1.351493 16.26795944 1.351493 16.26795944 0 16.27105713 C-6.02787328 16.2497909 -6.02787328 16.2497909 -7.14213562 15.13552856 C-7.24122864 12.80392801 -7.27184066 10.46922915 -7.26713562 8.13552856 C-7.26971375 6.85677856 -7.27229187 5.57802856 -7.27494812 4.26052856 C-7.04490631 -1.15221991 -4.85432033 0.01712595 0 0 Z M-4.14213562 3.13552856 C-4.14213562 6.43552856 -4.14213562 9.73552856 -4.14213562 13.13552856 C25.88786438 13.13552856 55.91786438 13.13552856 86.85786438 13.13552856 C86.85786438 9.83552856 86.85786438 6.53552856 86.85786438 3.13552856 C56.82786438 3.13552856 26.79786438 3.13552856 -4.14213562 3.13552856 Z " fill="#0C0905" transform="translate(71.14213562011719,159.86447143554688)"/>
<path d="M0 0 C0.88315384 0.00202423 1.76630768 0.00404846 2.67622375 0.00613403 C3.60135269 0.00438171 4.52648163 0.00262939 5.47964478 0.00082397 C8.55365343 -0.00359611 11.62760508 -0.000656 14.70161438 0.00271606 C16.82771313 0.00204307 18.9538118 0.00107308 21.07991028 -0.00018311 C25.54219798 -0.00166029 30.00446571 0.00049514 34.4667511 0.00515747 C40.20057007 0.01085477 45.93434223 0.00757587 51.66815948 0.00158501 C56.06032161 -0.00202005 60.45247255 -0.00088228 64.84463501 0.0017128 C66.95945237 0.00238222 69.07427072 0.00155312 71.18908691 -0.00076675 C74.13925384 -0.00329237 77.08934384 0.00054603 80.039505 0.00613403 C80.92265884 0.0041098 81.80581268 0.00208557 82.71572876 0 C88.74360204 0.02126622 88.74360204 0.02126622 89.85786438 1.13552856 C89.9569574 3.46712912 89.98756942 5.80182798 89.98286438 8.13552856 C89.98673157 10.05365356 89.98673157 10.05365356 89.99067688 12.01052856 C89.85786438 15.13552856 89.85786438 15.13552856 88.85786438 16.13552856 C85.91077023 16.23612626 82.98707297 16.27167906 80.039505 16.2649231 C78.6518116 16.26755157 78.6518116 16.26755157 77.23608398 16.27023315 C74.16207533 16.27465324 71.08812368 16.27171313 68.01411438 16.26834106 C65.88801563 16.26901406 63.76191696 16.26998405 61.63581848 16.27124023 C57.17353078 16.27271742 52.71126305 16.27056199 48.24897766 16.26589966 C42.51515869 16.26020236 36.78138652 16.26348126 31.04756927 16.26947212 C26.65540715 16.27307718 22.26325621 16.27193941 17.87109375 16.26934433 C15.75627639 16.26867491 13.64145804 16.26950401 11.52664185 16.27182388 C8.57647492 16.2743495 5.62638492 16.2705111 2.67622375 16.2649231 C1.351493 16.26795944 1.351493 16.26795944 0 16.27105713 C-6.02787328 16.2497909 -6.02787328 16.2497909 -7.14213562 15.13552856 C-7.24122864 12.80392801 -7.27184066 10.46922915 -7.26713562 8.13552856 C-7.26971375 6.85677856 -7.27229187 5.57802856 -7.27494812 4.26052856 C-7.04490631 -1.15221991 -4.85432033 0.01712595 0 0 Z M-4.14213562 3.13552856 C-4.14213562 6.43552856 -4.14213562 9.73552856 -4.14213562 13.13552856 C25.88786438 13.13552856 55.91786438 13.13552856 86.85786438 13.13552856 C86.85786438 9.83552856 86.85786438 6.53552856 86.85786438 3.13552856 C56.82786438 3.13552856 26.79786438 3.13552856 -4.14213562 3.13552856 Z " fill="#0C0906" transform="translate(71.14213562011719,48.864471435546875)"/>
<path d="M0 0 C23.1 0 46.2 0 70 0 C70 0.99 70 1.98 70 3 C46.9 3 23.8 3 0 3 C0 2.01 0 1.02 0 0 Z " fill="#010101" transform="translate(77,111)"/>
<path d="M0 0 C15.51 0 31.02 0 47 0 C47 1.32 47 2.64 47 4 C31.49 4 15.98 4 0 4 C0 2.68 0 1.36 0 0 Z " fill="#343028" transform="translate(89,137)"/>
<path d="M0 0 C15.51 0 31.02 0 47 0 C47 1.32 47 2.64 47 4 C31.49 4 15.98 4 0 4 C0 2.68 0 1.36 0 0 Z " fill="#343028" transform="translate(89,84)"/>
<path d="M0 0 C20.79 0 41.58 0 63 0 C63 0.99 63 1.98 63 3 C42.21 3 21.42 3 0 3 C0 2.01 0 1.02 0 0 Z " fill="#010000" transform="translate(81,124)"/>
<path d="M0 0 C20.79 0 41.58 0 63 0 C63 0.99 63 1.98 63 3 C42.21 3 21.42 3 0 3 C0 2.01 0 1.02 0 0 Z " fill="#010000" transform="translate(81,98)"/>
<path d="M0 0 C7 0 7 0 10 2 C10.3984375 4.75 10.3984375 4.75 10.375 8 C10.38273438 9.0725 10.39046875 10.145 10.3984375 11.25 C10.26695312 12.1575 10.13546875 13.065 10 14 C7 16 7 16 0 16 C0 10.72 0 5.44 0 0 Z " fill="#D3344A" transform="translate(169,49)"/>
<path d="M0 0 C0 5.28 0 10.56 0 16 C-7 16 -7 16 -8.9140625 14.84765625 C-10.4117053 12.29950861 -10.39849728 10.3785761 -10.375 7.4375 C-10.38273437 6.46683594 -10.39046875 5.49617188 -10.3984375 4.49609375 C-10.26695313 3.67238281 -10.13546875 2.84867188 -10 2 C-7 0 -7 0 0 0 Z " fill="#D43449" transform="translate(56,49)"/>
<path d="M0 0 C0 5.28 0 10.56 0 16 C-7 16 -7 16 -8.9140625 14.8125 C-10.34196826 12.42923283 -10.3997161 10.76820373 -10.375 8 C-10.38273437 7.13375 -10.39046875 6.2675 -10.3984375 5.375 C-10 3 -10 3 -8.9140625 1.1875 C-7 0 -7 0 0 0 Z " fill="#D43449" transform="translate(56,160)"/>
<path d="M0 0 C7 0 7 0 8.9140625 1.1875 C10.34196826 3.57076717 10.3997161 5.23179627 10.375 8 C10.38273438 8.86625 10.39046875 9.7325 10.3984375 10.625 C10 13 10 13 8.9140625 14.8125 C7 16 7 16 0 16 C0 10.72 0 5.44 0 0 Z " fill="#D4354A" transform="translate(169,160)"/>
</svg>
