<?xml version="1.0" encoding="UTF-8"?>
<svg version="1.1" xmlns="http://www.w3.org/2000/svg" width="275" height="183">
<path d="M0 0 C90.75 0 181.5 0 275 0 C275 60.39 275 120.78 275 183 C184.25 183 93.5 183 0 183 C0 122.61 0 62.22 0 0 Z " fill="#CE1126" transform="translate(0,0)"/>
<path d="M0 0 C30.36 0 60.72 0 92 0 C92 60.39 92 120.78 92 183 C61.64 183 31.28 183 0 183 C0 122.61 0 62.22 0 0 Z " fill="#012B7E" transform="translate(0,0)"/>
<path d="M0 0 C30.03 0 60.06 0 91 0 C91 60.39 91 120.78 91 183 C60.97 183 30.94 183 0 183 C0 122.61 0 62.22 0 0 Z " fill="#FBD116" transform="translate(92,0)"/>
</svg>
