<?xml version="1.0" encoding="UTF-8"?>
<svg version="1.1" xmlns="http://www.w3.org/2000/svg" width="512" height="512">
<path d="M0 0 C7.72437031 4.48579443 12.77986718 10.28303477 15.77734375 18.73046875 C17.92247249 27.729855 17.09542348 36.47573064 12.4375 44.5 C8.53238011 50.11546354 3.72202292 54.65830268 -2.5625 57.5 C-3.5525 57.5 -4.5425 57.5 -5.5625 57.5 C-5.2325 70.04 -4.9025 82.58 -4.5625 95.5 C-0.2725 96.82 4.0175 98.14 8.4375 99.5 C19.9630911 104.94615843 30.5794354 112.84019834 36.4375 124.5 C37.16650169 127.61433811 36.99792884 129.24951273 36.4375 132.5 C35.6640625 133.49 35.6640625 133.49 34.875 134.5 C33.09684097 136.97396039 33.40168314 137.69516341 33.84765625 140.625 C34.04230469 141.90375 34.23695313 143.1825 34.4375 144.5 C35.71297699 144.49000725 35.71297699 144.49000725 37.01422119 144.47981262 C45.07489942 144.4194009 53.13550029 144.37387401 61.19635391 144.34456348 C65.33933516 144.32898747 69.48212745 144.30789903 73.625 144.27368164 C77.6320961 144.24079733 81.63901185 144.22308655 85.6462326 144.21536827 C87.16585881 144.2098764 88.68547649 144.19915408 90.20502472 144.18280983 C106.61963407 144.01346955 122.31780186 146.99377811 134.7578125 158.66015625 C147.49944406 172.61668757 152.81388322 187.12026858 152.75 205.8125 C152.76611328 206.77478516 152.78222656 207.73707031 152.79882812 208.72851562 C152.80503093 217.69157337 152.80503093 217.69157337 149.4375 221.5 C148.73109375 221.82742187 148.0246875 222.15484375 147.296875 222.4921875 C146.37648438 222.99105469 146.37648438 222.99105469 145.4375 223.5 C144.73573412 225.91679707 144.73573412 225.91679707 144.6875 228.625 C144.63078125 229.53507813 144.5740625 230.44515625 144.515625 231.3828125 C144.48984375 232.08148438 144.4640625 232.78015625 144.4375 233.5 C145.200625 233.561875 145.96375 233.62375 146.75 233.6875 C149.4375 234.5 149.4375 234.5 151.0821991 236.48789978 C152.92354012 240.58020408 152.85009435 244.06830939 152.80981445 248.50610352 C152.81346512 249.40439377 152.81711578 250.30268402 152.82087708 251.22819519 C152.82897569 254.19529188 152.8153705 257.16184091 152.80078125 260.12890625 C152.80026224 262.20051574 152.80078151 264.27212573 152.80229187 266.34373474 C152.80220216 270.68894798 152.79178022 275.03397567 152.77368164 279.37915039 C152.75109384 284.92126362 152.75043262 290.46310348 152.75719929 296.00524998 C152.76055968 300.28720991 152.75386876 304.56910875 152.74407005 308.85105705 C152.74024589 310.8925844 152.73905816 312.93411858 152.7406559 314.97564888 C152.74348988 336.64999962 150.63234435 354.03152203 135.4140625 370.71875 C126.53134652 379.30427474 116.4166556 383.10416888 104.4375 385.5 C104.7675 392.76 105.0975 400.02 105.4375 407.5 C107.04625 407.891875 108.655 408.28375 110.3125 408.6875 C125.25267755 412.84708966 137.69731245 421.9275703 145.4375 435.5 C151.3313057 446.84139267 152.57972185 458.02089653 152.640625 470.609375 C152.64632507 471.53921204 152.65202515 472.46904907 152.65789795 473.42706299 C152.66727828 475.37665694 152.67385391 477.32626625 152.67773438 479.27587891 C152.68751908 482.25580955 152.71863914 485.23507209 152.75 488.21484375 C152.75652405 490.11718344 152.76177686 492.01952801 152.765625 493.921875 C152.7779718 494.80840759 152.7903186 495.69494019 152.80303955 496.6083374 C152.78579931 501.38480849 152.58947681 504.64204177 149.4375 508.5 C146.24205776 510.09772112 142.90580418 510.00722235 139.4375 509.5 C136.9375 507.6875 136.9375 507.6875 135.4375 505.5 C135.4375 504.51 135.4375 503.52 135.4375 502.5 C36.4375 502.5 -62.5625 502.5 -164.5625 502.5 C-164.8925 503.82 -165.2225 505.14 -165.5625 506.5 C-166.625 508.25 -166.625 508.25 -168.5625 509.5 C-175.55279126 510.27669903 -175.55279126 510.27669903 -179 507.625 C-182.14080942 503.35349919 -181.72407327 499.45018413 -181.73046875 494.3203125 C-181.73379715 493.39717255 -181.73712555 492.47403259 -181.74055481 491.5229187 C-181.74562738 489.56085712 -181.74796303 487.59878688 -181.74780273 485.63671875 C-181.74996591 482.67172385 -181.76805266 479.70711535 -181.78710938 476.7421875 C-181.84420068 457.91349337 -180.42235669 440.53389525 -167.25 425.9375 C-165.9196875 424.7309375 -165.9196875 424.7309375 -164.5625 423.5 C-163.93859375 422.88382812 -163.3146875 422.26765625 -162.671875 421.6328125 C-154.24772199 413.6025947 -145.90425807 410.02039068 -134.5625 407.5 C-134.2325 400.24 -133.9025 392.98 -133.5625 385.5 C-136.8625 384.84 -140.1625 384.18 -143.5625 383.5 C-159.21842808 377.51293428 -170.51265814 366.9256285 -177.375 351.625 C-181.69625956 341.50764827 -181.86099803 330.46147689 -181.85302734 319.63183594 C-181.85902917 318.28658177 -181.86583843 316.941331 -181.87338257 315.59608459 C-181.89088124 311.97804884 -181.89573103 308.36010796 -181.89701414 304.74203396 C-181.89844546 302.47174305 -181.90273339 300.20147553 -181.90800858 297.93119049 C-181.92645513 289.98292028 -181.93468592 282.03471669 -181.93310547 274.08642578 C-181.93190537 266.72233645 -181.95299569 259.35854078 -181.9845928 251.99452567 C-182.01089433 245.63398758 -182.02146701 239.2735446 -182.02019465 232.91295266 C-182.0196891 229.13090659 -182.02514365 225.34912206 -182.04655075 221.56713104 C-182.24810145 183.25622587 -182.24810145 183.25622587 -170.5625 166.5 C-170.10101563 165.83613281 -169.63953125 165.17226562 -169.1640625 164.48828125 C-160.7279221 153.63833189 -146.98683075 146.53290096 -133.5625 144.5 C-128.74665541 144.23687247 -123.94289238 144.26668453 -119.12109375 144.3046875 C-117.74390368 144.30842543 -116.36671091 144.31126871 -114.98951721 144.31326294 C-111.39415935 144.32083806 -107.79896739 144.34043259 -104.20367432 144.3626709 C-100.52317549 144.38326253 -96.84264941 144.39229291 -93.16210938 144.40234375 C-85.96216459 144.42368539 -78.76235569 144.4577457 -71.5625 144.5 C-71.43194717 143.74436768 -71.30139435 142.98873535 -71.16688538 142.21020508 C-70.99201096 141.21915771 -70.81713654 140.22811035 -70.63696289 139.20703125 C-70.46516006 138.22452393 -70.29335724 137.2420166 -70.11634827 136.22973633 C-67.42840498 122.98174607 -57.25105818 111.62851943 -46.39453125 104.21875 C-39.27207413 99.89615534 -32.68106659 97.52964165 -24.5625 95.5 C-24.2325 82.96 -23.9025 70.42 -23.5625 57.5 C-25.2125 57.17 -26.8625 56.84 -28.5625 56.5 C-36.34544479 52.2701387 -41.94906917 45.59239598 -44.90234375 37.26953125 C-47.0540728 28.24245495 -46.19231262 19.557256 -41.5625 11.5 C-32.50509641 -2.60331088 -14.98342247 -6.82598971 0 0 Z " fill="#010101" transform="translate(270.5625,2.5)"/>
<path d="M0 0 C2.32710452 -0.00678341 4.65420366 -0.01569059 6.98129272 -0.02655029 C13.27471053 -0.04926371 19.56771659 -0.04053989 25.8611412 -0.02465487 C31.79177886 -0.01324404 37.72236666 -0.02197457 43.65300572 -0.02929084 C56.11470814 -0.0435163 68.57622604 -0.02720617 81.03789818 -0.00028901 C91.70862601 0.02204694 102.37908177 0.01816591 113.04980469 -0.00488281 C125.46978443 -0.03169772 137.88960285 -0.0421433 150.30960751 -0.02682149 C156.87375859 -0.01904513 163.43772267 -0.01793561 170.00186157 -0.03450394 C176.17448103 -0.04899706 182.3465891 -0.03883784 188.51915359 -0.01003265 C190.77814512 -0.00344779 193.03718003 -0.00527469 195.29615402 -0.01634598 C210.32189789 -0.08317183 223.60492199 0.46797962 234.98046875 11.64697266 C244.73845803 22.84762154 246.48945682 34.31211773 246.47802734 48.72583008 C246.44003754 54.3338038 246.44003754 54.3338038 248.76171875 59.27197266 C251.14252756 60.90344479 251.14252756 60.90344479 254.98046875 61.64697266 C254.98046875 65.27697266 254.98046875 68.90697266 254.98046875 72.64697266 C253.84609375 72.91509766 252.71171875 73.18322266 251.54296875 73.45947266 C250.36734375 73.85134766 249.19171875 74.24322266 247.98046875 74.64697266 C246.66779726 78.58498713 246.81947269 82.35162548 246.80688477 86.45776367 C246.80019775 87.35897446 246.79351074 88.26018524 246.78662109 89.18870544 C246.77256404 91.14809883 246.76067207 93.10750866 246.75067329 95.06692696 C246.73425159 98.17423025 246.71100974 101.28141314 246.68577576 104.38865662 C246.61505635 113.22445655 246.55507235 122.06030733 246.50366211 130.89624023 C246.47173683 136.30087806 246.43042044 141.70538002 246.38346672 147.10990715 C246.36751936 149.16423008 246.35516455 151.21858432 246.34655952 153.27295113 C246.33430334 156.15891293 246.31010883 159.0445601 246.28344727 161.93041992 C246.28285812 162.76872345 246.28226898 163.60702698 246.28166199 164.47073364 C246.12687957 177.21766755 242.7993711 188.33984872 234.00390625 197.82666016 C224.50432194 206.37261824 213.79978365 208.79484139 201.296875 208.74462891 C200.5965062 208.74321396 199.89613739 208.74179901 199.17454529 208.74034119 C196.96397409 208.73479742 194.75350871 208.72225592 192.54296875 208.70947266 C191.0332046 208.70445037 189.52343884 208.69988875 188.01367188 208.69580078 C184.33590382 208.68484653 180.65819663 208.66762156 176.98046875 208.64697266 C176.97635986 207.46780273 176.97225098 206.28863281 176.96801758 205.07373047 C176.94603456 200.64507979 176.89155034 196.21729362 176.82788086 191.7890625 C176.8048665 189.88257209 176.79034455 187.97595752 176.78491211 186.06933594 C176.74692062 174.92321693 176.61309833 165.55837908 170.98046875 155.64697266 C170.39773193 154.60101929 170.39773193 154.60101929 169.80322266 153.53393555 C164.82448227 145.1586306 154.94029696 140.48770629 145.98046875 137.64697266 C142.69945236 137.14701383 139.50567596 137.11710352 136.19140625 137.16113281 C134.80879608 137.15543777 134.80879608 137.15543777 133.39825439 137.14962769 C130.38363432 137.14228276 127.3700016 137.16351951 124.35546875 137.18603516 C122.24137484 137.18842336 120.12727879 137.18932411 118.01318359 137.18881226 C113.59524124 137.19192994 109.17762576 137.20841541 104.75976562 137.23535156 C99.11782044 137.26932938 93.47623354 137.27697936 87.834198 137.2754612 C83.47254056 137.27600699 79.11096027 137.28700764 74.74932861 137.30146408 C72.66986676 137.30779473 70.59039625 137.31176216 68.51092529 137.3132515 C65.59697823 137.31762448 62.68339831 137.33521037 59.76953125 137.35644531 C58.92352356 137.35553894 58.07751587 137.35463257 57.20587158 137.35369873 C45.40109601 137.47846657 34.64933732 140.21239784 25.98046875 148.64697266 C23.7203518 151.5224094 21.72989008 154.43448029 19.98046875 157.64697266 C19.63483887 158.23816895 19.28920898 158.82936523 18.93310547 159.43847656 C14.41722699 168.52893386 15.30333091 178.86949728 15.23046875 188.77197266 C15.20227172 190.70168653 15.17233916 192.63137588 15.140625 194.56103516 C15.06720271 199.25630333 15.01735756 203.95128114 14.98046875 208.64697266 C10.46388161 208.69690941 5.94744649 208.73294267 1.43066406 208.75683594 C-0.10159103 208.76681072 -1.6338275 208.78039542 -3.16601562 208.79785156 C-18.93530609 208.97283716 -31.1043831 207.69502726 -43.1640625 196.67041016 C-53.44699881 185.45659751 -54.16540745 172.80241485 -54.1965332 158.37475586 C-54.20280768 157.03360319 -54.20945533 155.69245223 -54.21644592 154.3513031 C-54.23737052 149.96679875 -54.24783694 145.5822945 -54.2578125 141.19775391 C-54.2618643 139.68149486 -54.26598134 138.16523598 -54.27016258 136.64897728 C-54.28918823 129.52307037 -54.30342511 122.39717364 -54.31177455 115.27124625 C-54.32153942 107.07527107 -54.34785022 98.87956647 -54.38827544 90.68368655 C-54.41853507 84.32841886 -54.43325268 77.97322834 -54.43655556 71.61789006 C-54.43889463 67.83140869 -54.44770481 64.04521725 -54.47301674 60.25881386 C-54.49647633 56.69227277 -54.50046003 53.12620892 -54.49025536 49.55961037 C-54.48953225 47.6463369 -54.50849616 45.73308667 -54.52832031 43.81991577 C-54.45482998 31.46325428 -51.21413632 21.05310045 -43.01953125 11.64697266 C-30.73262832 -0.42762957 -16.09069029 -0.07886087 0 0 Z " fill="#E5E5E5" transform="translate(160.01953125,163.35302734375)"/>
<path d="M0 0 C67.32 0 134.64 0 204 0 C204 7.26 204 14.52 204 22 C201.48826172 22.05607422 201.48826172 22.05607422 198.92578125 22.11328125 C196.72133195 22.1789457 194.51690586 22.24539287 192.3125 22.3125 C190.65831055 22.34633789 190.65831055 22.34633789 188.97070312 22.38085938 C187.90400391 22.41630859 186.83730469 22.45175781 185.73828125 22.48828125 C184.75899658 22.51446533 183.77971191 22.54064941 182.77075195 22.56762695 C179.55826757 23.0689319 177.61464667 24.09271151 175 26 C174.29009061 27.92911172 174.29009061 27.92911172 174.5 30 C174.51546875 31.0209375 174.51546875 31.0209375 174.53125 32.0625 C175.16885694 34.69794201 175.76984661 35.41187717 178 37 C180.76081596 37.30773665 183.30749147 37.44098832 186.0703125 37.44140625 C186.86597626 37.45461411 187.66164001 37.46782196 188.48141479 37.48143005 C191.02931108 37.52233114 193.57685 37.54396888 196.125 37.5625 C198.65161256 37.58642259 201.17789513 37.6148405 203.70431519 37.65428162 C205.27477595 37.67828938 206.84540822 37.69343021 208.41604614 37.69789124 C216.24096655 37.80702172 223.26145099 39.26860974 230.25 42.875 C231.22453125 43.36742187 232.1990625 43.85984375 233.203125 44.3671875 C241.96079302 49.47990431 247.61994983 57.20527379 250.4921875 66.89453125 C254.40994017 83.13813657 252 100.29061642 252 117 C153 117 54 117 -48 117 C-48 63.26305609 -48 63.26305609 -38 51 C-25.28278418 38.71658508 -11.24435539 37.69915006 5.60131836 37.72875977 C7.26293186 37.72436588 8.92454316 37.71906133 10.58615112 37.71292114 C14.145353 37.70147763 17.70449578 37.69596596 21.26371574 37.69503975 C26.89002218 37.69309098 32.51620686 37.67499726 38.14247131 37.65428162 C52.10658423 37.60521981 66.07072976 37.57415553 80.03491211 37.55297852 C90.90928972 37.53646933 101.78356172 37.5137253 112.65786844 37.46995777 C118.25353933 37.44815169 123.84900968 37.44012606 129.44472015 37.44235051 C132.91712882 37.44068795 136.38940541 37.42666697 139.86176682 37.40913773 C141.4746753 37.40352319 143.08761099 37.40306674 144.70052147 37.40807533 C146.89752999 37.41418431 149.09369892 37.40204573 151.29063416 37.38526917 C152.5211447 37.38325784 153.75165525 37.38124651 155.019454 37.37917423 C157.98720858 37.24870322 157.98720858 37.24870322 159.89223576 35.59701443 C161.26709231 33.61494489 161.43295301 32.40080955 161.4375 30 C161.45683594 29.319375 161.47617187 28.63875 161.49609375 27.9375 C161.14378017 25.86516964 161.14378017 25.86516964 159.37157822 24.40382671 C156.27509893 22.57090368 154.15022522 22.61561592 150.55865479 22.60127258 C149.59185166 22.59130234 149.59185166 22.59130234 148.60551715 22.58113068 C146.44811345 22.56249399 144.29126402 22.56510627 142.13378906 22.56762695 C140.58641272 22.55861016 139.03904354 22.54828314 137.49168396 22.53674316 C133.29162275 22.50913719 129.09169693 22.49988379 124.89155674 22.49388909 C120.50192957 22.48451477 116.11240391 22.45831216 111.72283936 22.43388367 C103.41086514 22.39018903 95.09891059 22.36166029 86.78685641 22.33856028 C77.32376569 22.31152449 67.86077693 22.26761199 58.39775896 22.22227156 C38.93189128 22.12938283 19.46599983 22.05832011 0 22 C0 14.74 0 7.48 0 0 Z " fill="#E4E4E4" transform="translate(154,388)"/>
<path d="M0 0 C-0.7528125 0.73863281 -1.505625 1.47726563 -2.28125 2.23828125 C-14.16978258 14.3147073 -19.09717602 26.74158878 -19.625 43.5 C-19.66367188 44.51320312 -19.70234375 45.52640625 -19.7421875 46.5703125 C-19.83563619 49.04670284 -19.92139873 51.52310151 -20 54 C-19.35933594 53.59007812 -18.71867187 53.18015625 -18.05859375 52.7578125 C-17.19363281 52.21898437 -16.32867187 51.68015625 -15.4375 51.125 C-14.59058594 50.59132812 -13.74367187 50.05765625 -12.87109375 49.5078125 C-6.96471123 46.40595719 -1.29994715 45.61010868 5.25 45.625 C5.99290283 45.62661133 6.73580566 45.62822266 7.5012207 45.62988281 C17.74035024 45.85626001 26.10613375 49.45569562 33.625 56.4375 C42.6052613 66.1267293 46.39500031 75.59128572 46 88.875 C45.01298454 99.43377007 39.97786673 108.97822339 32 116 C21.3957132 123.55281477 9.68786478 126.53155503 -3.3125 124.375 C-9.55738479 122.8704568 -14.71230571 119.52512953 -20 116 C-19.96166767 123.46839791 -19.90191386 130.93637752 -19.81609726 138.40437603 C-19.77687808 141.87352352 -19.74456657 145.34242691 -19.72900391 148.81176758 C-19.71071822 152.81631564 -19.66065824 156.8199562 -19.609375 160.82421875 C-19.60814636 162.04767502 -19.60691772 163.27113129 -19.60565186 164.53166199 C-19.30497525 182.52841583 -12.49987056 195.58346191 0 208 C-16.49884661 208.34452348 -29.36807433 207.70331229 -42.14453125 196.0234375 C-52.42746756 184.80962485 -53.1458762 172.15544219 -53.17700195 157.7277832 C-53.18327643 156.38663054 -53.18992408 155.04547957 -53.19691467 153.70433044 C-53.21783927 149.31982609 -53.22830569 144.93532185 -53.23828125 140.55078125 C-53.24233305 139.0345222 -53.24645009 137.51826332 -53.25063133 136.00200462 C-53.26965698 128.87609771 -53.28389386 121.75020099 -53.2922433 114.6242736 C-53.30200817 106.42829841 -53.32831897 98.23259382 -53.36874419 90.0367139 C-53.39900382 83.68144621 -53.41372143 77.32625568 -53.41702431 70.9709174 C-53.41936338 67.18443603 -53.42817356 63.3982446 -53.45348549 59.6118412 C-53.47694508 56.04530012 -53.48092878 52.47923627 -53.47072411 48.91263771 C-53.470001 46.99936424 -53.48896491 45.08611401 -53.50878906 43.17294312 C-53.43529873 30.81628163 -50.19460507 20.40612779 -42 11 C-39.52557266 8.56832734 -36.98971059 6.75223038 -34 5 C-33.20722656 4.51402344 -32.41445312 4.02804688 -31.59765625 3.52734375 C-21.69449274 -1.57342483 -10.82590369 -0.46962342 0 0 Z " fill="#CACACA" transform="translate(159,164)"/>
<path d="M0 0 C11.87785754 6.35716319 19.62968463 14.10389765 23.94140625 27.0390625 C25.15999654 40.18975272 24.29468789 51.50212459 16.25390625 62.3515625 C8.60792864 71.28841945 -0.35128843 75.74967832 -11.93359375 76.8515625 C-24.06499339 77.46007454 -32.80197064 74.44987028 -42.24609375 66.8515625 C-50.95464262 58.90783628 -54.37403491 49.06900569 -55.01953125 37.60546875 C-55.13427402 27.12945362 -51.45542128 16.64722796 -44.05859375 9.0390625 C-32.04559042 -1.20020879 -15.29092632 -6.40363646 0 0 Z " fill="#030302" transform="translate(362.05859375,211.9609375)"/>
<path d="M0 0 C9.03684508 7.10037827 15.45017151 15.7908195 17.36328125 27.234375 C18.55782114 40.14253739 15.45656529 50.32596807 7.375 60.4375 C-0.91534233 69.26092421 -11.0668266 72.3549381 -22.83984375 73.0234375 C-33.66384621 73.14303974 -42.66481172 69.15246006 -50.67578125 61.92578125 C-58.56003493 53.28028928 -61.77288867 44.21766694 -61.75 32.6875 C-61.74838867 31.84550049 -61.74677734 31.00350098 -61.74511719 30.13598633 C-61.62377951 24.00902858 -60.80725841 19.25245476 -57.375 14.0625 C-56.776875 13.03125 -56.17875 12 -55.5625 10.9375 C-41.71788437 -7.25828054 -19.74801045 -11.33682081 0 0 Z " fill="#030302" transform="translate(187.375,215.9375)"/>
<path d="M0 0 C67.32 0 134.64 0 204 0 C204 7.26 204 14.52 204 22 C201.48826172 22.05607422 201.48826172 22.05607422 198.92578125 22.11328125 C196.72133195 22.1789457 194.51690586 22.24539287 192.3125 22.3125 C190.65831055 22.34633789 190.65831055 22.34633789 188.97070312 22.38085938 C187.90400391 22.41630859 186.83730469 22.45175781 185.73828125 22.48828125 C184.75899658 22.51446533 183.77971191 22.54064941 182.77075195 22.56762695 C179.5148567 23.07570612 177.60021227 23.98533503 175 26 C174.10407917 29.59919423 174.10407917 29.59919423 174 33 C173.67 32.34 173.34 31.68 173 31 C169.7 31 166.4 31 163 31 C162.67 31.66 162.34 32.32 162 33 C161.9175 31.906875 161.835 30.81375 161.75 29.6875 C161.35659429 26.0645814 161.35659429 26.0645814 159.35570908 24.29445171 C156.27348138 22.60078123 154.0722526 22.61530452 150.55865479 22.60127258 C149.59185166 22.59130234 149.59185166 22.59130234 148.60551715 22.58113068 C146.44811345 22.56249399 144.29126402 22.56510627 142.13378906 22.56762695 C140.58641272 22.55861016 139.03904354 22.54828314 137.49168396 22.53674316 C133.29162275 22.50913719 129.09169693 22.49988379 124.89155674 22.49388909 C120.50192957 22.48451477 116.11240391 22.45831216 111.72283936 22.43388367 C103.41086514 22.39018903 95.09891059 22.36166029 86.78685641 22.33856028 C77.32376569 22.31152449 67.86077693 22.26761199 58.39775896 22.22227156 C38.93189128 22.12938283 19.46599983 22.05832011 0 22 C0 14.74 0 7.48 0 0 Z " fill="#C9C9C9" transform="translate(154,388)"/>
<path d="M0 0 C1.63692213 0.00056505 3.27384477 0.00024573 4.9107666 -0.00088501 C9.32743404 -0.00145588 13.74399154 0.0102551 18.16063356 0.02426291 C22.7863944 0.03681486 27.41215811 0.03794427 32.03793335 0.04031372 C40.78536839 0.04651541 49.5327531 0.06290841 58.28016603 0.0830127 C68.24392559 0.10541261 78.20768762 0.1163754 88.17146611 0.12640357 C108.65649372 0.14727586 129.1414761 0.18242622 149.62646484 0.22705078 C149.62646484 0.55705078 149.62646484 0.88705078 149.62646484 1.22705078 C148.85985755 1.22667376 148.09325026 1.22629673 147.30341244 1.22590828 C128.64094921 1.21878788 109.97879898 1.24471778 91.31643581 1.30732918 C82.2913808 1.33681275 73.26656113 1.35515366 64.24145508 1.34716797 C56.3741613 1.34023512 48.50723182 1.35430604 40.64002758 1.39348686 C36.47515949 1.4134985 32.31086329 1.42306763 28.14596367 1.40747452 C24.22304359 1.39311948 20.3012149 1.40691804 16.37843513 1.44200325 C14.94138151 1.44995015 13.50422898 1.44774644 12.06721497 1.43444252 C3.07475336 1.16916057 3.07475336 1.16916057 -4.65415955 5.12399292 C-6.14817816 6.65832902 -6.14817816 6.65832902 -7.37353516 8.22705078 C-8.05802734 9.02626953 -8.74251953 9.82548828 -9.44775391 10.64892578 C-15.26525647 19.04415951 -19.37459691 27.56661124 -19.57885742 37.92553711 C-19.59880264 38.82609329 -19.61874786 39.72664948 -19.63929749 40.65449524 C-19.66436623 42.0922657 -19.66436623 42.0922657 -19.68994141 43.55908203 C-19.7107225 44.55082932 -19.7315036 45.5425766 -19.75291443 46.56437683 C-19.81813568 49.72269977 -19.87716718 52.88110366 -19.93603516 56.03955078 C-19.97924646 58.18474134 -20.02286158 60.32992381 -20.06689453 62.47509766 C-20.17454644 67.72566704 -20.27382394 72.97630059 -20.37353516 78.22705078 C-31.26353516 78.22705078 -42.15353516 78.22705078 -53.37353516 78.22705078 C-53.44286624 72.46486746 -53.50245937 66.70416452 -53.53833008 60.94189453 C-53.55330265 58.98676618 -53.57368797 57.03167075 -53.59985352 55.07666016 C-53.80269656 39.51740582 -53.67249381 25.85672155 -43.37353516 13.22705078 C-30.70006941 0.98589356 -16.88059949 -0.08205099 0 0 Z " fill="#C6C6C6" transform="translate(159.37353515625,425.77294921875)"/>
<path d="M0 0 C8.58 0 17.16 0 26 0 C26.3125 7.8125 26.3125 7.8125 26.38793945 10.26098633 C26.59702595 14.3541254 26.59702595 14.3541254 28.328125 17.984375 C31.24999753 19.7593443 33.69288151 19.40613736 37 19 C40.04297737 16.75464327 40.90242077 15.51792054 41.609375 11.765625 C41.65578125 10.60546875 41.7021875 9.4453125 41.75 8.25 C41.83507812 6.49429687 41.83507812 6.49429687 41.921875 4.703125 C41.96054687 3.36507813 41.96054687 3.36507813 42 2 C48.92436842 5.05960465 52.90425555 9.03530832 56.16638184 15.75439453 C57.56725266 19.52806853 57.4947173 23.11102626 57.390625 27.09375 C57.38496521 27.92588013 57.37930542 28.75801025 57.37347412 29.61535645 C57.35128184 32.2441841 57.30112133 34.87159217 57.25 37.5 C57.22991268 39.29425099 57.21166584 41.08852359 57.1953125 42.8828125 C57.15147383 47.25574602 57.08256939 51.62763328 57 56 C52.05 56 47.1 56 42 56 C41.93941406 54.23011719 41.87882812 52.46023438 41.81640625 50.63671875 C41.73200248 48.32030405 41.64735439 46.00389824 41.5625 43.6875 C41.52318359 42.52025391 41.48386719 41.35300781 41.44335938 40.15039062 C41.40146484 39.03212891 41.35957031 37.91386719 41.31640625 36.76171875 C41.26141968 35.2142395 41.26141968 35.2142395 41.20532227 33.63549805 C41.09838758 30.89251742 41.09838758 30.89251742 40 28 C36.44646071 26.8154869 33.72986522 26.73358106 30 27 C28.19512639 28.07719681 28.19512639 28.07719681 27 30 C26.4939264 32.8028729 26.4939264 32.8028729 26.48828125 35.98046875 C26.45516846 37.02871826 26.42205566 38.07696777 26.38793945 39.15698242 C26.35059692 41.15208862 26.35059692 41.15208862 26.3125 43.1875 C26.209375 47.415625 26.10625 51.64375 26 56 C17.42 56 8.84 56 0 56 C0 37.52 0 19.04 0 0 Z " fill="#F6A771" transform="translate(264,316)"/>
<path d="M0 0 C5.94480267 4.25926439 10.18812867 9.65148687 14.55078125 15.4609375 C16.04821244 16.95836869 17.53902364 16.79296443 19.61328125 17.0234375 C20.91265625 17.1678125 22.21203125 17.3121875 23.55078125 17.4609375 C24.80743103 20.36694011 25.55078125 22.25698334 25.55078125 25.4609375 C-3.81921875 25.4609375 -33.18921875 25.4609375 -63.44921875 25.4609375 C-60.71408591 14.52040615 -55.87545631 5.93620624 -46.44921875 -0.5390625 C-31.44972849 -9.22655007 -14.76385193 -9.27744443 0 0 Z " fill="#E68057" transform="translate(279.44921875,121.5390625)"/>
<path d="M0 0 C5.43872907 3.17921532 10.41464516 8.58626869 12.6875 14.5 C13.60296397 23.59519395 12.94518828 30.44705085 7.3125 37.75 C2.89496015 42.37789889 -1.02661886 44.27924313 -7.3359375 44.703125 C-18.51328355 44.85945152 -18.51328355 44.85945152 -23.3125 41.5 C-24.158125 40.984375 -25.00375 40.46875 -25.875 39.9375 C-31.11648434 34.69601566 -33.61268363 28.77606903 -33.875 21.375 C-33.48461151 13.55722016 -31.09733672 8.89301131 -25.375 3.625 C-18.35385976 -2.3771676 -8.55856585 -3.77780446 0 0 Z " fill="#F2BB63" transform="translate(175.3125,227.5)"/>
<path d="M0 0 C5.27798245 3.56835348 9.12409995 8.33328243 11.07421875 14.40234375 C12.18466947 22.66643486 11.08604063 29.63578328 6.07421875 36.40234375 C-0.49814923 42.79250747 -5.98610515 43.71524726 -14.953125 43.6171875 C-21.6415414 43.13379341 -26.1736305 39.93848765 -30.92578125 35.40234375 C-35.66143846 28.70710425 -35.75863489 21.39582409 -34.92578125 13.40234375 C-32.53337183 6.76153016 -26.84697357 1.27323943 -20.53515625 -1.73828125 C-13.66293868 -4.00158644 -6.41377828 -3.2356763 0 0 Z " fill="#F2BB63" transform="translate(358.92578125,228.59765625)"/>
<path d="M0 0 C8.58 0 17.16 0 26 0 C26 18.48 26 36.96 26 56 C17.42 56 8.84 56 0 56 C0 37.52 0 19.04 0 0 Z " fill="#F6A771" transform="translate(222,316)"/>
<path d="M0 0 C1.10472153 -0.01583633 2.20944305 -0.03167267 3.34764099 -0.04798889 C4.53624222 -0.04302902 5.72484344 -0.03806915 6.94946289 -0.03295898 C8.78765343 -0.04225685 8.78765343 -0.04225685 10.66297913 -0.05174255 C13.254478 -0.05884634 15.84602245 -0.05565711 18.4375 -0.04296875 C22.40393078 -0.02911626 26.36799752 -0.06315548 30.33422852 -0.10131836 C32.85180722 -0.10226965 35.36938888 -0.10041022 37.88696289 -0.09545898 C39.07353989 -0.10871719 40.26011688 -0.1219754 41.48265076 -0.13563538 C50.63890887 -0.03205281 50.63890887 -0.03205281 53.73291016 2.88525391 C55.48461914 5.53344727 55.48461914 5.53344727 56.10961914 8.53344727 C55.46633343 11.62121866 54.65189904 13.31513405 52.3520813 15.48361206 C48.04597233 17.90438657 42.68429461 17.21595647 37.88696289 17.16235352 C36.04733727 17.16597145 36.04733727 17.16597145 34.17054749 17.16966248 C31.58078779 17.16868391 28.9910072 17.15528848 26.40136719 17.13037109 C22.43295443 17.096041 18.46676509 17.10971999 14.49829102 17.12915039 C11.98200548 17.12225278 9.46572569 17.11258118 6.94946289 17.09985352 C5.16656105 17.10729332 5.16656105 17.10729332 3.34764099 17.11488342 C2.24291946 17.09904709 1.13819794 17.08321075 0 17.06689453 C-0.97087051 17.06069595 -1.94174103 17.05449738 -2.94203186 17.04811096 C-6.23480001 16.38956514 -7.4338797 15.11195651 -9.51538086 12.53344727 C-10.04663086 10.53344727 -10.04663086 10.53344727 -10.01538086 8.53344727 C-10.03084961 7.54344727 -10.03084961 7.54344727 -10.04663086 6.53344727 C-8.66414819 1.32880663 -4.94704039 0.03158466 0 0 Z " fill="#010101" transform="translate(155.515380859375,473.466552734375)"/>
<path d="M0 0 C1.20184937 -0.00241196 2.40369873 -0.00482391 3.64196777 -0.00730896 C6.18045352 -0.0063304 8.71896058 0.00706498 11.25732422 0.03198242 C15.14233922 0.06628343 19.02507911 0.05264081 22.91015625 0.03320312 C25.37761385 0.04010167 27.84506558 0.04977413 30.3125 0.0625 C32.05484924 0.0550602 32.05484924 0.0550602 33.83239746 0.04747009 C41.87165257 0.16484919 41.87165257 0.16484919 45.88623047 2.53930664 C47.78867792 4.78524426 48.33807748 5.71933929 48.28125 8.62890625 C48.30058594 9.61890625 48.30058594 9.61890625 48.3203125 10.62890625 C47.20806018 13.97874852 45.71015947 14.8226446 42.65625 16.62890625 C38.54607819 17.2491654 34.46299893 17.21303507 30.3125 17.1953125 C28.50972595 17.20461037 28.50972595 17.20461037 26.67053223 17.21409607 C24.13208831 17.22119308 21.59359784 17.21802241 19.05517578 17.20532227 C15.17002822 17.19145543 11.28728799 17.22553594 7.40234375 17.26367188 C4.93489524 17.26462305 2.46744372 17.26276434 0 17.2578125 C-1.74234924 17.27769981 -1.74234924 17.27769981 -3.51989746 17.29798889 C-11.55169585 17.20517948 -11.55169585 17.20517948 -15.57617188 14.27709961 C-17.34375 11.62890625 -17.34375 11.62890625 -17.96875 8.62890625 C-15.98327731 -0.90136267 -7.94237907 -0.09065495 0 0 Z " fill="#010101" transform="translate(318.34375,473.37109375)"/>
<path d="M0 0 C1.22641708 -0.00241196 2.45283417 -0.00482391 3.71641541 -0.00730896 C6.3061751 -0.0063304 8.89595569 0.00706503 11.4855957 0.03198242 C15.45400846 0.06631252 19.4201978 0.05263352 23.38867188 0.03320312 C25.90495741 0.04010073 28.4212372 0.04977233 30.9375 0.0625 C32.72040184 0.0550602 32.72040184 0.0550602 34.5393219 0.04747009 C35.64404343 0.06330643 36.74876495 0.07914276 37.88696289 0.09545898 C38.8578334 0.10165756 39.82870392 0.10785614 40.82899475 0.11424255 C44.15392096 0.77921991 45.34678591 1.97622821 47.40234375 4.62890625 C48.08058457 8.77371126 47.9598904 10.78131802 45.63867188 14.31005859 C40.68789976 17.8573152 36.00717655 17.34480095 30.05859375 17.29296875 C28.2558197 17.3001442 28.2558197 17.3001442 26.41662598 17.3074646 C23.8781605 17.31086378 21.33965126 17.30166037 18.80126953 17.28076172 C14.91599912 17.25400031 11.03361806 17.28051308 7.1484375 17.3125 C4.68098321 17.30919591 2.21353071 17.3027897 -0.25390625 17.29296875 C-1.99625549 17.30815048 -1.99625549 17.30815048 -3.77380371 17.32363892 C-11.80390658 17.20695265 -11.80390658 17.20695265 -15.83007812 14.27490234 C-17.59765625 11.62890625 -17.59765625 11.62890625 -18.22265625 8.62890625 C-17.57937054 5.54113486 -16.76493615 3.84721946 -14.46511841 1.67874146 C-10.15900944 -0.74203306 -4.79733172 -0.05360295 0 0 Z " fill="#010101" transform="translate(318.59765625,447.37109375)"/>
<path d="M0 0 C0 17.82 0 35.64 0 54 C-4.95 54 -9.9 54 -15 54 C-15.09943082 48.73475555 -15.17173199 43.47006657 -15.21972656 38.20410156 C-15.23974959 36.41559316 -15.26697654 34.62714946 -15.30175781 32.83886719 C-15.35068955 30.25699838 -15.37306165 27.6760005 -15.390625 25.09375 C-15.41127014 24.30383667 -15.43191528 23.51392334 -15.45318604 22.70007324 C-15.45601731 15.57621482 -13.21936148 10.49678167 -8.5 5.1875 C-2.57142857 0 -2.57142857 0 0 0 Z " fill="#F6A771" transform="translate(206,318)"/>
<path d="M0 0 C4.42977671 2.1357852 7.19613671 4.39012714 9 9 C9.72840518 13.32628533 9.98741501 17.20290469 7.828125 21.1328125 C3.98173405 25.87140754 0.6504958 27.710855 -5.4375 28.375 C-10.75705341 27.81504701 -13.48720514 25.3535533 -17.375 21.875 C-19.78223661 17.61604292 -19.76618977 13.78102419 -19 9 C-14.58994451 0.337391 -9.2384201 -1.20501132 0 0 Z " fill="#F3A570" transform="translate(261,17)"/>
<path d="M0 0 C1.91619141 -0.00773437 1.91619141 -0.00773437 3.87109375 -0.015625 C4.53351074 -0.00724609 5.19592773 0.00113281 5.87841797 0.00976562 C7.90063448 0.0311905 9.91929961 0.00995261 11.94140625 -0.015625 C13.21886719 -0.01046875 14.49632812 -0.0053125 15.8125 0 C16.98103516 0.00451172 18.14957031 0.00902344 19.35351562 0.01367188 C22.99765031 0.63151941 24.16944749 1.64887311 26.40625 4.53125 C26.97265625 6.53125 26.97265625 6.53125 26.96875 8.53125 C26.99066406 9.19125 27.01257813 9.85125 27.03515625 10.53125 C26.04974024 13.66499532 24.08532472 14.73051506 21.40625 16.53125 C18.53125 17.03295898 18.53125 17.03295898 15.40625 17.02734375 C13.7046875 17.02831055 13.7046875 17.02831055 11.96875 17.02929688 C10.793125 17.00931641 9.6175 16.98933594 8.40625 16.96875 C7.230625 16.97583984 6.055 16.98292969 4.84375 16.99023438 C-4.95756495 16.9178383 -4.95756495 16.9178383 -9.59375 13.53125 C-11.13961876 10.43951248 -10.88734521 7.93695448 -10.59375 4.53125 C-7.5191291 0.33586814 -5.06061842 0.01953907 0 0 Z " fill="#020202" transform="translate(156.59375,447.46875)"/>
<path d="M0 0 C5.42019449 3.16838092 10.44932526 8.58948031 12.6875 14.5 C12.8125 17.75 12.8125 17.75 12.6875 20.5 C11.60082031 19.88511719 11.60082031 19.88511719 10.4921875 19.2578125 C0.73083785 13.81748696 -7.74412644 10.25156155 -19.06640625 13.22265625 C-24.42413738 15.24305257 -28.81551008 17.98061658 -33.3125 21.5 C-33.00009063 14.47078926 -31.84398778 9.99793445 -26.66796875 4.87109375 C-19.23396739 -1.85028003 -9.54133992 -4.21160708 0 0 Z " fill="#D9A456" transform="translate(175.3125,227.5)"/>
<path d="M0 0 C5.00367499 3.38289891 9.62134923 8.42943574 11.07421875 14.40234375 C11.19921875 17.21484375 11.19921875 17.21484375 11.07421875 19.40234375 C9.62015625 18.53609375 9.62015625 18.53609375 8.13671875 17.65234375 C6.78544635 16.89714161 5.43106867 16.1474784 4.07421875 15.40234375 C3.41035156 15.02078125 2.74648438 14.63921875 2.0625 14.24609375 C-5.18639198 10.49435668 -12.8479058 10.08167239 -20.734375 12.1328125 C-26.07417895 14.12406359 -30.4521043 16.90120527 -34.92578125 20.40234375 C-35.59016803 14.02423069 -33.93732578 10.35896394 -29.92578125 5.40234375 C-21.59506325 -3.19404635 -10.98244744 -5.54051657 0 0 Z " fill="#DAA456" transform="translate(358.92578125,228.59765625)"/>
<path d="M0 0 C-0.19335938 0.68964844 -0.38671875 1.37929687 -0.5859375 2.08984375 C-3.29859099 11.87956847 -5.06930634 20.76236975 -6 31 C-13.59 31 -21.18 31 -29 31 C-26.26592433 20.06369732 -21.42719989 11.46964698 -12 5 C-3.33587786 0 -3.33587786 0 0 0 Z " fill="#CF704E" transform="translate(245,116)"/>
<path d="M0 0 C8.58 0 17.16 0 26 0 C26 4.62 26 9.24 26 14 C17.75 14 9.5 14 1 14 C1 27.53 1 41.06 1 55 C8.92 55 16.84 55 25 55 C25 47.74 25 40.48 25 33 C25.33 33 25.66 33 26 33 C26 40.59 26 48.18 26 56 C17.42 56 8.84 56 0 56 C0 37.52 0 19.04 0 0 Z " fill="#D38C5C" transform="translate(264,316)"/>
<path d="M0 0 C8.58 0 17.16 0 26 0 C26 18.48 26 36.96 26 56 C25.67 56 25.34 56 25 56 C25 42.14 25 28.28 25 14 C17.08 14 9.16 14 1 14 C1 27.86 1 41.72 1 56 C0.67 56 0.34 56 0 56 C0 37.52 0 19.04 0 0 Z " fill="#CF895A" transform="translate(222,316)"/>
<path d="M0 0 C9.06969572 0.10485197 9.06969572 0.10485197 13.25390625 2.7890625 C15.26624336 6.21748868 15.75393577 7.7639208 14.94140625 11.6640625 C13.19140625 14.5390625 13.19140625 14.5390625 9.94140625 16.6640625 C4.24020713 17.64051097 -0.39812257 17.7497552 -5.30859375 14.5390625 C-7.38517598 11.12753455 -7.79367201 9.58447988 -7.05859375 5.6640625 C-4.96927229 2.2751631 -3.9547796 0.8586367 0 0 Z " fill="#060606" transform="translate(196.05859375,447.3359375)"/>
<path d="M0 0 C0 4.62 0 9.24 0 14 C-1.62760417 14.65104167 -3.25520833 15.30208333 -4.8828125 15.953125 C-7.9093783 17.44965569 -10.37140217 18.84117167 -13 21 C-13.91645225 24.46172104 -13.91645225 24.46172104 -13.8046875 28.390625 C-13.81839386 29.09523865 -13.83210022 29.79985229 -13.84622192 30.52581787 C-13.88349918 32.76786279 -13.87980976 35.00768941 -13.875 37.25 C-13.89312886 38.77347208 -13.91393218 40.29691485 -13.9375 41.8203125 C-13.99435182 45.54816774 -13.99575197 49.27023393 -14 53 C-9.38 53 -4.76 53 0 53 C0 53.33 0 53.66 0 54 C-4.95 54 -9.9 54 -15 54 C-15.09943082 48.73475555 -15.17173199 43.47006657 -15.21972656 38.20410156 C-15.23974959 36.41559316 -15.26697654 34.62714946 -15.30175781 32.83886719 C-15.35068955 30.25699838 -15.37306165 27.6760005 -15.390625 25.09375 C-15.41127014 24.30383667 -15.43191528 23.51392334 -15.45318604 22.70007324 C-15.45601731 15.57621482 -13.21936148 10.49678167 -8.5 5.1875 C-2.57142857 0 -2.57142857 0 0 0 Z " fill="#DA9160" transform="translate(206,318)"/>
<path d="M0 0 C7.76203456 3.88101728 12.00815478 7.94054992 15 16 C15.48776036 19.05204977 15.47123898 22.009341 15.390625 25.09375 C15.38496521 25.92588013 15.37930542 26.75801025 15.37347412 27.61535645 C15.35128184 30.2441841 15.30112133 32.87159217 15.25 35.5 C15.22991268 37.29425099 15.21166584 39.08852359 15.1953125 40.8828125 C15.15147383 45.25574602 15.08256939 49.62763328 15 54 C10.05 54 5.1 54 0 54 C0 53.67 0 53.34 0 53 C4.62 53 9.24 53 14 53 C13.97189682 48.51370995 13.92884204 44.03276135 13.84741211 39.54785156 C13.82424783 38.02322067 13.80984 36.49843012 13.80444336 34.97363281 C13.79514105 32.77828678 13.75413304 30.58544588 13.70703125 28.390625 C13.6913208 27.07094727 13.67561035 25.75126953 13.65942383 24.39160156 C13.29901642 20.85389063 13.29901642 20.85389063 10.609375 18.60351562 C8.13085 17.08041007 5.9664494 16.07953713 3.1875 15.25 C1.805625 14.8375 0.42375 14.425 -1 14 C-0.67 9.38 -0.34 4.76 0 0 Z " fill="#DB9160" transform="translate(306,318)"/>
</svg>
