<?xml version="1.0" encoding="UTF-8"?>
<svg version="1.1" xmlns="http://www.w3.org/2000/svg" width="225" height="225">
<path d="M0 0 C74.25 0 148.5 0 225 0 C225 74.25 225 148.5 225 225 C150.75 225 76.5 225 0 225 C0 150.75 0 76.5 0 0 Z " fill="#FE92BF" transform="translate(0,0)"/>
<path d="M0 0 C74.25 0 148.5 0 225 0 C225 74.25 225 148.5 225 225 C150.75 225 76.5 225 0 225 C0 150.75 0 76.5 0 0 Z M97 8 C96.34 9.32 95.68 10.64 95 12 C94.01 11.505 94.01 11.505 93 11 C88.08229671 10.71628635 84.60770515 11.4031058 80 13 C78.77925781 13.34417969 77.55851562 13.68835938 76.30078125 14.04296875 C67.78662489 16.45377582 59.87999462 19.15823395 53 25 C52.505 26.485 52.505 26.485 52 28 C49.03 28.495 49.03 28.495 46 29 C45.505 30.485 45.505 30.485 45 32 C43.66666667 32.66666667 42.33333333 33.33333333 41 34 C40.505 35.485 40.505 35.485 40 37 C39.01 37.33 38.02 37.66 37 38 C37 38.66 37 39.32 37 40 C36.1028125 40.3403125 36.1028125 40.3403125 35.1875 40.6875 C32.40804264 42.35517441 31.59607362 44.20687116 30 47 C29.39800781 47.58007812 28.79601562 48.16015625 28.17578125 48.7578125 C12.87478805 64.5258019 6.83648283 90.7812488 6.6875 112.125 C7.22037929 133.69595379 12.24983446 157.40631478 26.71484375 174.296875 C29 177 29 177 30 180 C31.46572619 181.23772434 32.93530592 182.47189004 34.44140625 183.66015625 C36.60668046 185.52153233 38.22119649 187.77649561 40 190 C40.66 190 41.32 190 42 190 C42.09796875 188.94941406 42.1959375 187.89882812 42.296875 186.81640625 C43.11397879 178.86149322 44.11638417 172.1055786 48 165 C48.28617188 164.36320313 48.57234375 163.72640625 48.8671875 163.0703125 C51.71216246 156.80129688 55.86004704 151.46634566 60 146 C69.19859492 153.98489142 77.11196436 170.54476706 78.3671875 182.49609375 C78.60943121 189.22904382 78.65145777 195.72238446 74 201 C71.93540326 202.53268727 69.88817131 203.8028887 67.609375 204.9921875 C67.07828125 205.32476562 66.5471875 205.65734375 66 206 C66 206.66 66 207.32 66 208 C95.06698652 220.02771856 124.46304028 221.9489244 154 210 C163.92491656 205.61929883 172.58962757 199.83265116 181 193 C181.73863281 192.41476563 182.47726563 191.82953125 183.23828125 191.2265625 C188.62632861 186.76965342 192.82261773 181.58387993 197 176 C197.598125 175.21753906 198.19625 174.43507812 198.8125 173.62890625 C216.44159455 149.66435585 220.85908356 120.82761565 216.76171875 91.85546875 C215.47022181 85.31850731 213.38974612 79.21918638 211 73 C210.69191406 72.18144531 210.38382813 71.36289063 210.06640625 70.51953125 C206.78074811 62.50252538 201.78911768 55.18367651 197 48 C196.34 48 195.68 48 195 48 C194 46 193 44 192 42 C191.34 42 190.68 42 190 42 C189.7421875 41.40832031 189.484375 40.81664062 189.21875 40.20703125 C184.80576242 32.21556335 173.44555645 24.87496545 164.9375 22.1875 C164.20402344 21.99542969 163.47054687 21.80335937 162.71484375 21.60546875 C161 21 161 21 160 19 C158.02111039 18.27306096 156.02045442 17.60183749 154 17 C154 16.34 154 15.68 154 15 C152.41800369 14.35089846 150.83434276 13.70585306 149.25 13.0625 C148.36828125 12.70285156 147.4865625 12.34320312 146.578125 11.97265625 C142.11774747 10.28987746 138.54209549 9.88541201 133.75 9.9375 C132.67234375 9.94652344 131.5946875 9.95554687 130.484375 9.96484375 C129.25460938 9.98224609 129.25460938 9.98224609 128 10 C128 9.34 128 8.68 128 8 C117.77 8 107.54 8 97 8 Z " fill="#FDFCFD" transform="translate(0,0)"/>
<path d="M0 0 C4.57874813 3.641702 7.94482663 7.70358097 9.6796875 13.3359375 C9.89380857 16.04999163 10.00468668 18.62611485 9.9921875 21.3359375 C10.00830078 22.03460938 10.02441406 22.73328125 10.04101562 23.453125 C10.04528098 27.97439841 9.36215307 30.70748166 6.6796875 34.3359375 C5.9578125 35.3259375 5.2359375 36.3159375 4.4921875 37.3359375 C0.93235768 41.4980346 -3.61851814 44.45785433 -8.8203125 46.1484375 C-10.0578125 46.24125 -10.0578125 46.24125 -11.3203125 46.3359375 C-12.4959375 46.4803125 -13.6715625 46.6246875 -14.8828125 46.7734375 C-21.70857485 46.6568685 -28.44259291 43.0254985 -33.3515625 38.4375 C-38.10495913 32.54235614 -39.859323 25.9638606 -39.63671875 18.41015625 C-38.63998353 11.87600311 -35.08841032 5.79307242 -30.3203125 1.3359375 C-21.64685358 -3.96726309 -8.94666896 -5.41407864 0 0 Z " fill="#F9F6F8" transform="translate(88.3203125,87.6640625)"/>
<path d="M0 0 C4.23350789 2.61216445 7.33950561 5.01851684 8.9375 9.8125 C9.5975 9.8125 10.2575 9.8125 10.9375 9.8125 C14.2463491 17.25741047 15.38509945 24.17225936 12.75 32.0625 C10.20375986 37.92120996 6.07953448 42.65425971 0.57421875 45.89453125 C-6.2717952 48.27795833 -15.92177164 48.20845856 -22.625 45.375 C-28.47342284 41.74405012 -33.03472673 35.32828329 -35.0625 28.8125 C-35.36328125 25.47265625 -35.36328125 25.47265625 -35.375 21.875 C-35.39175781 20.69035156 -35.40851563 19.50570312 -35.42578125 18.28515625 C-34.75634009 11.88587464 -31.78771643 7.98827266 -27.0625 3.8125 C-19.33052279 -1.75452359 -9.20169002 -3.61130628 0 0 Z " fill="#F8F5F7" transform="translate(162.0625,86.1875)"/>
<path d="M0 0 C4.4766144 4.02014388 7.21022422 8.35503913 10.0625 13.625 C10.49933105 14.42969727 10.93616211 15.23439453 11.38623047 16.06347656 C17.25030187 27.04123009 21.93373402 37.84959404 18.26953125 50.52734375 C15.72085818 56.11361902 11.65552842 59.64186447 6 62 C0.45967497 62.66360439 -4.43254144 62.75573895 -9.5 60.3125 C-14.19805436 55.96679972 -17.70798272 52.01524819 -18.3359375 45.53125 C-18.74841962 27.41810087 -11.4586977 13.79223188 0 0 Z " fill="#60DEFD" transform="translate(60,145)"/>
<path d="M0 0 C1.14637939 -0.02102783 1.14637939 -0.02102783 2.31591797 -0.04248047 C11.0860533 0.03160125 19.42944595 3.91963236 25.64453125 10.1484375 C27.93524926 12.79028747 29.93329965 15.46244948 31.875 18.375 C31.5 20.5625 31.5 20.5625 30.875 22.375 C26.92772412 22.55442163 24.2769487 22.46850689 20.875 20.375 C20.875 19.715 20.875 19.055 20.875 18.375 C20.19953125 18.24222656 19.5240625 18.10945313 18.828125 17.97265625 C17.93609375 17.79605469 17.0440625 17.61945313 16.125 17.4375 C15.24328125 17.26347656 14.3615625 17.08945313 13.453125 16.91015625 C10.875 16.375 10.875 16.375 9.0234375 15.82421875 C-1.62634913 13.59744518 -13.57707972 14.89500413 -22.875 20.5625 C-26.34582257 22.49815105 -28.22514799 22.75547337 -32.125 22.375 C-32.80859375 20.6484375 -32.80859375 20.6484375 -33.125 18.375 C-29.09317871 10.85804506 -22.07234212 4.80005058 -14.25 1.5 C-9.56486069 0.1239451 -4.84895245 0.06180134 0 0 Z " fill="#1B1626" transform="translate(113.125,158.625)"/>
<path d="M0 0 C5.00230198 2.45567552 8.49851535 5.9970307 11 11 C11.64777778 17.11651714 10.78156819 21.55276229 8 27 C7.34 27 6.68 27 6 27 C5.566875 25.824375 5.566875 25.824375 5.125 24.625 C4.15087746 21.90328368 4.15087746 21.90328368 2 20 C-0.95769177 19.49989476 -0.95769177 19.49989476 -4 20 C-6.8389981 22.34951567 -7.22751987 24.74420551 -7.6875 28.25 C-7.790625 29.4875 -7.89375 30.725 -8 32 C-13.59922015 30.56764136 -17.07289738 28.15344065 -20.1171875 23.171875 C-21.83629976 18.94255456 -21.51931994 14.47264299 -21 10 C-16.67390005 0.84863471 -9.52137091 -1.40479243 0 0 Z " fill="#191626" transform="translate(79,93)"/>
<path d="M0 0 C4.68884617 2.50868203 7.18379356 5.26622442 8.83984375 10.234375 C9.34140834 15.92520395 9.56569865 20.57705637 5.83984375 25.234375 C3.83984375 23.234375 1.83984375 21.234375 -0.16015625 19.234375 C-3.64071499 19.41004858 -3.64071499 19.41004858 -7.16015625 20.234375 C-9.09410626 23.13530002 -9.46147566 24.13112237 -9.78515625 27.421875 C-9.90890625 28.68 -10.03265625 29.938125 -10.16015625 31.234375 C-14.55699113 30.03523822 -17.25856559 28.8055635 -20.16015625 25.234375 C-20.16015625 24.574375 -20.16015625 23.914375 -20.16015625 23.234375 C-20.82015625 23.234375 -21.48015625 23.234375 -22.16015625 23.234375 C-23.73276269 17.57043474 -24.31847969 11.78063881 -21.53515625 6.421875 C-16.05652457 -0.93102541 -8.76145117 -3.10532447 0 0 Z " fill="#1A1726" transform="translate(158.16015625,93.765625)"/>
<path d="M0 0 C6.58820985 8.7842798 8.2930506 18.14621163 7 29 C5.18759788 35.27071748 1.76445127 38.73146605 -3.7890625 42.078125 C-8.2814295 43.95126742 -13.23712625 43.51714849 -18 43 C-23.62318168 40.28882312 -27.66448812 35.8083165 -30 30 C-30.1953125 26.984375 -30.1953125 26.984375 -30.125 23.75 C-30.10695312 22.67234375 -30.08890625 21.5946875 -30.0703125 20.484375 C-30.04710937 19.66453125 -30.02390625 18.8446875 -30 18 C-29.67 19.32 -29.34 20.64 -29 22 C-28.01 22 -27.02 22 -26 22 C-25.67 23.98 -25.34 25.96 -25 28 C-20.35413108 27.51515724 -20.35413108 27.51515724 -16 26 C-16 26.66 -16 27.32 -16 28 C-12.66799815 28.41771804 -12.66799815 28.41771804 -9 28 C-6.33429191 25.40444213 -5.174396 23.523188 -4 20 C-2.68 20 -1.36 20 0 20 C0 13.4 0 6.8 0 0 Z " fill="#1CABFA" transform="translate(72,164)"/>
<path d="M0 0 C2.66285369 2.49642533 2.84728706 4.286246 3 7.875 C2.67 8.535 2.34 9.195 2 9.875 C1.34 9.875 0.68 9.875 0 9.875 C-0.24492188 10.4834375 -0.48984375 11.091875 -0.7421875 11.71875 C-2.24782873 14.29984924 -3.48991816 15.01614246 -6.125 16.375 C-6.92421875 16.79136719 -7.7234375 17.20773438 -8.546875 17.63671875 C-9.35640625 18.04535156 -10.1659375 18.45398438 -11 18.875 C-11.74765625 19.27332031 -12.4953125 19.67164062 -13.265625 20.08203125 C-18.59496466 22.875 -18.59496466 22.875 -22 22.875 C-22 23.535 -22 24.195 -22 24.875 C-27.12919186 26.97928384 -31.5610835 27.09255666 -37 26.875 C-37.75 24.75 -37.75 24.75 -38 21.875 C-35.63234994 17.50395374 -32.61527243 14.24925427 -29 10.875 C-28.32710937 10.23175781 -27.65421875 9.58851562 -26.9609375 8.92578125 C-19.00199156 1.52751707 -11.1059703 -4.16473886 0 0 Z " fill="#C16A90" transform="translate(72,54.125)"/>
<path d="M0 0 C0.68578125 0.35320313 1.3715625 0.70640625 2.078125 1.0703125 C2.77679688 1.39773437 3.47546875 1.72515625 4.1953125 2.0625 C7.01052292 3.56939686 8.8802533 5.76778025 11.078125 8.0703125 C11.62339844 8.59496094 12.16867188 9.11960937 12.73046875 9.66015625 C14.21787095 11.09156213 15.65199506 12.57785094 17.078125 14.0703125 C17.078125 14.7303125 17.078125 15.3903125 17.078125 16.0703125 C17.738125 16.0703125 18.398125 16.0703125 19.078125 16.0703125 C20.69761511 18.64244384 21.12221251 19.74700409 20.703125 22.8203125 C20.496875 23.5628125 20.290625 24.3053125 20.078125 25.0703125 C8.27246252 25.83196814 -0.64298488 20.36870947 -10.921875 15.0703125 C-10.921875 14.4103125 -10.921875 13.7503125 -10.921875 13.0703125 C-11.664375 12.8434375 -12.406875 12.6165625 -13.171875 12.3828125 C-16.56511221 10.76331292 -18.01092516 9.30422761 -19.921875 6.0703125 C-19.74030117 2.98355738 -19.30005318 0.82666885 -17.921875 -1.9296875 C-11.15241681 -4.18617356 -6.21098024 -3.0161235 0 0 Z " fill="#C16A8F" transform="translate(169.921875,55.9296875)"/>
<path d="M0 0 C2.53707769 3.38277026 3.79068977 5.57887864 5.1875 9.4375 C5.53167969 10.36433594 5.87585938 11.29117188 6.23046875 12.24609375 C6.99365027 14.97727636 7.14832648 17.18179685 7 20 C6.505 18.02 6.505 18.02 6 16 C5.01 16 4.02 16 3 16 C2.67 18.31 2.34 20.62 2 23 C1.34 23 0.68 23 0 23 C0.144375 23.70125 0.28875 24.4025 0.4375 25.125 C-0.14208808 28.9337217 -1.35514464 30.43083136 -4.3125 32.83984375 C-10.3621508 35.45139359 -17.55133359 34.39170752 -24 34 C-24 33.01 -24 32.02 -24 31 C-24.99 31.33 -25.98 31.66 -27 32 C-27.99 31.34 -28.98 30.68 -30 30 C-30.29296875 27.1796875 -30.29296875 27.1796875 -30.1875 23.875 C-30.16042969 22.77929688 -30.13335937 21.68359375 -30.10546875 20.5546875 C-30.07066406 19.71164063 -30.03585938 18.86859375 -30 18 C-29.67 19.32 -29.34 20.64 -29 22 C-28.01 22 -27.02 22 -26 22 C-25.67 23.98 -25.34 25.96 -25 28 C-20.35413108 27.51515724 -20.35413108 27.51515724 -16 26 C-16 26.66 -16 27.32 -16 28 C-12.66799815 28.41771804 -12.66799815 28.41771804 -9 28 C-6.33429191 25.40444213 -5.174396 23.523188 -4 20 C-2.68 20 -1.36 20 0 20 C0 13.4 0 6.8 0 0 Z " fill="#3DC5FC" transform="translate(72,164)"/>
<path d="M0 0 C2.64 0 5.28 0 8 0 C7.95875 0.94875 7.9175 1.8975 7.875 2.875 C7.65026182 6.10244856 7.65026182 6.10244856 10 8 C10.66 8 11.32 8 12 8 C12.33 8.99 12.66 9.98 13 11 C11.69593116 13.01920337 10.36176581 15.01924973 9 17 C9 17.99 9 18.98 9 20 C14.66975849 20.55314717 17.32094508 18.87941841 22 16 C22.66 16 23.32 16 24 16 C23.64694891 18.61257809 23.35880068 20.5170429 21.76953125 22.65625 C19.40219845 24.45395968 17.93877231 24.30557567 15 24.1875 C14.13375 24.16042969 13.2675 24.13335937 12.375 24.10546875 C11.199375 24.05326172 11.199375 24.05326172 10 24 C9.01 24 8.02 24 7 24 C6.74605469 23.05898437 6.49210937 22.11796875 6.23046875 21.1484375 C5.88628906 19.90320313 5.54210937 18.65796875 5.1875 17.375 C4.85105469 16.14523438 4.51460938 14.91546875 4.16796875 13.6484375 C3.10681703 9.99676314 3.10681703 9.99676314 1.36328125 6.7890625 C0 4 0 4 0 0 Z " fill="#F16AA3" transform="translate(72,160)"/>
<path d="M0 0 C1.26003868 2.52007736 0.94389436 3.84113846 0.625 6.625 C0.52574219 7.511875 0.42648438 8.39875 0.32421875 9.3125 C0.21722656 10.199375 0.11023438 11.08625 0 12 C-0.09667969 12.804375 -0.19335938 13.60875 -0.29296875 14.4375 C-0.52153818 16.29255626 -0.75972163 18.14642399 -1 20 C-5.33671225 18.8172603 -8.33398414 17.73242221 -11 14 C-10.75 11.25 -10.75 11.25 -10 9 C-9.34 9 -8.68 9 -8 9 C-8 6.03 -8 3.06 -8 0 C-5.09660535 -1.45169732 -3.09125158 -0.72348441 0 0 Z " fill="#1F1C2A" transform="translate(149,105)"/>
<path d="M0 0 C3 1 3 1 5.25 3.4375 C7.9900276 9.01541332 6.92390533 14.22828402 5 20 C2.29120665 21.35439668 -0.00933268 21.06501451 -3 21 C-4.16810792 13.15473462 -3.98096843 7.1088722 0 0 Z " fill="#8FE6FE" transform="translate(51,167)"/>
<path d="M0 0 C1.32 0 2.64 0 4 0 C3.56964231 3.33527208 2.58204728 5.86378743 1.0625 8.8125 C-2.04305153 15.45273382 -2.32761941 22.78960284 -3 30 C-7.31279406 28.07398727 -9.22069481 25.78294318 -12 22 C-12 21.01 -12 20.02 -12 19 C-9.46815512 16.64276511 -8.52809907 16 -5 16 C-5.061875 14.1128125 -5.061875 14.1128125 -5.125 12.1875 C-5.2390374 8.70935927 -5.05925681 8.08888522 -3 5 C-2.34 4.34 -1.68 3.68 -1 3 C-0.67 2.01 -0.34 1.02 0 0 Z " fill="#F970AA" transform="translate(45,160)"/>
<path d="M0 0 C5.84847908 2.92423954 9.4391737 7.65876054 13 13 C12.625 15.1875 12.625 15.1875 12 17 C8.05272412 17.17942163 5.4019487 17.09350689 2 15 C2 14.34 2 13.68 2 13 C1.28972656 12.87882813 0.57945312 12.75765625 -0.15234375 12.6328125 C-1.53099609 12.38144531 -1.53099609 12.38144531 -2.9375 12.125 C-3.85402344 11.96257812 -4.77054687 11.80015625 -5.71484375 11.6328125 C-6.84599609 11.31957031 -6.84599609 11.31957031 -8 11 C-8.33 10.34 -8.66 9.68 -9 9 C-5.66666667 9 -2.33333333 9 1 9 C0.73323796 7.01508358 0.73323796 7.01508358 0 5 C-0.99 4.67 -1.98 4.34 -3 4 C-3 3.34 -3 2.68 -3 2 C-2.01 2 -1.02 2 0 2 C0 1.34 0 0.68 0 0 Z " fill="#23192B" transform="translate(132,164)"/>
<path d="M0 0 C3.3 0 6.6 0 10 0 C10.33 0.66 10.66 1.32 11 2 C10.67 2.66 10.34 3.32 10 4 C11.98 4 13.96 4 16 4 C16.33 2.68 16.66 1.36 17 0 C17.66 0.33 18.32 0.66 19 1 C19 4 19 4 18 6 C18.66 6 19.32 6 20 6 C20 6.66 20 7.32 20 8 C19.44127197 7.98428955 18.88254395 7.9685791 18.30688477 7.95239258 C15.7255301 7.88925076 13.1443387 7.85076296 10.5625 7.8125 C9.68400391 7.78736328 8.80550781 7.76222656 7.90039062 7.73632812 C-1.28859472 7.63460504 -8.25206055 10.21935651 -16 15 C-16 13.35 -16 11.7 -16 10 C-11.20127899 7.76059686 -6.17144153 6.9439136 -1 6 C-0.67 4.02 -0.34 2.04 0 0 Z " fill="#FC7AB0" transform="translate(104,152)"/>
<path d="M0 0 C1 2 1 2 1 3 C1.33 2.34 1.66 1.68 2 1 C2.66 1.33 3.32 1.66 4 2 C3.67 2.99 3.34 3.98 3 5 C3.66 5 4.32 5 5 5 C5.33 3.68 5.66 2.36 6 1 C6 3.64 6 6.28 6 9 C6.99 9 7.98 9 9 9 C9.83536335 14.29063457 10.19156496 18.69211971 9 24 C8.34 24.33 7.68 24.66 7 25 C7.03480469 24.32453125 7.06960937 23.6490625 7.10546875 22.953125 C7.13253906 22.06109375 7.15960938 21.1690625 7.1875 20.25 C7.22230469 19.36828125 7.25710937 18.4865625 7.29296875 17.578125 C6.94708688 14.53436457 5.92206641 13.32060511 4 11 C4 10.34 4 9.68 4 9 C3.34 9 2.68 9 2 9 C-1.12905254 12.18313493 -1.45045293 14.88833399 -1.6875 19.25 C-1.78611328 20.86648437 -1.78611328 20.86648437 -1.88671875 22.515625 C-1.92410156 23.33546875 -1.96148437 24.1553125 -2 25 C-2.66 25 -3.32 25 -4 25 C-5.32248716 15.17955082 -5.78611487 8.50899245 0 0 Z " fill="#79E0F9" transform="translate(50,159)"/>
<path d="M0 0 C-1.5502181 3.80508079 -4.03174575 6.26834572 -7 9 C-7.69867188 9.64582031 -8.39734375 10.29164063 -9.1171875 10.95703125 C-20.18494898 21 -20.18494898 21 -24 21 C-24 18.03 -24 15.06 -24 12 C-22.35 12 -20.7 12 -19 12 C-19.33 12.99 -19.66 13.98 -20 15 C-16.94279946 14.35137474 -16.94279946 14.35137474 -16 12.25 C-15.67 11.5075 -15.34 10.765 -15 10 C-13.625 7.25 -13.625 7.25 -12 5 C-10.68 5 -9.36 5 -8 5 C-7.71125 4.360625 -7.4225 3.72125 -7.125 3.0625 C-5.228943 -0.41360449 -4.0216034 0 0 0 Z " fill="#FA66A1" transform="translate(192,180)"/>
<path d="M0 0 C0.33 0 0.66 0 1 0 C0.979375 0.928125 0.95875 1.85625 0.9375 2.8125 C0.84230396 6.02286011 0.84230396 6.02286011 2 9 C2.03874921 10.66621616 2.0450286 12.33394172 2 14 C2.66 14.33 3.32 14.66 4 15 C4 16.32 4 17.64 4 19 C-1.95507399 18.6083965 -6.62819824 17.62875405 -12 15 C-12 14.34 -12 13.68 -12 13 C-10.390625 11.9921875 -10.390625 11.9921875 -8.25 10.875 C-3.47871976 8.05791433 -2.05881535 5.06125441 0 0 Z " fill="#FB5B9A" transform="translate(78,193)"/>
<path d="M0 0 C0.33 0 0.66 0 1 0 C1.13277344 0.83144531 1.26554687 1.66289063 1.40234375 2.51953125 C1.57894531 3.60621094 1.75554688 4.69289063 1.9375 5.8125 C2.19853516 7.43091797 2.19853516 7.43091797 2.46484375 9.08203125 C2.93871921 12.04933356 2.93871921 12.04933356 4 15 C4.99 15.433125 4.99 15.433125 6 15.875 C8 17 8 17 8.75 19.625 C8.8325 20.40875 8.915 21.1925 9 22 C7.3125 23.625 7.3125 23.625 5 25 C0.04641023 24.11089414 -2.17728553 20.87115128 -5 17 C-5 16.34 -5 15.68 -5 15 C-4.01 15 -3.02 15 -2 15 C-1.34 10.05 -0.68 5.1 0 0 Z " fill="#EFEBEE" transform="translate(57,105)"/>
<path d="M0 0 C1.093125 0.185625 2.18625 0.37125 3.3125 0.5625 C8.60695693 1.24688222 13.72481308 0.63030726 19 0 C19 0.66 19 1.32 19 2 C19.66 2 20.32 2 21 2 C21.33 1.34 21.66 0.68 22 0 C22 0.99 22 1.98 22 3 C21.40832031 3.19335938 20.81664062 3.38671875 20.20703125 3.5859375 C19.41683594 3.84632813 18.62664062 4.10671875 17.8125 4.375 C16.98621094 4.64699219 16.15992188 4.91898438 15.30859375 5.19921875 C12.9173865 5.98950578 12.9173865 5.98950578 10.375 7.1875 C7.20038189 8.27355356 4.32757961 8.13049332 1 8 C0 1.125 0 1.125 0 0 Z " fill="#FB5898" transform="translate(128,208)"/>
<path d="M0 0 C2.97 0.495 2.97 0.495 6 1 C6 1.66 6 2.32 6 3 C9.3 3.33 12.6 3.66 16 4 C16 2.68 16 1.36 16 0 C18.31 0 20.62 0 23 0 C23.125 2.875 23.125 2.875 23 6 C21 8 21 8 18.4375 8.1875 C16 8 16 8 15 7 C11.36805359 6.80850919 11.36805359 6.80850919 8 8 C7.01 7.34 6.02 6.68 5 6 C2.32854463 6.80161791 2.32854463 6.80161791 0 8 C0 5.36 0 2.72 0 0 Z " fill="#F369A2" transform="translate(128,176)"/>
<path d="M0 0 C1.485 0.99 1.485 0.99 3 2 C3.66 2 4.32 2 5 2 C5 2.99 5 3.98 5 5 C10.28 5 15.56 5 21 5 C21 5.66 21 6.32 21 7 C13.375 9.125 13.375 9.125 10 8 C9.67 9.32 9.34 10.64 9 12 C5.18688695 10.5019913 3.27516449 8.37351976 1 5 C0.25 2.1875 0.25 2.1875 0 0 Z " fill="#29B2FB" transform="translate(43,193)"/>
<path d="M0 0 C2.60018816 3.90028225 2.15085514 7.47434569 2 12 C2.66 12 3.32 12 4 12 C4 13.32 4 14.64 4 16 C6.64 15.67 9.28 15.34 12 15 C10.875 17.5 10.875 17.5 9 20 C5.8125 20.3125 5.8125 20.3125 3 20 C2.67 18.02 2.34 16.04 2 14 C1.01 14 0.02 14 -1 14 C-1.93402724 8.58264203 -2.20808081 5.19548425 0 0 Z " fill="#6EDBFD" transform="translate(44,172)"/>
<path d="M0 0 C2.5 0.25 2.5 0.25 4.5 2.25 C4.75 5.25 4.75 5.25 4.5 8.25 C3.84 8.91 3.18 9.57 2.5 10.25 C-0.79714793 9.92028521 -2.1226839 9.6273161 -4.5 7.25 C-4.75 4.75 -4.75 4.75 -4.5 2.25 C-2.5 0.25 -2.5 0.25 0 0 Z " fill="#ECEBEE" transform="translate(67.5,103.75)"/>
<path d="M0 0 C2.64 0 5.28 0 8 0 C8.20674944 5.78898419 7.59162079 10.42932723 6 16 C4.34687364 13.52031046 3.10196367 11.25727576 1.875 8.5625 C1.52179688 7.80066406 1.16859375 7.03882813 0.8046875 6.25390625 C0 4 0 4 0 0 Z " fill="#F675AF" transform="translate(72,160)"/>
<path d="M0 0 C0.125 3.375 0.125 3.375 0 7 C-0.66 7.66 -1.32 8.32 -2 9 C-6.55555556 8.44444444 -6.55555556 8.44444444 -8 7 C-8.04092937 4.66702567 -8.04241723 2.33294775 -8 0 C-5.13822943 -1.43088528 -3.06624227 -0.59991697 0 0 Z " fill="#F2F2F3" transform="translate(149,105)"/>
<path d="M0 0 C0.66 0 1.32 0 2 0 C1.50506533 4.75416122 0.27876594 7.55220583 -2.5625 11.375 C-3.52349609 12.68597656 -3.52349609 12.68597656 -4.50390625 14.0234375 C-4.99761719 14.67570313 -5.49132813 15.32796875 -6 16 C-6.66 15.67 -7.32 15.34 -8 15 C-8.43501326 9.77984085 -8.43501326 9.77984085 -8 7 C-5.6875 4.5 -5.6875 4.5 -3 3 C-2.01 3 -1.02 3 0 3 C0 2.01 0 1.02 0 0 Z " fill="#FB7AB1" transform="translate(56,144)"/>
<path d="M0 0 C1.06089844 0.00902344 2.12179688 0.01804688 3.21484375 0.02734375 C5.81013638 0.05072476 8.40494465 0.08349444 11 0.125 C11 0.785 11 1.445 11 2.125 C10.16190796 2.10143433 10.16190796 2.10143433 9.30688477 2.07739258 C6.7255301 2.01425076 4.1443387 1.97576296 1.5625 1.9375 C0.24475586 1.89979492 0.24475586 1.89979492 -1.09960938 1.86132812 C-10.28859472 1.75960504 -17.25206055 4.34435651 -25 9.125 C-25 7.475 -25 5.825 -25 4.125 C-16.56968575 0.43673751 -9.08597689 -0.14783191 0 0 Z " fill="#CD6594" transform="translate(113,157.875)"/>
<path d="M0 0 C0.33 0 0.66 0 1 0 C0.979375 0.928125 0.95875 1.85625 0.9375 2.8125 C0.84230396 6.02286011 0.84230396 6.02286011 2 9 C1.5625 11.1875 1.5625 11.1875 1 13 C0.67 12.34 0.34 11.68 0 11 C-0.763125 11.33 -1.52625 11.66 -2.3125 12 C-5 13 -5 13 -8 13 C-7.34 14.32 -6.68 15.64 -6 17 C-7.98 16.34 -9.96 15.68 -12 15 C-12 14.34 -12 13.68 -12 13 C-10.390625 11.9921875 -10.390625 11.9921875 -8.25 10.875 C-3.47871976 8.05791433 -2.05881535 5.06125441 0 0 Z " fill="#EB63A4" transform="translate(78,193)"/>
<path d="M0 0 C0.33 0.99 0.66 1.98 1 3 C1.66 3.33 2.32 3.66 3 4 C2.34 5.32 1.68 6.64 1 8 C1.66 8.33 2.32 8.66 3 9 C2.67 9.99 2.34 10.98 2 12 C1.34 11.67 0.68 11.34 0 11 C0 12.98 0 14.96 0 17 C0.66 17 1.32 17 2 17 C2 17.66 2 18.32 2 19 C1.38125 18.814375 0.7625 18.62875 0.125 18.4375 C-2.04160178 17.76313824 -2.04160178 17.76313824 -4 19 C-3.59060025 12.23784552 -2.43046191 6.32837252 0 0 Z " fill="#FB9DC5" transform="translate(13,77)"/>
<path d="M0 0 C1.32 0.99 2.64 1.98 4 3 C3.67 3.66 3.34 4.32 3 5 C3.66 4.67 4.32 4.34 5 4 C8.13854629 3.7684679 11.26985751 3.60590119 14.4140625 3.48242188 C18.06549074 3.29194383 20.87917294 2.97652381 24 1 C24 1.99 24 2.98 24 4 C24.94978897 6.15028304 24.94978897 6.15028304 26 8 C25.15179688 7.67515625 24.30359375 7.3503125 23.4296875 7.015625 C15.20571923 4.58028132 6.09889319 5.40835418 -2 8 C-1.34 7.01 -0.68 6.02 0 5 C-0.66 3.68 -1.32 2.36 -2 1 C-1.34 0.67 -0.68 0.34 0 0 Z " fill="#FCB6D3" transform="translate(62,80)"/>
<path d="M0 0 C0.66 0.66 1.32 1.32 2 2 C1.875 4.9375 1.875 4.9375 1 8 C-0.9375 9.6875 -0.9375 9.6875 -3 11 C-3.99 12.485 -3.99 12.485 -5 14 C-5.61875 13.835 -6.2375 13.67 -6.875 13.5 C-8.96063386 12.92365356 -8.96063386 12.92365356 -11 13 C-11 12.34 -11 11.68 -11 11 C-9.34467377 9.98133771 -7.67739862 8.98189187 -6 8 C-5.67 7.34 -5.34 6.68 -5 6 C-4.34 6 -3.68 6 -3 6 C-2.87625 5.195625 -2.7525 4.39125 -2.625 3.5625 C-2.41875 2.716875 -2.2125 1.87125 -2 1 C-1.34 0.67 -0.68 0.34 0 0 Z " fill="#FBA7CC" transform="translate(77,58)"/>
<path d="M0 0 C0 0.66 0 1.32 0 2 C0.66 2 1.32 2 2 2 C2 2.66 2 3.32 2 4 C0.06891037 5.03290841 -1.870118 6.05098672 -3.8125 7.0625 C-4.89144531 7.63097656 -5.97039062 8.19945312 -7.08203125 8.78515625 C-10 10 -10 10 -13 9 C-4.25 0 -4.25 0 0 0 Z " fill="#F9609B" transform="translate(164,200)"/>
<path d="M0 0 C2.3125 -0.25 2.3125 -0.25 5 0 C6.8125 1.75 6.8125 1.75 8 4 C8 5.32 8 6.64 8 8 C8.30404678 9.67225729 8.63128912 11.34080104 9 13 C7.171875 12.80859375 7.171875 12.80859375 5 12 C3.515625 9.78515625 3.515625 9.78515625 2.25 7.0625 C1.82203125 6.16660156 1.3940625 5.27070313 0.953125 4.34765625 C0 2 0 2 0 0 Z " fill="#F97DAE" transform="translate(15,152)"/>
<path d="M0 0 C2.64 0 5.28 0 8 0 C9 7.625 9 7.625 9 11 C4.70073737 9.40768051 2.64994267 6.60686641 0 3 C0 2.01 0 1.02 0 0 Z " fill="#FC74AC" transform="translate(24,168)"/>
<path d="M0 0 C1.98 0 3.96 0 6 0 C6.33 0.99 6.66 1.98 7 3 C7.99 3 8.98 3 10 3 C10 3.66 10 4.32 10 5 C10.763125 5.28875 11.52625 5.5775 12.3125 5.875 C15 7 15 7 18 9 C18.1875 12.625 18.1875 12.625 18 16 C17.484375 15.29875 16.96875 14.5975 16.4375 13.875 C11.70556557 8.29374401 6.43880521 4.41650889 0 1 C0 0.67 0 0.34 0 0 Z " fill="#E76DA1" transform="translate(126,160)"/>
<path d="M0 0 C3.33333333 0 6.66666667 0 10 0 C10 2.97 10 5.94 10 9 C9.67 9 9.34 9 9 9 C8.34 7.02 7.68 5.04 7 3 C5.66666667 6 5.66666667 6 7 9 C3.63408134 7.55746343 1.48952921 5.66735273 -1 3 C-0.67 2.01 -0.34 1.02 0 0 Z " fill="#151321" transform="translate(60,114)"/>
<path d="M0 0 C2.45254443 2.98662287 3.87415265 5.80944083 5.1875 9.4375 C5.53167969 10.36433594 5.87585938 11.29117188 6.23046875 12.24609375 C6.99365027 14.97727636 7.14832648 17.18179685 7 20 C6.67 18.68 6.34 17.36 6 16 C5.34 16 4.68 16 4 16 C4 14.68 4 13.36 4 12 C3.34 12 2.68 12 2 12 C1.67 12.99 1.34 13.98 1 15 C0 14 0 14 -0.09765625 10.83984375 C-0.08025391 8.90818359 -0.08025391 8.90818359 -0.0625 6.9375 C-0.05347656 5.64714844 -0.04445313 4.35679687 -0.03515625 3.02734375 C-0.02355469 2.02832031 -0.01195313 1.02929688 0 0 Z " fill="#4DBBF2" transform="translate(72,164)"/>
<path d="M0 0 C2.80863551 1.40431775 3.00033174 3.37463659 3.953125 6.22460938 C4.17484375 6.91361328 4.3965625 7.60261719 4.625 8.3125 C4.85445312 8.98990234 5.08390625 9.66730469 5.3203125 10.36523438 C6.44230901 13.78131304 7 16.3665148 7 20 C5.68 19.67 4.36 19.34 3 19 C2.67 17.68 2.34 16.36 2 15 C2.66 15 3.32 15 4 15 C3.01 14.13375 3.01 14.13375 2 13.25 C0 11 0 11 0 7 C0.66 7 1.32 7 2 7 C1.67 6.401875 1.34 5.80375 1 5.1875 C0 3 0 3 0 0 Z " fill="#F9ABCC" transform="translate(209,72)"/>
<path d="M0 0 C2.475 0.495 2.475 0.495 5 1 C5.144375 1.78375 5.28875 2.5675 5.4375 3.375 C5.87798925 5.96421018 5.87798925 5.96421018 7 8 C7.99 8 8.98 8 10 8 C10 9.65 10 11.3 10 13 C8.68 13 7.36 13 6 13 C4.296875 10.91796875 4.296875 10.91796875 2.75 8.1875 C2.22921875 7.29417969 1.7084375 6.40085938 1.171875 5.48046875 C0 3 0 3 0 0 Z " fill="#F281B8" transform="translate(62,144)"/>
<path d="M0 0 C0.66 0.99 1.32 1.98 2 3 C2.99 3.33 3.98 3.66 5 4 C4.49287967 7.71888239 3.88391785 10.73454239 2 14 C1.01 13.67 0.02 13.34 -1 13 C-1 12.34 -1 11.68 -1 11 C-0.01 11 0.98 11 2 11 C2 10.34 2 9.68 2 9 C1.01 9.33 0.02 9.66 -1 10 C-1.02689216 8.52093108 -1.04634621 7.04172517 -1.0625 5.5625 C-1.07410156 4.73878906 -1.08570313 3.91507813 -1.09765625 3.06640625 C-1 1 -1 1 0 0 Z " fill="#FA7BAE" transform="translate(202,152)"/>
<path d="M0 0 C2.31 0 4.62 0 7 0 C7.33 0.66 7.66 1.32 8 2 C8.33 2.33 8.66 2.66 9 3 C8.5625 5.0625 8.5625 5.0625 8 7 C7.13375 6.690625 6.2675 6.38125 5.375 6.0625 C-0.57013265 4.32696438 -6.85139382 4.32405969 -13 4 C-13 3.67 -13 3.34 -13 3 C-7.72 3 -2.44 3 3 3 C2.01 2.67 1.02 2.34 0 2 C0 1.34 0 0.68 0 0 Z " fill="#FBAECF" transform="translate(157,81)"/>
<path d="M0 0 C0 3.3 0 6.6 0 10 C-1.32 10 -2.64 10 -4 10 C-5.39431504 7.21136993 -5.25660094 5.07921132 -5 2 C-2 0 -2 0 0 0 Z " fill="#B2EDFE" transform="translate(54,174)"/>
<path d="M0 0 C0.33 0 0.66 0 1 0 C0.6083965 5.95507399 -0.37124595 10.62819824 -3 16 C-5.1519437 12.77208445 -5.20086443 11.71599191 -5 8 C-4.34 7.67 -3.68 7.34 -3 7 C-1.94647157 4.69034152 -0.94280904 2.3570226 0 0 Z " fill="#F885B1" transform="translate(214,133)"/>
<path d="M0 0 C0.66 0 1.32 0 2 0 C1.34 4.29 0.68 8.58 0 13 C-1.65 12.67 -3.3 12.34 -5 12 C-4.67 11.01 -4.34 10.02 -4 9 C-4.66 8.67 -5.32 8.34 -6 8 C-5.34 6.68 -4.68 5.36 -4 4 C-3.34 4.66 -2.68 5.32 -2 6 C-1.34 4.02 -0.68 2.04 0 0 Z " fill="#232031" transform="translate(71,112)"/>
<path d="M0 0 C2.67927341 4.01891012 2.15601248 6.24161923 2 11 C1.01 11.495 1.01 11.495 0 12 C0 9.03 0 6.06 0 3 C-1.65 3.66 -3.3 4.32 -5 5 C-5 6.65 -5 8.3 -5 10 C-5.33 10 -5.66 10 -6 10 C-6.36567164 3.539801 -6.36567164 3.539801 -4.6875 1.0625 C-3 0 -3 0 0 0 Z " fill="#A4EAFE" transform="translate(54,171)"/>
<path d="M0 0 C0.66 0.33 1.32 0.66 2 1 C1.67 1.66 1.34 2.32 1 3 C1.99 3.33 2.98 3.66 4 4 C2.948125 4.20625 1.89625 4.4125 0.8125 4.625 C-2.32764945 5.48774813 -3.76688621 6.5536231 -5.75 9.125 C-6.4925 10.07375 -7.235 11.0225 -8 12 C-8.99 12 -9.98 12 -11 12 C-10.67 11.01 -10.34 10.02 -10 9 C-9.34 9 -8.68 9 -8 9 C-7.731875 8.360625 -7.46375 7.72125 -7.1875 7.0625 C-6 5 -6 5 -3 4 C-2.67 3.01 -2.34 2.02 -2 1 C-1.34 0.67 -0.68 0.34 0 0 Z " fill="#FAC3D9" transform="translate(48,28)"/>
<path d="M0 0 C1.32 0.66 2.64 1.32 4 2 C4 2.99 4 3.98 4 5 C4.99 5.99 5.98 6.98 7 8 C3.7 7.34 0.4 6.68 -3 6 C-2 4 -1 2 0 0 Z " fill="#F95D9B" transform="translate(86,208)"/>
<path d="M0 0 C1.98 0.66 3.96 1.32 6 2 C5.67 3.32 5.34 4.64 5 6 C2.125 6.125 2.125 6.125 -1 6 C-1.66 5.34 -2.32 4.68 -3 4 C-2.67 3.34 -2.34 2.68 -2 2 C-1.34 2 -0.68 2 0 2 C0 1.34 0 0.68 0 0 Z " fill="#2C1A2E" transform="translate(139,175)"/>
<path d="M0 0 C2.875 0.6875 2.875 0.6875 6 2 C7.375 4.625 7.375 4.625 8 7 C7 8 7 8 4.4375 8.0625 C3.633125 8.041875 2.82875 8.02125 2 8 C2 6.68 2 5.36 2 4 C1.34 4 0.68 4 0 4 C0 2.68 0 1.36 0 0 Z " fill="#FB87B7" transform="translate(56,128)"/>
<path d="M0 0 C-1.9375 2.5625 -1.9375 2.5625 -5 5 C-8.10601995 5.14543237 -10.97170479 4.6663569 -14 4 C-11.68516093 1.68516093 -10.10977477 1.2391044 -7 0.3125 C-6.113125 0.04050781 -5.22625 -0.23148438 -4.3125 -0.51171875 C-2 -1 -2 -1 0 0 Z " fill="#FA86B3" transform="translate(167,131)"/>
<path d="M0 0 C0.66 0.33 1.32 0.66 2 1 C-5.88995215 13.44497608 -5.88995215 13.44497608 -11 16 C-9.53652394 11.47652853 -7.11054314 8.55490644 -4 5 C-2.66226218 3.33686649 -1.32732954 1.67145202 0 0 Z " fill="#FBBED7" transform="translate(35,40)"/>
<path d="M0 0 C2 1 2 1 2 1 Z M0 2 C-2.43784283 3.53235835 -4.74515307 4.90198195 -7.4375 5.9375 C-10.58877433 7.24412594 -13.20890208 9.05272238 -16 11 C-16.66 10.67 -17.32 10.34 -18 10 C-16.41906946 8.87162591 -14.83515284 7.74743482 -13.25 6.625 C-12.36828125 5.99851562 -11.4865625 5.37203125 -10.578125 4.7265625 C-4.24367622 0.48440135 -4.24367622 0.48440135 0 2 Z " fill="#FBC5DD" transform="translate(70,16)"/>
<path d="M0 0 C6.52307692 0.61538462 6.52307692 0.61538462 8.9375 2.5625 C9.288125 3.036875 9.63875 3.51125 10 4 C5.70700357 5.26264601 3.12168689 4.62950412 -1 3 C-0.67 2.01 -0.34 1.02 0 0 Z " fill="#FA8AB7" transform="translate(137,131)"/>
<path d="M0 0 C0.33 0.99 0.66 1.98 1 3 C-0.3125 4.5 -0.3125 4.5 -2 6 C-2.99 6 -3.98 6 -5 6 C-4.34 7.32 -3.68 8.64 -3 10 C-4.98 9.34 -6.96 8.68 -9 8 C-9 7.34 -9 6.68 -9 6 C-7.28515625 4.74609375 -7.28515625 4.74609375 -5.0625 3.4375 C-2.37294547 1.9249593 -2.37294547 1.9249593 0 0 Z " fill="#E96DAF" transform="translate(75,200)"/>
<path d="M0 0 C0.66 0 1.32 0 2 0 C1.52389341 4.99911924 -0.03162219 7.97832683 -3 12 C-3.86626039 9.57447091 -4.17413108 8.42863035 -3.1875 6 C-2.795625 5.34 -2.40375 4.68 -2 4 C-1.62875 3.2575 -1.2575 2.515 -0.875 1.75 C-0.58625 1.1725 -0.2975 0.595 0 0 Z " fill="#F083B8" transform="translate(56,144)"/>
<path d="M0 0 C0 1.98 0 3.96 0 6 C-0.99 6 -1.98 6 -3 6 C-3 5.34 -3 4.68 -3 4 C-3.66 4 -4.32 4 -5 4 C-5.66 2.68 -6.32 1.36 -7 0 C-3.86650268 -1.04449911 -3.01031744 -0.93423645 0 0 Z " fill="#FBA4C8" transform="translate(176,92)"/>
<path d="M0 0 C-0.99 1.485 -0.99 1.485 -2 3 C-4.05859375 3.29296875 -4.05859375 3.29296875 -6.4375 3.1875 C-7.61119141 3.14689453 -7.61119141 3.14689453 -8.80859375 3.10546875 C-9.89333984 3.05326172 -9.89333984 3.05326172 -11 3 C-11.99 3 -12.98 3 -14 3 C-13 1 -13 1 -11.07421875 0.33203125 C-10.28660156 0.16058594 -9.49898438 -0.01085938 -8.6875 -0.1875 C-7.90761719 -0.36667969 -7.12773438 -0.54585937 -6.32421875 -0.73046875 C-3.90795241 -1.01067443 -2.29757048 -0.74132137 0 0 Z " fill="#FBCAE1" transform="translate(97,9)"/>
<path d="M0 0 C0.66 0.33 1.32 0.66 2 1 C-0.475 4.465 -0.475 4.465 -3 8 C-3.99 7.67 -4.98 7.34 -6 7 C-5.6875 5.125 -5.6875 5.125 -5 3 C-4.01 2.34 -3.02 1.68 -2 1 C-1.34 1.33 -0.68 1.66 0 2 C0 1.34 0 0.68 0 0 Z " fill="#F9A4CA" transform="translate(39,66)"/>
<path d="M0 0 C0.99 0.33 1.98 0.66 3 1 C3.6875 3.0625 3.6875 3.0625 4 5 C1.69 5.66 -0.62 6.32 -3 7 C-3.33 5.68 -3.66 4.36 -4 3 C-2.68 2.67 -1.36 2.34 0 2 C0 1.34 0 0.68 0 0 Z " fill="#151122" transform="translate(76,107)"/>
<path d="M0 0 C0.66 0.33 1.32 0.66 2 1 C1.67 1.66 1.34 2.32 1 3 C0.76970044 5.37123246 0.58880058 7.74741943 0.4375 10.125 C0.35371094 11.40632813 0.26992187 12.68765625 0.18359375 14.0078125 C0.12300781 14.99523437 0.06242187 15.98265625 0 17 C-0.33 17 -0.66 17 -1 17 C-1 13.37 -1 9.74 -1 6 C-1.66 6 -2.32 6 -3 6 C-2.42655063 3.13275314 -2.1385485 2.1385485 0 0 Z " fill="#FAA7C9" transform="translate(127,98)"/>
<path d="M0 0 C1.32 1.32 2.64 2.64 4 4 C1.64561267 5.42944945 0.51967567 6.08661261 -2.25 5.625 C-2.8275 5.41875 -3.405 5.2125 -4 5 C-2.68 3.35 -1.36 1.7 0 0 Z " fill="#60D6F3" transform="translate(60,145)"/>
<path d="M0 0 C0.33 0.99 0.66 1.98 1 3 C1.66 3.33 2.32 3.66 3 4 C1.79618552 6.49361571 0.54571278 8.68143083 -1 11 C-1.66 11 -2.32 11 -3 11 C-1.125 3.375 -1.125 3.375 0 0 Z " fill="#FAA9CB" transform="translate(13,77)"/>
<path d="M0 0 C1.32 0.33 2.64 0.66 4 1 C3.67 2.65 3.34 4.3 3 6 C2.01 6.33 1.02 6.66 0 7 C0 4.69 0 2.38 0 0 Z " fill="#14121D" transform="translate(135,106)"/>
<path d="M0 0 C2 1.3125 2 1.3125 4 3 C4 3.99 4 4.98 4 6 C2.02 6.66 0.04 7.32 -2 8 C-1.34 7.01 -0.68 6.02 0 5 C-0.66 3.68 -1.32 2.36 -2 1 C-1.34 0.67 -0.68 0.34 0 0 Z " fill="#F9A9CB" transform="translate(62,80)"/>
<path d="M0 0 C1.5 1.375 1.5 1.375 3 3 C3 3.66 3 4.32 3 5 C2.34 5 1.68 5 1 5 C0.67 6.65 0.34 8.3 0 10 C-0.99 8.68 -1.98 7.36 -3 6 C-2.01 4.02 -1.02 2.04 0 0 Z " fill="#FAB0CF" transform="translate(203,59)"/>
<path d="M0 0 C2.7839183 1.39195915 2.97898997 3.15575779 4 6 C2.68 6 1.36 6 0 6 C-1.75 3.5 -1.75 3.5 -3 1 C-2.01 0.67 -1.02 0.34 0 0 Z " fill="#FA6DA4" transform="translate(30,172)"/>
<path d="M0 0 C0.99 0 1.98 0 3 0 C3.66 0.99 4.32 1.98 5 3 C4.67 3.99 4.34 4.98 4 6 C2.68 6 1.36 6 0 6 C-1 3 -1 3 0 0 Z " fill="#FA8CB7" transform="translate(49,120)"/>
<path d="M0 0 C1.10844919 3.32534757 0.84454356 5.62182575 0 9 C-1.32 8.34 -2.64 7.68 -4 7 C-2.92598892 4.08482708 -2.22189824 2.22189824 0 0 Z " fill="#292735" transform="translate(63,96)"/>
<path d="M0 0 C1.485 0.99 1.485 0.99 3 2 C3.29296875 4.1640625 3.29296875 4.1640625 3.1875 6.625 C3.16042969 7.44226563 3.13335937 8.25953125 3.10546875 9.1015625 C3.07066406 9.72804687 3.03585938 10.35453125 3 11 C2.01 10.67 1.02 10.34 0 10 C0 6.7 0 3.4 0 0 Z " fill="#27A6F5" transform="translate(76,182)"/>
<path d="M0 0 C1.80411967 2.75924185 2.0127245 3.88972103 1.625 7.25 C1.41875 8.1575 1.2125 9.065 1 10 C0.01 10 -0.98 10 -2 10 C-1.125 2.25 -1.125 2.25 0 0 Z " fill="#73CAE9" transform="translate(44,172)"/>
<path d="M0 0 C1.09658936 3.28976808 0.79953138 4.71303767 0 8 C-0.66 8 -1.32 8 -2 8 C-2.66 5.69 -3.32 3.38 -4 1 C-2.68 0.67 -1.36 0.34 0 0 Z " fill="#2C2A38" transform="translate(87,112)"/>
<path d="M0 0 C0.66 0.33 1.32 0.66 2 1 C0.1875 4 0.1875 4 -2 7 C-2.99 7 -3.98 7 -5 7 C-5.33 6.01 -5.66 5.02 -6 4 C-4.02 2.68 -2.04 1.36 0 0 Z " fill="#272430" transform="translate(145,93)"/>
<path d="M0 0 C0.33 0.99 0.66 1.98 1 3 C-1.64 4.98 -4.28 6.96 -7 9 C-5.71284823 3.85139294 -4.09341999 3.13538553 0 0 Z " fill="#30BAFE" transform="translate(71,189)"/>
<path d="M0 0 C0.66 0.33 1.32 0.66 2 1 C1.67 2.98 1.34 4.96 1 7 C0.34 7 -0.32 7 -1 7 C-1.33 5.02 -1.66 3.04 -2 1 C-1.34 0.67 -0.68 0.34 0 0 Z " fill="#FA8AB9" transform="translate(174,121)"/>
<path d="M0 0 C1.98 0.495 1.98 0.495 4 1 C4.33 2.32 4.66 3.64 5 5 C3.68 5.33 2.36 5.66 1 6 C0.34 4.68 -0.32 3.36 -1 2 C-0.01 2.495 -0.01 2.495 1 3 C1.33 2.34 1.66 1.68 2 1 C1.34 0.67 0.68 0.34 0 0 Z " fill="#24222F" transform="translate(161,98)"/>
<path d="M0 0 C0.66 0.33 1.32 0.66 2 1 C1.67 1.66 1.34 2.32 1 3 C2.65 3 4.3 3 6 3 C3.38058783 4.74627478 1.96175123 5.38722388 -1 6 C-1.33 5.01 -1.66 4.02 -2 3 C-1.34 2.01 -0.68 1.02 0 0 Z " fill="#F9A5CA" transform="translate(138,82)"/>
<path d="M0 0 C8.57142857 -0.14285714 8.57142857 -0.14285714 12 1 C12 1.66 12 2.32 12 3 C9 4 9 4 6 3 C6 2.34 6 1.68 6 1 C4.02 1 2.04 1 0 1 C0 0.67 0 0.34 0 0 Z " fill="#24A3FC" transform="translate(56,203)"/>
<path d="M0 0 C0.66 0.99 1.32 1.98 2 3 C1 4 1 4 -0.84765625 4.09765625 C-2.8984375 4.06510417 -4.94921875 4.03255208 -7 4 C-7 3.34 -7 2.68 -7 2 C-4.69 1.34 -2.38 0.68 0 0 Z " fill="#4DD1FE" transform="translate(55,190)"/>
<path d="M0 0 C2.0625 0.4375 2.0625 0.4375 4 1 C3.1875 2.9375 3.1875 2.9375 2 5 C1.01 5.33 0.02 5.66 -1 6 C-1.042721 4.33388095 -1.04063832 2.66617115 -1 1 C-0.67 0.67 -0.34 0.34 0 0 Z " fill="#EC6FA2" transform="translate(89,161)"/>
<path d="M0 0 C0.99 0 1.98 0 3 0 C3 0.99 3 1.98 3 3 C2.34 3 1.68 3 1 3 C0.67 3.99 0.34 4.98 0 6 C-0.66 6 -1.32 6 -2 6 C-1.125 1.125 -1.125 1.125 0 0 Z " fill="#1D1B2A" transform="translate(138,111)"/>
<path d="M0 0 C0 1.98 0 3.96 0 6 C-3.875 4.25 -3.875 4.25 -5 2 C-2 0 -2 0 0 0 Z " fill="#DF85B7" transform="translate(42,184)"/>
<path d="M0 0 C0.66 0 1.32 0 2 0 C1.34 3.96 0.68 7.92 0 12 C-0.33 12 -0.66 12 -1 12 C-1.02687279 10.18757948 -1.04633715 8.37504767 -1.0625 6.5625 C-1.07410156 5.55316406 -1.08570312 4.54382813 -1.09765625 3.50390625 C-1 1 -1 1 0 0 Z " fill="#494754" transform="translate(71,112)"/>
<path d="M0 0 C0.99 0 1.98 0 3 0 C3.66 1.98 4.32 3.96 5 6 C4.34 6 3.68 6 3 6 C2.67 5.34 2.34 4.68 2 4 C-0.02463255 3.34786708 -0.02463255 3.34786708 -2 3 C-1 1 -1 1 0 0 Z " fill="#23202D" transform="translate(85,100)"/>
<path d="M0 0 C0 1.65 0 3.3 0 5 C-0.66 4.67 -1.32 4.34 -2 4 C-2 3.34 -2 2.68 -2 2 C-3.98 2.33 -5.96 2.66 -8 3 C-4.93882432 0.37613513 -4.26826873 0 0 0 Z " fill="#2A2736" transform="translate(72,93)"/>
<path d="M0 0 C0.33 0 0.66 0 1 0 C1 2.97 1 5.94 1 9 C0.01 9 -0.98 9 -2 9 C-2 7.68 -2 6.36 -2 5 C-1.34 5 -0.68 5 0 5 C-0.2784375 4.0409375 -0.2784375 4.0409375 -0.5625 3.0625 C-0.7790625 2.0415625 -0.7790625 2.0415625 -1 1 C-0.67 0.67 -0.34 0.34 0 0 Z " fill="#5BD8FD" transform="translate(45,177)"/>
<path d="M0 0 C0.66 0 1.32 0 2 0 C2 0.66 2 1.32 2 2 C2.66 2 3.32 2 4 2 C4 3.32 4 4.64 4 6 C3.34 6 2.68 6 2 6 C1.67 6.66 1.34 7.32 1 8 C-0.35439668 5.29120665 -0.06501451 2.99066732 0 0 Z " fill="#151121" transform="translate(135,171)"/>
<path d="M0 0 C0.66 0.33 1.32 0.66 2 1 C2.625 3.5625 2.625 3.5625 3 6 C1.68 6 0.36 6 -1 6 C-0.67 4.02 -0.34 2.04 0 0 Z " fill="#FB87B7" transform="translate(10,128)"/>
<path d="M0 0 C0.33 0 0.66 0 1 0 C0.67 3.3 0.34 6.6 0 10 C-2.475 9.01 -2.475 9.01 -5 8 C-4.360625 7.608125 -3.72125 7.21625 -3.0625 6.8125 C-0.56221181 4.61527704 -0.35049575 3.24208567 0 0 Z " fill="#43404B" transform="translate(149,107)"/>
<path d="M0 0 C0.66 0.66 1.32 1.32 2 2 C1.75 4.0625 1.75 4.0625 1 6 C0.01 6.495 0.01 6.495 -1 7 C-1 6.34 -1 5.68 -1 5 C-1.66 4.67 -2.32 4.34 -3 4 C-2.67 3.34 -2.34 2.68 -2 2 C-1.34 2 -0.68 2 0 2 C0 1.34 0 0.68 0 0 Z " fill="#252330" transform="translate(141,112)"/>
<path d="M0 0 C0 3 0 3 -2.5 5.6875 C-3.325 6.450625 -4.15 7.21375 -5 8 C-5.66 7.67 -6.32 7.34 -7 7 C-2.25 1.125 -2.25 1.125 0 0 Z " fill="#FDE9F2" transform="translate(60,88)"/>
<path d="M0 0 C0.99 0 1.98 0 3 0 C3 1.98 3 3.96 3 6 C2.01 5.67 1.02 5.34 0 5 C0 3.35 0 1.7 0 0 Z " fill="#C1F1FE" transform="translate(50,176)"/>
<path d="M0 0 C1.9375 0.8125 1.9375 0.8125 4 2 C4.33 2.99 4.66 3.98 5 5 C5.66 5 6.32 5 7 5 C7 5.66 7 6.32 7 7 C6.01 7 5.02 7 4 7 C3.67 6.01 3.34 5.02 3 4 C2.01 3.34 1.02 2.68 0 2 C0 1.34 0 0.68 0 0 Z " fill="#F9BFDA" transform="translate(185,37)"/>
</svg>
