<?xml version="1.0" encoding="UTF-8"?>
<svg version="1.1" xmlns="http://www.w3.org/2000/svg" width="256" height="256">
<path d="M0 0 C1.15523163 -0.00860046 2.31046326 -0.01720093 3.5007019 -0.02606201 C4.774487 -0.03032196 6.04827209 -0.03458191 7.36065674 -0.03897095 C8.71080741 -0.04687149 10.06095597 -0.05514041 11.41110229 -0.06375122 C15.85162334 -0.08997929 20.29215385 -0.1052807 24.73272705 -0.11953735 C26.26118221 -0.12489692 27.78963731 -0.13027442 29.31809235 -0.13566971 C35.67643288 -0.15730055 42.03477086 -0.17603691 48.39313889 -0.1872921 C57.50578458 -0.20352858 66.61800367 -0.23669617 75.73048854 -0.29369295 C82.13736374 -0.3324001 88.54412488 -0.35192574 94.95111394 -0.35721266 C98.77779142 -0.36086544 102.60401399 -0.37287764 106.43056488 -0.4053154 C110.03238471 -0.43540991 113.63347476 -0.4417036 117.23539352 -0.42993164 C119.18329451 -0.42960601 121.13115054 -0.4540633 123.07888794 -0.47930908 C132.63077499 -0.41119382 132.63077499 -0.41119382 136.33068848 2.56536865 C141.00040618 7.98546944 139.85905005 14.6676336 139.91094971 21.5015564 C139.92747858 23.09610623 139.95472856 24.69058289 139.99298096 26.28475952 C140.04799312 28.5904867 140.06966022 30.89447844 140.08428955 33.20077515 C140.10695892 33.90724182 140.1296283 34.6137085 140.15298462 35.34158325 C140.13658937 39.21769813 139.55363706 41.62358147 137.15313721 44.58847046 C133.41375528 48.28911326 131.54991926 48.26385779 126.34210205 48.24179077 C125.1510083 48.22922241 125.1510083 48.22922241 123.93585205 48.21640015 C123.13405518 48.21188843 122.3322583 48.20737671 121.50616455 48.20272827 C119.52436199 48.19093183 117.54259772 48.1729962 115.56085205 48.15390015 C115.56085205 50.79390015 115.56085205 53.43390015 115.56085205 56.15390015 C116.18423965 56.13169403 116.80762726 56.10948792 117.4499054 56.08660889 C123.95464576 55.86489213 130.45830969 55.714368 136.96588135 55.60458374 C139.39210621 55.55437817 141.81802974 55.48619568 144.2432251 55.39950562 C147.73657493 55.27778611 151.22592084 55.22141031 154.7210083 55.17733765 C155.80044205 55.12572479 156.87987579 55.07411194 157.99201965 55.02093506 C162.52481705 55.01758026 165.38617522 55.015699 168.73677063 58.26225281 C170.54960639 60.81818971 172.08612879 63.39127989 173.56085205 66.15390015 C174.1761377 67.11868286 174.79142334 68.08346558 175.425354 69.07748413 C175.87870117 69.84391235 176.33204834 70.61034058 176.7991333 71.3999939 C177.56386963 72.68486694 177.56386963 72.68486694 178.34405518 73.99569702 C179.10105713 75.28057007 179.10105713 75.28057007 179.87335205 76.59140015 C180.91053073 78.34044316 181.94826674 80.08915584 182.9866333 81.8374939 C183.43434082 82.59602661 183.88204834 83.35455933 184.34332275 84.13607788 C185.36982469 85.83730878 186.45870132 87.50067404 187.56085205 89.15390015 C188.02223501 92.70034544 187.93119026 96.26813815 187.93585205 99.84140015 C187.96034424 100.81013062 187.98483643 101.77886108 188.0100708 102.77694702 C188.04041651 110.25716377 186.52869809 115.34824111 181.92803955 121.24765015 C177.78307427 125.15390015 177.78307427 125.15390015 175.56085205 125.15390015 C175.56085205 155.18390015 175.56085205 185.21390015 175.56085205 216.15390015 C179.19085205 216.15390015 182.82085205 216.15390015 186.56085205 216.15390015 C188.44404473 218.03709283 187.6913949 221.27320152 187.69366455 223.77890015 C187.69462128 224.44099487 187.695578 225.1030896 187.69656372 225.7852478 C187.69724531 227.18742976 187.69539247 228.58961485 187.69122314 229.99179077 C187.68587451 232.14485728 187.69116875 234.29771517 187.6975708 236.45077515 C187.69691002 237.81015061 187.69562884 239.16952594 187.69366455 240.52890015 C187.69253662 241.77413452 187.69140869 243.0193689 187.69024658 244.30233765 C187.56085205 247.15390015 187.56085205 247.15390015 186.56085205 248.15390015 C183.40286865 248.25420086 180.26667382 248.28827242 177.10821533 248.28088379 C176.10351259 248.28244378 175.09880985 248.28400377 174.06366158 248.28561103 C170.66948134 248.28962574 167.27534519 248.28642957 163.88116455 248.28329468 C161.4590248 248.28464851 159.03688525 248.28642834 156.61474609 248.28860474 C150.70228322 248.29270511 144.78983196 248.29208577 138.8773694 248.2891921 C134.07429176 248.28693823 129.27121767 248.28662546 124.46813965 248.28771591 C123.785825 248.28786914 123.10351034 248.28802238 122.40051949 248.28818025 C121.01462475 248.28849996 119.62873002 248.28882418 118.24283528 248.28915285 C105.2322029 248.29200777 92.22157755 248.28872043 79.21094632 248.28335248 C68.03526033 248.27888443 56.85958473 248.27966036 45.68389893 248.28427124 C32.72138994 248.28961679 19.75888712 248.29173307 6.79637718 248.28865898 C5.41543961 248.28834041 4.03450203 248.28802604 2.65356445 248.28771591 C1.97402903 248.28756164 1.2944936 248.28740736 0.59436619 248.28724841 C-4.20568608 248.2863832 -9.00573446 248.28784622 -13.80578613 248.29019547 C-20.26038921 248.29328489 -26.71497723 248.29110095 -33.16957855 248.28530121 C-35.54606849 248.28397289 -37.92256008 248.28436893 -40.29904938 248.28656387 C-43.52822614 248.28927258 -46.75733863 248.28589769 -49.98651123 248.28088379 C-51.41687871 248.28422987 -51.41687871 248.28422987 -52.8761425 248.28764355 C-59.32499815 248.26804995 -59.32499815 248.26804995 -60.43914795 247.15390015 C-60.53927196 244.94739359 -60.56995975 242.73767628 -60.57196045 240.52890015 C-60.57291718 239.86680542 -60.5738739 239.20471069 -60.57485962 238.52255249 C-60.57554121 237.12037054 -60.57368837 235.71818544 -60.56951904 234.31600952 C-60.56417041 232.16294301 -60.56946465 230.01008512 -60.5758667 227.85702515 C-60.57520591 226.49764968 -60.57392474 225.13827435 -60.57196045 223.77890015 C-60.57083252 222.53366577 -60.56970459 221.2884314 -60.56854248 220.00546265 C-60.43914795 217.15390015 -60.43914795 217.15390015 -59.43914795 216.15390015 C-55.80914795 216.15390015 -52.17914795 216.15390015 -48.43914795 216.15390015 C-48.43914795 186.12390015 -48.43914795 156.09390015 -48.43914795 125.15390015 C-49.75914795 124.49390015 -51.07914795 123.83390015 -52.43914795 123.15390015 C-54.07196045 121.6031189 -54.07196045 121.6031189 -55.56414795 119.84140015 C-56.06172607 119.26776733 -56.5593042 118.69413452 -57.07196045 118.1031189 C-62.19292041 110.80209313 -62.14835589 101.00064666 -61.20721436 92.43319702 C-58.68726137 81.67413522 -50.76053784 71.94594476 -44.43914795 63.15390015 C-44.12503464 62.53316116 -43.81092133 61.91242218 -43.48728943 61.27287292 C-42.3066641 59.14689175 -41.3133562 57.71462698 -39.43914795 56.15390015 C-35.55192616 55.1803788 -31.78023074 55.33817021 -27.7946167 55.4703064 C-26.10723137 55.48516335 -26.10723137 55.48516335 -24.38575745 55.50032043 C-20.79805311 55.53945925 -17.21342508 55.62728916 -13.62664795 55.71640015 C-11.19244739 55.75151425 -8.7581988 55.78345307 -6.32391357 55.81210327 C-0.36127809 55.88921961 5.59956723 56.00630596 11.56085205 56.15390015 C11.56085205 53.51390015 11.56085205 50.87390015 11.56085205 48.15390015 C10.40327393 48.21190796 9.2456958 48.26991577 8.05303955 48.3296814 C6.51401757 48.3766028 4.97495172 48.4221004 3.43585205 48.46640015 C2.67530518 48.50829468 1.9147583 48.55018921 1.13116455 48.59335327 C-3.03508745 48.68314319 -5.63404019 48.44273261 -8.93133545 45.7593689 C-13.99261081 40.50100337 -12.73670755 33.72422732 -12.78924561 26.8062439 C-12.80577448 25.21169407 -12.83302446 23.6172174 -12.87127686 22.02304077 C-12.92628902 19.71731359 -12.94795612 17.41332185 -12.96258545 15.10702515 C-12.98525482 14.40055847 -13.00792419 13.6940918 -13.03128052 12.96621704 C-13.01488527 9.09010216 -12.43193296 6.68421882 -10.03143311 3.71932983 C-6.45083118 0.17582211 -4.90473815 0.02711314 0 0 Z M19.56085205 48.15390015 C19.56085205 50.79390015 19.56085205 53.43390015 19.56085205 56.15390015 C48.60085205 56.15390015 77.64085205 56.15390015 107.56085205 56.15390015 C107.56085205 53.51390015 107.56085205 50.87390015 107.56085205 48.15390015 C78.52085205 48.15390015 49.48085205 48.15390015 19.56085205 48.15390015 Z M-36.1774292 65.88827515 C-38.00401611 68.55622548 -39.19424713 71.16909343 -40.43914795 74.15390015 C-41.47211737 76.02501373 -42.55446615 77.86007636 -43.65032959 79.69491577 C-45.29359447 82.48745191 -46.85853316 85.32543158 -48.43914795 88.15390015 C-38.86914795 88.15390015 -29.29914795 88.15390015 -19.43914795 88.15390015 C-18.11914795 84.75077515 -16.79914795 81.34765015 -15.43914795 77.84140015 C-15.0214917 76.7723645 -14.60383545 75.70332886 -14.17352295 74.60189819 C-13.8486792 73.75667603 -13.52383545 72.91145386 -13.18914795 72.0406189 C-12.8539917 71.17654419 -12.51883545 70.31246948 -12.17352295 69.42221069 C-11.28514102 67.07558041 -11.28514102 67.07558041 -11.43914795 64.15390015 C-24.27289006 62.54279578 -24.27289006 62.54279578 -36.1774292 65.88827515 Z M-1.43914795 64.15390015 C-2.75914795 67.55702515 -4.07914795 70.96015015 -5.43914795 74.46640015 C-5.8568042 75.53543579 -6.27446045 76.60447144 -6.70477295 77.7059021 C-7.0296167 78.55112427 -7.35446045 79.39634644 -7.68914795 80.2671814 C-8.0243042 81.1312561 -8.35946045 81.99533081 -8.70477295 82.8855896 C-9.59315487 85.23221988 -9.59315487 85.23221988 -9.43914795 88.15390015 C0.13085205 88.15390015 9.70085205 88.15390015 19.56085205 88.15390015 C22.11715248 80.50246733 22.11715248 80.50246733 24.24835205 72.77890015 C24.62540283 71.28229858 24.62540283 71.28229858 25.0100708 69.75546265 C25.66441246 67.10794694 25.66441246 67.10794694 25.56085205 64.15390015 C16.65085205 64.15390015 7.74085205 64.15390015 -1.43914795 64.15390015 Z M35.56085205 64.15390015 C33.00455162 71.80533296 33.00455162 71.80533296 30.87335205 79.52890015 C30.62198486 80.52663452 30.37061768 81.5243689 30.1116333 82.55233765 C29.45729164 85.19985336 29.45729164 85.19985336 29.56085205 88.15390015 C39.46085205 88.15390015 49.36085205 88.15390015 59.56085205 88.15390015 C59.56085205 80.23390015 59.56085205 72.31390015 59.56085205 64.15390015 C51.64085205 64.15390015 43.72085205 64.15390015 35.56085205 64.15390015 Z M67.56085205 64.15390015 C67.56085205 72.07390015 67.56085205 79.99390015 67.56085205 88.15390015 C77.46085205 88.15390015 87.36085205 88.15390015 97.56085205 88.15390015 C95.97341891 79.27675918 95.97341891 79.27675918 93.99835205 70.52890015 C93.74956299 69.52600952 93.50077393 68.5231189 93.2444458 67.48983765 C92.7814908 65.2145241 92.7814908 65.2145241 91.56085205 64.15390015 C89.78013959 64.06663792 87.99602065 64.04690973 86.2131958 64.0562439 C84.75514526 64.05999023 84.75514526 64.05999023 83.26763916 64.06381226 C81.40184204 64.07746826 81.40184204 64.07746826 79.49835205 64.09140015 C75.55897705 64.11202515 71.61960205 64.13265015 67.56085205 64.15390015 Z M101.56085205 64.15390015 C103.14828519 73.03104111 103.14828519 73.03104111 105.12335205 81.77890015 C105.37214111 82.78179077 105.62093018 83.7846814 105.8772583 84.81796265 C106.34021331 87.09327619 106.34021331 87.09327619 107.56085205 88.15390015 C109.70644032 88.2416562 111.85489626 88.26085234 114.0022583 88.2515564 C115.30743408 88.24833374 116.61260986 88.24511108 117.95733643 88.24179077 C119.34600895 88.23343416 120.73468082 88.2249692 122.12335205 88.21640015 C123.51592861 88.21138681 124.90850687 88.20682361 126.30108643 88.20272827 C129.72105075 88.19089448 133.14093049 88.17440895 136.56085205 88.15390015 C136.01780928 84.44815762 135.31846943 81.10937649 133.9319458 77.63046265 C133.65020508 76.91454956 133.36846436 76.19863647 133.07818604 75.46102905 C132.54366821 74.13337524 132.54366821 74.13337524 131.99835205 72.77890015 C130.86397705 69.93265015 129.72960205 67.08640015 128.56085205 64.15390015 C119.65085205 64.15390015 110.74085205 64.15390015 101.56085205 64.15390015 Z M138.56085205 64.15390015 C139.16623993 67.51341316 139.99409286 70.60274378 141.1897583 73.7984314 C141.47149902 74.55744751 141.75323975 75.31646362 142.04351807 76.09848022 C142.39986328 77.0448938 142.7562085 77.99130737 143.12335205 78.96640015 C144.25772705 81.99827515 145.39210205 85.03015015 146.56085205 88.15390015 C156.13085205 88.15390015 165.70085205 88.15390015 175.56085205 88.15390015 C172.68795026 83.0125975 172.68795026 83.0125975 169.7210083 77.93515015 C168.35972571 75.62650816 167.28324217 73.48829545 166.2444458 70.99765015 C164.63909132 67.66234651 163.71956177 66.1545665 160.56085205 64.15390015 C153.311911 62.93733497 145.84909302 63.54786757 138.56085205 64.15390015 Z M-52.43914795 96.15390015 C-52.5860758 106.21589052 -52.5860758 106.21589052 -47.9743042 114.7984314 C-43.22052062 118.83159252 -40.0378902 119.50982764 -33.97821045 119.4312439 C-30.21454393 119.02013571 -28.22124607 117.67103655 -25.43914795 115.15390015 C-20.24774978 108.5594214 -20.43914795 104.61845106 -20.43914795 96.15390015 C-30.99914795 96.15390015 -41.55914795 96.15390015 -52.43914795 96.15390015 Z M-12.43914795 96.15390015 C-12.5860758 106.21589052 -12.5860758 106.21589052 -7.9743042 114.7984314 C-3.22052062 118.83159252 -0.0378902 119.50982764 6.02178955 119.4312439 C9.78545607 119.02013571 11.77875393 117.67103655 14.56085205 115.15390015 C19.75225022 108.5594214 19.56085205 104.61845106 19.56085205 96.15390015 C9.00085205 96.15390015 -1.55914795 96.15390015 -12.43914795 96.15390015 Z M27.56085205 96.15390015 C27.4139242 106.21589052 27.4139242 106.21589052 32.0256958 114.7984314 C36.77947938 118.83159252 39.9621098 119.50982764 46.02178955 119.4312439 C49.78545607 119.02013571 51.77875393 117.67103655 54.56085205 115.15390015 C59.75225022 108.5594214 59.56085205 104.61845106 59.56085205 96.15390015 C49.00085205 96.15390015 38.44085205 96.15390015 27.56085205 96.15390015 Z M67.56085205 96.15390015 C67.4139242 106.21589052 67.4139242 106.21589052 72.0256958 114.7984314 C76.77947938 118.83159252 79.9621098 119.50982764 86.02178955 119.4312439 C89.78545607 119.02013571 91.77875393 117.67103655 94.56085205 115.15390015 C99.75225022 108.5594214 99.56085205 104.61845106 99.56085205 96.15390015 C89.00085205 96.15390015 78.44085205 96.15390015 67.56085205 96.15390015 Z M107.56085205 96.15390015 C107.4139242 106.21589052 107.4139242 106.21589052 112.0256958 114.7984314 C116.77947938 118.83159252 119.9621098 119.50982764 126.02178955 119.4312439 C129.78545607 119.02013571 131.77875393 117.67103655 134.56085205 115.15390015 C139.75225022 108.5594214 139.56085205 104.61845106 139.56085205 96.15390015 C129.00085205 96.15390015 118.44085205 96.15390015 107.56085205 96.15390015 Z M147.56085205 96.15390015 C147.4139242 106.21589052 147.4139242 106.21589052 152.0256958 114.7984314 C156.77947938 118.83159252 159.9621098 119.50982764 166.02178955 119.4312439 C169.78545607 119.02013571 171.77875393 117.67103655 174.56085205 115.15390015 C179.75225022 108.5594214 179.56085205 104.61845106 179.56085205 96.15390015 C169.00085205 96.15390015 158.44085205 96.15390015 147.56085205 96.15390015 Z M-22.4899292 123.64608765 C-28.13144599 128.01006657 -33.19629791 127.49545923 -40.43914795 128.15390015 C-40.43914795 157.19390015 -40.43914795 186.23390015 -40.43914795 216.15390015 C-35.15914795 216.15390015 -29.87914795 216.15390015 -24.43914795 216.15390015 C-24.42980225 214.60074097 -24.42045654 213.04758179 -24.41082764 211.44735718 C-24.37077027 205.65101084 -24.30496696 199.85518647 -24.23162842 194.05917358 C-24.20351007 191.55696347 -24.1822504 189.05466603 -24.16815186 186.55233765 C-24.14659636 182.94251089 -24.09987874 179.33372395 -24.04852295 175.72421265 C-24.04729431 174.6165152 -24.04606567 173.50881775 -24.0447998 172.36755371 C-23.83787508 161.24043544 -20.61666265 153.42484278 -12.95477295 145.35702515 C-3.68315888 137.23716438 6.63413437 136.49478607 18.41290283 136.98788452 C27.67606318 137.7038369 34.60903857 143.3578578 40.56085205 150.15390015 C53.34767308 170.44857939 47.05205544 189.18767965 47.56085205 216.15390015 C87.16085205 216.15390015 126.76085205 216.15390015 167.56085205 216.15390015 C167.56085205 187.11390015 167.56085205 158.07390015 167.56085205 128.15390015 C162.11585205 127.65890015 162.11585205 127.65890015 156.56085205 127.15390015 C151.56994139 125.11535917 148.10154098 123.2847039 144.56085205 119.15390015 C142.08190249 120.25565551 140.23630745 121.42019315 138.12335205 123.15390015 C131.6342517 128.21856383 124.48116197 127.88775937 116.56085205 127.15390015 C111.58996814 125.67709849 107.94299745 123.09973645 104.56085205 119.15390015 C102.08190249 120.25565551 100.23630745 121.42019315 98.12335205 123.15390015 C91.6342517 128.21856383 84.48116197 127.88775937 76.56085205 127.15390015 C71.58996814 125.67709849 67.94299745 123.09973645 64.56085205 119.15390015 C62.08190249 120.25565551 60.23630745 121.42019315 58.12335205 123.15390015 C51.6342517 128.21856383 44.48116197 127.88775937 36.56085205 127.15390015 C31.58996814 125.67709849 27.94299745 123.09973645 24.56085205 119.15390015 C22.08190249 120.25565551 20.23630745 121.42019315 18.12335205 123.15390015 C11.6342517 128.21856383 4.48116197 127.88775937 -3.43914795 127.15390015 C-8.52267183 125.64363425 -11.85023791 123.01888019 -15.43914795 119.15390015 C-18.64370227 119.15390015 -20.22368991 121.5377212 -22.4899292 123.64608765 Z " fill="#B3404A" transform="translate(64.43914794921875,3.846099853515625)"/>
<path d="M0 0 C1.42291351 0.00303635 1.42291351 0.00303635 2.87457275 0.00613403 C3.86797668 0.00438171 4.86138062 0.00262939 5.8848877 0.00082397 C9.18615437 -0.00359654 12.48736798 -0.00065585 15.78863525 0.00271606 C18.07167572 0.00204308 20.35471612 0.00107311 22.63775635 -0.00018311 C27.42959269 -0.00166035 32.22141044 0.00049533 37.01324463 0.00515747 C43.1708016 0.01085477 49.32831499 0.0075759 55.48587036 0.00158501 C60.20229422 -0.00201989 64.91870767 -0.00088235 69.63513184 0.0017128 C71.90625005 0.00238227 74.1773692 0.00155296 76.44848633 -0.00076675 C79.61658247 -0.00329211 82.78460698 0.00054567 85.95269775 0.00613403 C86.90130676 0.0041098 87.84991577 0.00208557 88.82727051 0 C95.29937302 0.02126633 95.29937302 0.02126633 96.41363525 1.13552856 C96.51319803 3.30815537 96.54163244 5.48405962 96.54302979 7.65896606 C96.54565826 8.68090057 96.54565826 8.68090057 96.54833984 9.72348022 C96.55275768 11.98585523 96.54982063 14.2481527 96.54644775 16.51052856 C96.54712081 18.07612117 96.54809086 19.64171367 96.54934692 21.20730591 C96.5508238 24.49263501 96.54866967 27.77793698 96.54400635 31.06326294 C96.53830906 35.28373372 96.54158812 39.50414093 96.54757881 43.72460938 C96.5511847 46.95869428 96.55004571 50.19276401 96.54745102 53.42684937 C96.54678183 54.98344938 96.54760991 56.54005075 96.54993057 58.09664917 C96.55245755 60.26850052 96.5486159 62.44024752 96.54302979 64.61209106 C96.54223419 65.85039673 96.5414386 67.08870239 96.5406189 68.36453247 C96.41363525 71.13552856 96.41363525 71.13552856 95.41363525 72.13552856 C92.25287182 72.23622635 89.11391498 72.2716688 85.95269775 72.2649231 C84.95929382 72.26667542 83.96588989 72.26842773 82.94238281 72.27023315 C79.64111613 72.27465367 76.33990253 72.27171298 73.03863525 72.26834106 C70.75559478 72.26901405 68.47255438 72.26998402 66.18951416 72.27124023 C61.39767781 72.27271748 56.60586007 72.2705618 51.81402588 72.26589966 C45.65646891 72.26020236 39.49895552 72.26348122 33.34140015 72.26947212 C28.62497628 72.27307702 23.90856284 72.27193948 19.19213867 72.26934433 C16.92102046 72.26867486 14.64990131 72.26950417 12.37878418 72.27182388 C9.21068803 72.27434924 6.04266353 72.27051146 2.87457275 72.2649231 C1.92596375 72.26694733 0.97735474 72.26897156 0 72.27105713 C-6.47210251 72.2497908 -6.47210251 72.2497908 -7.58636475 71.13552856 C-7.68592752 68.96290176 -7.71436193 66.7869975 -7.71575928 64.61209106 C-7.7175116 63.93080139 -7.71926392 63.24951172 -7.72106934 62.5475769 C-7.72548717 60.28520189 -7.72255012 58.02290443 -7.71917725 55.76052856 C-7.71985031 54.19493596 -7.72082035 52.62934346 -7.72207642 51.06375122 C-7.7235533 47.77842212 -7.72139916 44.49312015 -7.71673584 41.20779419 C-7.71103855 36.9873234 -7.71431761 32.7669162 -7.7203083 28.54644775 C-7.72391419 25.31236284 -7.72277521 22.07829312 -7.72018051 18.84420776 C-7.71951132 17.28760775 -7.7203394 15.73100638 -7.72266006 14.17440796 C-7.72518705 12.00255661 -7.72134539 9.8308096 -7.71575928 7.65896606 C-7.71496368 6.4206604 -7.71416809 5.18235474 -7.71334839 3.90652466 C-7.47272716 -1.34423427 -4.57016628 0.01501686 0 0 Z M16.41363525 24.13552856 C16.41363525 32.05552856 16.41363525 39.97552856 16.41363525 48.13552856 C34.89363525 48.13552856 53.37363525 48.13552856 72.41363525 48.13552856 C72.41363525 40.21552856 72.41363525 32.29552856 72.41363525 24.13552856 C53.93363525 24.13552856 35.45363525 24.13552856 16.41363525 24.13552856 Z " fill="#F3B1AF" transform="translate(127.58636474609375,139.86447143554688)"/>
<path d="M0 0 C1.11052734 -0.00563965 2.22105469 -0.0112793 3.36523438 -0.01708984 C5.20118164 -0.01101715 5.20118164 -0.01101715 7.07421875 -0.00482178 C8.35876953 -0.00832642 9.64332031 -0.01183105 10.96679688 -0.01544189 C14.49566399 -0.02457883 18.02441448 -0.02101633 21.55328369 -0.01468372 C25.24125489 -0.00963045 28.92921592 -0.0143133 32.6171875 -0.01745605 C38.81121621 -0.02109767 45.00519727 -0.0162915 51.19921875 -0.0067749 C58.36675332 0.00411004 65.53417412 0.0005846 72.70170593 -0.01042771 C78.848658 -0.01949505 84.99557576 -0.02078859 91.14253235 -0.01555037 C94.81688299 -0.01242761 98.49118011 -0.01202968 102.16552734 -0.01862335 C106.26016002 -0.02545758 110.35459565 -0.01599313 114.44921875 -0.00482178 C115.67318359 -0.00887024 116.89714844 -0.0129187 118.15820312 -0.01708984 C119.26873047 -0.0114502 120.37925781 -0.00581055 121.5234375 0 C122.49240967 0.00075405 123.46138184 0.0015081 124.4597168 0.002285 C126.76171875 0.25396729 126.76171875 0.25396729 128.76171875 2.25396729 C129.02050781 5.01959229 129.02050781 5.01959229 129.02734375 8.50396729 C129.02992188 9.75177979 129.0325 10.99959229 129.03515625 12.28521729 C129.02742187 13.59490479 129.0196875 14.90459229 129.01171875 16.25396729 C129.01945313 17.56365479 129.0271875 18.87334229 129.03515625 20.22271729 C129.03257812 21.47052979 129.03 22.71834229 129.02734375 24.00396729 C129.02508789 25.15381104 129.02283203 26.30365479 129.02050781 27.48834229 C128.76171875 30.25396729 128.76171875 30.25396729 126.76171875 32.25396729 C124.4597168 32.50564957 124.4597168 32.50564957 121.5234375 32.50793457 C120.41291016 32.51357422 119.30238281 32.51921387 118.15820312 32.52502441 C116.32225586 32.51895172 116.32225586 32.51895172 114.44921875 32.51275635 C113.16466797 32.51626099 111.88011719 32.51976562 110.55664062 32.52337646 C107.02777351 32.5325134 103.49902302 32.5289509 99.97015381 32.52261829 C96.28218261 32.51756502 92.59422158 32.52224787 88.90625 32.52539062 C82.71222129 32.52903224 76.51824023 32.52422607 70.32421875 32.51470947 C63.15668418 32.50382453 55.98926338 32.50734997 48.82173157 32.51836228 C42.6747795 32.52742962 36.52786174 32.52872316 30.38090515 32.52348495 C26.70655451 32.52036218 23.03225739 32.51996425 19.35791016 32.52655792 C15.26327748 32.53339215 11.16884185 32.5239277 7.07421875 32.51275635 C5.85025391 32.51680481 4.62628906 32.52085327 3.36523438 32.52502441 C2.25470703 32.51938477 1.14417969 32.51374512 0 32.50793457 C-0.96897217 32.50718052 -1.93794434 32.50642647 -2.9362793 32.50564957 C-5.23828125 32.25396729 -5.23828125 32.25396729 -7.23828125 30.25396729 C-7.49707031 27.48834229 -7.49707031 27.48834229 -7.50390625 24.00396729 C-7.50648437 22.75615479 -7.5090625 21.50834229 -7.51171875 20.22271729 C-7.50398438 18.91302979 -7.49625 17.60334229 -7.48828125 16.25396729 C-7.49601562 14.94427979 -7.50375 13.63459229 -7.51171875 12.28521729 C-7.50914063 11.03740479 -7.5065625 9.78959229 -7.50390625 8.50396729 C-7.50165039 7.35412354 -7.49939453 6.20427979 -7.49707031 5.01959229 C-7.01861943 -0.09351296 -4.48529891 0.00349045 0 0 Z " fill="#F3B1AF" transform="translate(67.23828125,11.74603271484375)"/>
<path d="M0 0 C76.56 0 153.12 0 232 0 C232 5.28 232 10.56 232 16 C155.44 16 78.88 16 0 16 C0 10.72 0 5.44 0 0 Z " fill="#F4B2B0" transform="translate(12,228)"/>
<path d="M0 0 C1.42291351 0.00303635 1.42291351 0.00303635 2.87457275 0.00613403 C3.86797668 0.00438171 4.86138062 0.00262939 5.8848877 0.00082397 C9.18615437 -0.00359654 12.48736798 -0.00065585 15.78863525 0.00271606 C18.07167572 0.00204308 20.35471612 0.00107311 22.63775635 -0.00018311 C27.42959269 -0.00166035 32.22141044 0.00049533 37.01324463 0.00515747 C43.1708016 0.01085477 49.32831499 0.0075759 55.48587036 0.00158501 C60.20229422 -0.00201989 64.91870767 -0.00088235 69.63513184 0.0017128 C71.90625005 0.00238227 74.1773692 0.00155296 76.44848633 -0.00076675 C79.61658247 -0.00329211 82.78460698 0.00054567 85.95269775 0.00613403 C86.90130676 0.0041098 87.84991577 0.00208557 88.82727051 0 C95.29937302 0.02126633 95.29937302 0.02126633 96.41363525 1.13552856 C96.51319803 3.30815537 96.54163244 5.48405962 96.54302979 7.65896606 C96.54565826 8.68090057 96.54565826 8.68090057 96.54833984 9.72348022 C96.55275768 11.98585523 96.54982063 14.2481527 96.54644775 16.51052856 C96.54712081 18.07612117 96.54809086 19.64171367 96.54934692 21.20730591 C96.5508238 24.49263501 96.54866967 27.77793698 96.54400635 31.06326294 C96.53830906 35.28373372 96.54158812 39.50414093 96.54757881 43.72460938 C96.5511847 46.95869428 96.55004571 50.19276401 96.54745102 53.42684937 C96.54678183 54.98344938 96.54760991 56.54005075 96.54993057 58.09664917 C96.55245755 60.26850052 96.5486159 62.44024752 96.54302979 64.61209106 C96.54223419 65.85039673 96.5414386 67.08870239 96.5406189 68.36453247 C96.41363525 71.13552856 96.41363525 71.13552856 95.41363525 72.13552856 C92.25287182 72.23622635 89.11391498 72.2716688 85.95269775 72.2649231 C84.95929382 72.26667542 83.96588989 72.26842773 82.94238281 72.27023315 C79.64111613 72.27465367 76.33990253 72.27171298 73.03863525 72.26834106 C70.75559478 72.26901405 68.47255438 72.26998402 66.18951416 72.27124023 C61.39767781 72.27271748 56.60586007 72.2705618 51.81402588 72.26589966 C45.65646891 72.26020236 39.49895552 72.26348122 33.34140015 72.26947212 C28.62497628 72.27307702 23.90856284 72.27193948 19.19213867 72.26934433 C16.92102046 72.26867486 14.64990131 72.26950417 12.37878418 72.27182388 C9.21068803 72.27434924 6.04266353 72.27051146 2.87457275 72.2649231 C1.92596375 72.26694733 0.97735474 72.26897156 0 72.27105713 C-6.47210251 72.2497908 -6.47210251 72.2497908 -7.58636475 71.13552856 C-7.68592752 68.96290176 -7.71436193 66.7869975 -7.71575928 64.61209106 C-7.7175116 63.93080139 -7.71926392 63.24951172 -7.72106934 62.5475769 C-7.72548717 60.28520189 -7.72255012 58.02290443 -7.71917725 55.76052856 C-7.71985031 54.19493596 -7.72082035 52.62934346 -7.72207642 51.06375122 C-7.7235533 47.77842212 -7.72139916 44.49312015 -7.71673584 41.20779419 C-7.71103855 36.9873234 -7.71431761 32.7669162 -7.7203083 28.54644775 C-7.72391419 25.31236284 -7.72277521 22.07829312 -7.72018051 18.84420776 C-7.71951132 17.28760775 -7.7203394 15.73100638 -7.72266006 14.17440796 C-7.72518705 12.00255661 -7.72134539 9.8308096 -7.71575928 7.65896606 C-7.71496368 6.4206604 -7.71416809 5.18235474 -7.71334839 3.90652466 C-7.47272716 -1.34423427 -4.57016628 0.01501686 0 0 Z M0.41363525 8.13552856 C0.41363525 26.61552856 0.41363525 45.09552856 0.41363525 64.13552856 C29.45363525 64.13552856 58.49363525 64.13552856 88.41363525 64.13552856 C88.41363525 45.65552856 88.41363525 27.17552856 88.41363525 8.13552856 C59.37363525 8.13552856 30.33363525 8.13552856 0.41363525 8.13552856 Z " fill="#B23F49" transform="translate(127.58636474609375,139.86447143554688)"/>
<path d="M0 0 C0 23.43 0 46.86 0 71 C-7.92 71 -15.84 71 -24 71 C-24.09210709 64.04335588 -24.17166598 57.08884937 -24.21972656 50.13208008 C-24.23977282 47.76840015 -24.26701719 45.40476939 -24.30175781 43.04125977 C-24.35058271 39.63285143 -24.37303948 36.22510197 -24.390625 32.81640625 C-24.41127014 31.76916885 -24.43191528 30.72193146 -24.45318604 29.64295959 C-24.45612323 19.91766038 -21.54835825 12.84624996 -14.9296875 5.73046875 C-10.20078615 1.48977382 -6.33946031 0 0 0 Z " fill="#F3B1AF" transform="translate(72,149)"/>
<path d="M0 0 C8.96156042 1.28022292 13.77484944 4.15075996 19.67578125 10.86328125 C24.10841989 18.01565097 24.41362707 24.51790824 24.29296875 32.71875 C24.28872391 33.81723267 24.28447906 34.91571533 24.28010559 36.04748535 C24.26340661 39.5319136 24.22576996 43.01574861 24.1875 46.5 C24.17244185 48.87238744 24.15875543 51.24478401 24.14648438 53.6171875 C24.1160927 59.4118669 24.05735248 65.20527485 24 71 C16.08 71 8.16 71 0 71 C0 47.57 0 24.14 0 0 Z " fill="#F3B1AF" transform="translate(80,149)"/>
<path d="M0 0 C0.66032227 -0.00350464 1.32064453 -0.00700928 2.00097656 -0.01062012 C4.18825732 -0.01943775 6.37521583 -0.01358837 8.5625 -0.00683594 C10.07942772 -0.00818258 11.59635501 -0.01012311 13.11328125 -0.01263428 C16.29431258 -0.01558558 19.47523169 -0.01128778 22.65625 -0.00195312 C26.73877902 0.00944149 30.82104509 0.00288204 34.90356445 -0.00909805 C38.03647858 -0.01631654 41.16933011 -0.01402879 44.30224609 -0.00884247 C45.80778026 -0.00750594 47.31332007 -0.00915382 48.81884766 -0.01380157 C50.92105212 -0.01886672 53.02282758 -0.01115721 55.125 0 C56.92130859 0.00238678 56.92130859 0.00238678 58.75390625 0.00482178 C61.5625 0.25878906 61.5625 0.25878906 63.5625 2.25878906 C63.76223733 4.96014229 63.84231573 7.55676118 63.828125 10.25878906 C63.83003845 11.05027344 63.8319519 11.84175781 63.83392334 12.65722656 C63.83528518 14.33170896 63.83158882 16.00620191 63.82324219 17.68066406 C63.8125424 20.24861287 63.82313725 22.81586209 63.8359375 25.38378906 C63.8346159 27.00879061 63.83205351 28.63379172 63.828125 30.25878906 C63.83217346 31.02964844 63.83622192 31.80050781 63.84039307 32.59472656 C63.79242132 38.02886774 63.79242132 38.02886774 61.5625 40.25878906 C58.75390625 40.51275635 58.75390625 40.51275635 55.125 40.51757812 C54.1345166 40.52283508 54.1345166 40.52283508 53.12402344 40.52819824 C50.93674268 40.53701588 48.74978417 40.53116649 46.5625 40.52441406 C45.04557228 40.52576071 43.52864499 40.52770124 42.01171875 40.5302124 C38.83068742 40.5331637 35.64976831 40.5288659 32.46875 40.51953125 C28.38622098 40.50813663 24.30395491 40.51469608 20.22143555 40.52667618 C17.08852142 40.53389467 13.95566989 40.53160692 10.82275391 40.52642059 C9.31721974 40.52508406 7.81167993 40.52673194 6.30615234 40.5313797 C4.20394788 40.53644485 2.10217242 40.52873534 0 40.51757812 C-1.19753906 40.51598694 -2.39507812 40.51439575 -3.62890625 40.51275635 C-6.4375 40.25878906 -6.4375 40.25878906 -8.4375 38.25878906 C-8.63723733 35.55743583 -8.71731573 32.96081695 -8.703125 30.25878906 C-8.70503845 29.46730469 -8.7069519 28.67582031 -8.70892334 27.86035156 C-8.71028518 26.18586916 -8.70658882 24.51137621 -8.69824219 22.83691406 C-8.6875424 20.26896525 -8.69813725 17.70171603 -8.7109375 15.13378906 C-8.7096159 13.50878751 -8.70705351 11.8837864 -8.703125 10.25878906 C-8.70717346 9.48792969 -8.71122192 8.71707031 -8.71539307 7.92285156 C-8.65147074 0.6818614 -6.94236623 0.00922442 0 0 Z M-0.4375 8.25878906 C-0.4375 16.17878906 -0.4375 24.09878906 -0.4375 32.25878906 C18.0425 32.25878906 36.5225 32.25878906 55.5625 32.25878906 C55.5625 24.33878906 55.5625 16.41878906 55.5625 8.25878906 C37.0825 8.25878906 18.6025 8.25878906 -0.4375 8.25878906 Z " fill="#B3404A" transform="translate(144.4375,155.7412109375)"/>
<path d="M0 0 C2.64 0 5.28 0 8 0 C8 5.28 8 10.56 8 16 C5.36 16 2.72 16 0 16 C0 10.72 0 5.44 0 0 Z " fill="#B3404A" transform="translate(88,180)"/>
<path d="M0 0 C2.64 0 5.28 0 8 0 C8 5.28 8 10.56 8 16 C5.36 16 2.72 16 0 16 C0 10.72 0 5.44 0 0 Z " fill="#B3404A" transform="translate(56,180)"/>
</svg>
