<?xml version="1.0" encoding="UTF-8"?>
<svg version="1.1" xmlns="http://www.w3.org/2000/svg" width="290" height="174">
<path d="M0 0 C95.7 0 191.4 0 290 0 C290 57.42 290 114.84 290 174 C194.3 174 98.6 174 0 174 C0 116.58 0 59.16 0 0 Z " fill="#C70F2C" transform="translate(0,0)"/>
<path d="M0 0 C42.24 0 84.48 0 128 0 C128 23.1 128 46.2 128 70 C85.76 70 43.52 70 0 70 C0 46.9 0 23.8 0 0 Z " fill="#FCF9FA" transform="translate(162,104)"/>
<path d="M0 0 C42.24 0 84.48 0 128 0 C128 23.1 128 46.2 128 70 C85.76 70 43.52 70 0 70 C0 46.9 0 23.8 0 0 Z " fill="#FCF9FA" transform="translate(0,104)"/>
<path d="M0 0 C42.24 0 84.48 0 128 0 C128 23.1 128 46.2 128 70 C85.76 70 43.52 70 0 70 C0 46.9 0 23.8 0 0 Z " fill="#FCF9F9" transform="translate(162,0)"/>
<path d="M0 0 C42.24 0 84.48 0 128 0 C128 23.1 128 46.2 128 70 C85.76 70 43.52 70 0 70 C0 46.9 0 23.8 0 0 Z " fill="#FCF9F9" transform="translate(0,0)"/>
<path d="M0 0 C11.23809524 5.61904762 11.23809524 5.61904762 15.9765625 8.5390625 C17.04398682 9.19277832 18.11141113 9.84649414 19.21118164 10.52001953 C20.04409225 11.03366058 20.04409225 11.03366058 20.89382935 11.55767822 C23.93540828 13.43290839 26.98535773 15.29442764 30.03515625 17.15625 C30.67490891 17.54708771 31.31466156 17.93792542 31.97380066 18.34060669 C40.95278552 23.81524669 50.01595422 29.14949663 59.07470703 34.49072266 C75.86162921 44.402807 75.86162921 44.402807 81 48 C81 48.33 81 48.66 81 49 C54.27 49 27.54 49 0 49 C0 32.83 0 16.66 0 0 Z " fill="#04226A" transform="translate(174,125)"/>
<path d="M0 0 C0 16.17 0 32.34 0 49 C-26.73 49 -53.46 49 -81 49 C-78.09216064 46.09216064 -75.20026933 44.18774909 -71.69140625 42.1484375 C-71.0612561 41.7770314 -70.43110596 41.40562531 -69.78186035 41.02296448 C-68.42146847 40.22163079 -67.05990291 39.42228696 -65.69729614 38.62472534 C-62.06350316 36.49747624 -58.43838583 34.35553337 -54.8125 32.21484375 C-54.07363052 31.77908524 -53.33476105 31.34332672 -52.57350159 30.8943634 C-45.36508484 26.63760461 -38.20945113 22.29640528 -31.0625 17.9375 C-23.33614353 13.23065932 -15.604177 8.53565955 -7.8125 3.9375 C-7.11713135 3.52556396 -6.4217627 3.11362793 -5.70532227 2.68920898 C-1.12297704 0 -1.12297704 0 0 0 Z " fill="#04226A" transform="translate(116,125)"/>
<path d="M0 0 C26.73 0 53.46 0 81 0 C77.97657809 3.02342191 74.88486271 5.00304412 71.234375 7.1328125 C70.22869476 7.72701492 70.22869476 7.72701492 69.20269775 8.33322144 C67.05428413 9.60142155 64.9022845 10.8633826 62.75 12.125 C61.34870548 12.95009155 59.94766141 13.77560861 58.546875 14.6015625 C56.44482327 15.84096316 54.3426535 17.08015452 52.23965454 18.31794739 C43.12769256 23.68371379 34.07431179 29.14650645 25.01782227 34.60516357 C22.38105071 36.19409627 19.74358796 37.78187912 17.10595703 39.36938477 C15.75980433 40.18016222 14.41411754 40.99171365 13.06884766 41.80395508 C11.09138672 42.9976404 9.11228061 44.18855321 7.1328125 45.37890625 C6.52881622 45.74440079 5.92481995 46.10989532 5.30252075 46.48646545 C1.11386951 49 1.11386951 49 0 49 C0 32.83 0 16.66 0 0 Z " fill="#022069" transform="translate(174,0)"/>
<path d="M0 0 C26.73 0 53.46 0 81 0 C81 16.17 81 32.34 81 49 C68.62050947 42.24755062 68.62050947 42.24755062 62.8046875 38.78515625 C61.86386574 38.22607574 61.86386574 38.22607574 60.90403748 37.65570068 C58.89315306 36.45997856 56.88401787 35.26135511 54.875 34.0625 C53.46255294 33.22148206 52.05003568 32.380582 50.63745117 31.53979492 C46.42289472 29.02999681 42.2110326 26.51570505 38 24 C37.37502625 23.62673584 36.75005249 23.25347168 36.10614014 22.86889648 C28.39421352 18.26230289 20.69182007 13.64009413 13 9 C12.23461914 8.53932129 11.46923828 8.07864258 10.68066406 7.60400391 C8.76366352 6.44856975 6.8497559 5.2882642 4.9375 4.125 C3.95652344 3.52945312 2.97554687 2.93390625 1.96484375 2.3203125 C1.31644531 1.88460937 0.66804688 1.44890625 0 1 C0 0.67 0 0.34 0 0 Z " fill="#012069" transform="translate(35,0)"/>
<path d="M0 0 C-1.3203647 3.9610941 -2.86460686 4.36517686 -6.45703125 6.4140625 C-7.02260742 6.740578 -7.58818359 7.06709351 -8.17089844 7.40350342 C-9.40010207 8.11210561 -10.63162397 8.81669785 -11.86514282 9.51776123 C-15.20208132 11.41509559 -18.52160516 13.3425456 -21.84375 15.265625 C-22.52798538 15.66063202 -23.21222076 16.05563904 -23.91719055 16.46261597 C-30.61079178 20.33396072 -37.21601673 24.34058626 -43.8125 28.375 C-55.74457944 35.65967692 -67.74881359 42.81758544 -79.7824707 49.93310547 C-80.44281311 50.32388779 -81.10315552 50.7146701 -81.7835083 51.11729431 C-83.02054472 51.84918147 -84.25802603 52.5803174 -85.49603271 53.31056213 C-88.04369145 54.81762819 -90.53599544 56.35733029 -93 58 C-95.36010742 58.22705078 -95.36010742 58.22705078 -98.10546875 58.1953125 C-99.08837891 58.18886719 -100.07128906 58.18242187 -101.08398438 58.17578125 C-102.10814453 58.15902344 -103.13230469 58.14226562 -104.1875 58.125 C-105.22326172 58.11597656 -106.25902344 58.10695312 -107.32617188 58.09765625 C-109.88434685 58.0740786 -112.44205748 58.0411703 -115 58 C-112.35593665 54.98872185 -109.11582369 53.13866207 -105.69140625 51.1484375 C-105.06193588 50.77743927 -104.43246552 50.40644104 -103.78392029 50.02420044 C-102.42421312 49.22328201 -101.06333365 48.42435112 -99.70141602 47.62719727 C-96.04662989 45.48755589 -92.40070695 43.33290141 -88.75390625 41.1796875 C-88.01194 40.74207092 -87.26997375 40.30445435 -86.50552368 39.85357666 C-80.76465498 36.4634937 -75.05649035 33.02325988 -69.36499023 29.55102539 C-67.11445276 28.1792801 -64.86001583 26.81391283 -62.60180664 25.45483398 C-56.98811331 22.07518132 -51.42300041 18.64413739 -45.9309082 15.0693512 C-17.24811058 -3.54498427 -17.24811058 -3.54498427 0 0 Z " fill="#C8112D" transform="translate(116,116)"/>
<path d="M0 0 C-3.64913561 3.0559117 -7.40097612 5.5412238 -11.50390625 7.94921875 C-12.44400291 8.50366165 -12.44400291 8.50366165 -13.40309143 9.06930542 C-14.75111498 9.86398967 -16.10012007 10.65701085 -17.45001221 11.44851685 C-21.07457239 13.57433695 -24.69129122 15.71342381 -28.30859375 17.8515625 C-29.41164856 18.50304008 -29.41164856 18.50304008 -30.5369873 19.16767883 C-36.29312047 22.57127531 -42.02159516 26.01815895 -47.73217773 29.49755859 C-49.9975582 30.87631573 -52.2666285 32.24902811 -54.53930664 33.61572266 C-60.00881741 36.90882018 -65.42441574 40.25470698 -70.75292969 43.77256775 C-97.43148169 61.3483529 -97.43148169 61.3483529 -115 58 C-113.681823 54.04546901 -111.32655359 53.11355912 -107.88671875 51.1484375 C-107.25441849 50.77743927 -106.62211823 50.40644104 -105.97065735 50.02420044 C-104.60014031 49.22131117 -103.2272471 48.42246744 -101.85229492 47.62719727 C-98.91659875 45.92908227 -95.99222847 44.21189656 -93.06716919 42.49554443 C-91.56438306 41.61391481 -90.06101985 40.73326818 -88.55709839 39.85357666 C-82.78916672 36.47684047 -77.06491791 33.03477239 -71.36108398 29.55102539 C-69.11125509 28.17811826 -66.85679894 26.81276675 -64.59790039 25.45483398 C-58.99445824 22.0855457 -53.44737255 18.65980372 -47.98223877 15.0693512 C-19.56239594 -3.54361198 -19.56239594 -3.54361198 0 0 Z " fill="#C8112D" transform="translate(289,0)"/>
<path d="M0 0 C3.94507626 1.5780305 7.21671955 3.18381352 10.84765625 5.31640625 C11.40902283 5.64515244 11.9703894 5.97389862 12.54876709 6.31260681 C14.38896992 7.39205883 16.22589456 8.47694015 18.0625 9.5625 C19.34267558 10.31643424 20.62286788 11.07034008 21.90307617 11.82421875 C30.60950122 16.95977036 39.28857255 22.14145947 47.94015503 27.36886597 C49.18864508 28.12311244 50.43777139 28.8763067 51.68753052 29.62844849 C53.42553395 30.67551373 55.16012761 31.72823264 56.89453125 32.78125 C57.88300049 33.38001953 58.87146973 33.97878906 59.88989258 34.59570312 C60.93439575 35.29083008 60.93439575 35.29083008 62 36 C62 36.33 62 36.66 62 37 C41.54 37 21.08 37 0 37 C0 24.79 0 12.58 0 0 Z " fill="#021F69" transform="translate(0,21)"/>
<path d="M0 0 C0 12.21 0 24.42 0 37 C-20.46 37 -40.92 37 -62 37 C-58.18220452 33.94576361 -54.5058896 31.38588254 -50.3203125 28.9453125 C-49.35780579 28.377342 -49.35780579 28.377342 -48.37585449 27.79789734 C-46.29422711 26.57018226 -44.20964455 25.34758359 -42.125 24.125 C-39.23828833 22.42536842 -36.35327011 20.72287911 -33.46875 19.01953125 C-32.75038971 18.59566635 -32.03202942 18.17180145 -31.29190063 17.73509216 C-26.7865904 15.07180595 -22.30399223 12.3747803 -17.84375 9.63671875 C-16.25409424 8.660979 -16.25409424 8.660979 -14.63232422 7.66552734 C-12.66294855 6.45205427 -10.69573628 5.23506145 -8.73095703 4.01416016 C-7.86325684 3.47968262 -6.99555664 2.94520508 -6.1015625 2.39453125 C-4.97741943 1.69614136 -4.97741943 1.69614136 -3.83056641 0.98364258 C-2 0 -2 0 0 0 Z " fill="#021F69" transform="translate(290,21)"/>
<path d="M0 0 C20.46 0 40.92 0 62 0 C62 12.21 62 24.42 62 37 C57.84119268 35.33647707 54.1985429 33.46552799 50.390625 31.17578125 C49.75433167 30.79708389 49.11803833 30.41838654 48.46246338 30.0282135 C46.38948692 28.79321441 44.31966118 27.55304562 42.25 26.3125 C40.81980794 25.45825081 39.38946809 24.604249 37.95898438 23.75048828 C35.05283461 22.01518438 32.14804069 20.27763992 29.24414062 18.53857422 C25.88771884 16.52935582 22.52677646 14.52790913 19.1630249 12.5309906 C16.27362019 10.81522935 13.38702089 9.09476921 10.5 7.375 C9.43297852 6.74247314 8.36595703 6.10994629 7.26660156 5.45825195 C6.30206055 4.88163818 5.33751953 4.30502441 4.34375 3.7109375 C3.50005859 3.20868652 2.65636719 2.70643555 1.78710938 2.18896484 C1.19736328 1.79660645 0.60761719 1.40424805 0 1 C0 0.67 0 0.34 0 0 Z " fill="#021F68" transform="translate(228,116)"/>
<path d="M0 0 C20.46 0 40.92 0 62 0 C58.32076441 2.94338847 55.10570768 5.22916641 51.08203125 7.546875 C50.51528687 7.87557083 49.94854248 8.20426666 49.36462402 8.54292297 C48.14754697 9.24873806 46.92951075 9.95290134 45.71060181 10.6555481 C33.6511052 17.60909452 21.7406969 24.7721555 9.95043945 32.17285156 C8.93167725 32.80803711 7.91291504 33.44322266 6.86328125 34.09765625 C5.96907471 34.65976807 5.07486816 35.22187988 4.15356445 35.80102539 C2 37 2 37 0 37 C0 24.79 0 12.58 0 0 Z " fill="#021F68" transform="translate(0,116)"/>
<path d="M0 0 C9.76668606 5.55125833 19.46977363 11.19496493 29.125 16.9375 C30.15231232 17.54769989 30.15231232 17.54769989 31.20037842 18.17022705 C42.195321 24.70228716 53.14242101 31.31013478 64.06005859 37.97045898 C72.52077041 43.12522827 81.03437161 48.18405546 89.60400391 53.15576172 C90.45140137 53.65092285 91.29879883 54.14608398 92.171875 54.65625 C93.2870752 55.30303711 93.2870752 55.30303711 94.42480469 55.96289062 C94.94461914 56.30513672 95.46443359 56.64738281 96 57 C96 57.33 96 57.66 96 58 C76.32554545 61.10009428 63.86484939 53.43510384 48.07910156 43.02001953 C44.58899675 40.73036466 41.04208713 38.60337277 37.4375 36.5 C32.60210739 33.58488293 27.77836555 30.65063155 22.953125 27.71875 C22.31927383 27.33368286 21.68542267 26.94861572 21.03236389 26.55187988 C17.80968481 24.59395807 14.5876489 22.63499484 11.36694336 20.67382812 C10.17562643 19.94920569 8.9843019 19.22459577 7.79296875 18.5 C6.7258667 17.8503125 5.65876465 17.200625 4.55932617 16.53125 C3.06764366 15.63877335 1.55476848 14.77738424 0 14 C0 9.38 0 4.76 0 0 Z " fill="#C8102C" transform="translate(0,0)"/>
<path d="M0 0 C19.34749959 -3.02057902 31.28408446 4.34594498 46.65234375 14.76855469 C51.46580984 18.0117363 56.47756839 20.90778756 61.5 23.8125 C63.25745126 24.84475401 65.01397566 25.87858781 66.76953125 26.9140625 C67.62369629 27.41711914 68.47786133 27.92017578 69.35791016 28.43847656 C73.97890124 31.16956684 78.58417947 33.92675858 83.1875 36.6875 C84.03183594 37.19321533 84.87617188 37.69893066 85.74609375 38.2199707 C86.5246875 38.68749756 87.30328125 39.15502441 88.10546875 39.63671875 C88.78762451 40.04623779 89.46978027 40.45575684 90.17260742 40.87768555 C91.80559806 41.88060578 93.40547652 42.93698435 95 44 C95.29296875 47.0390625 95.29296875 47.0390625 95.1875 50.625 C95.14689453 52.40777344 95.14689453 52.40777344 95.10546875 54.2265625 C95.07066406 55.14179688 95.03585937 56.05703125 95 57 C91.13859778 55.56594155 87.70214215 53.76853075 84.15234375 51.68359375 C83.59242737 51.3556633 83.03251099 51.02773285 82.45562744 50.68986511 C80.61401395 49.60950046 78.77565711 48.52373351 76.9375 47.4375 C75.63390729 46.67034754 74.33027709 45.90325878 73.02661133 45.13623047 C63.2297266 39.3615937 53.49926599 33.481837 43.79541016 27.55224609 C37.28155431 23.57545326 30.74007781 19.65061699 24.1640625 15.77734375 C23.42462906 15.34123779 22.68519562 14.90513184 21.9233551 14.45581055 C18.3000043 12.31950742 14.67346149 10.18894939 11.04174805 8.06689453 C9.73213811 7.296104 8.42264313 6.52511809 7.11328125 5.75390625 C6.50743195 5.40263168 5.90158264 5.05135712 5.27737427 4.68943787 C1.11348249 2.22696498 1.11348249 2.22696498 0 0 Z " fill="#C8102C" transform="translate(195,116)"/>
<path d="M0 0 C0.33 0.66 0.66 1.32 1 2 C7.27 1.67 13.54 1.34 20 1 C17 4 17 4 14.63989258 4.34057617 C13.73392334 4.32486572 12.8279541 4.30915527 11.89453125 4.29296875 C10.91162109 4.28330078 9.92871094 4.27363281 8.91601562 4.26367188 C7.89185547 4.23853516 6.86769531 4.21339844 5.8125 4.1875 C4.77673828 4.17396484 3.74097656 4.16042969 2.67382812 4.14648438 C0.11536301 4.11111389 -2.4420578 4.06175544 -5 4 C-3.36587557 2.29159719 -2.13093906 1.06546953 0 0 Z " fill="#CC2941" transform="translate(6,170)"/>
</svg>
