<?xml version="1.0" encoding="UTF-8"?>
<svg version="1.1" xmlns="http://www.w3.org/2000/svg" width="256" height="295">
<path d="M0 0 C5.37258326 3.52772636 10.05260165 7.75076002 14.625 12.25 C15.39972656 13.01183594 16.17445313 13.77367188 16.97265625 14.55859375 C31.27392956 29.4976597 35.55446633 46.843657 38.60351562 66.7890625 C40.42813991 77.87196556 43.81346564 87.88084371 49.75 97.4375 C60.52559786 115.4352812 59.37124549 137.45259764 54.625 157.25 C54.06706048 159.37620195 53.50489994 161.50130309 52.9375 163.625 C49.31475959 177.88472291 54.63145223 187.57528797 61.125 200.125 C68.35662776 214.33449328 74.17504677 227.89142425 70.3125 244 C69.69835649 246.72101247 69.69835649 246.72101247 69.625 249.25 C71.4846043 252.15540016 71.4846043 252.15540016 73.1796875 253.66015625 C81.04923457 262.31665802 79.625 276.97320419 79.625 287.25 C-4.855 287.25 -89.335 287.25 -176.375 287.25 C-176.375 273.45267477 -176.32879292 261.37583379 -166.375 251.25 C-164.7971875 250.13625 -164.7971875 250.13625 -163.1875 249 C-159.53266018 245.42637884 -159.35471145 242.52309074 -158.33984375 237.62890625 C-156.70106114 231.88984973 -153.44778507 227.03898319 -150.38720703 221.96826172 C-148.81715923 219.3030431 -147.40092614 216.56960525 -146 213.8125 C-145.53851563 212.90628906 -145.07703125 212.00007812 -144.6015625 211.06640625 C-140.45793558 201.55189984 -139.40257633 189.8870033 -142.8125 179.9375 C-144.23523443 176.53619584 -145.86643331 173.25056397 -147.50390625 169.94921875 C-156.4749257 151.76952455 -162.04208733 134.31838032 -155.375 114.25 C-152.43589642 107.24715457 -148.69527213 100.6004493 -144.9921875 93.98046875 C-139.56244761 84.19357144 -136.21865103 75.06678357 -133.91308594 64.04101562 C-128.63155437 38.83904074 -117.64387303 18.39216007 -96.36328125 3.15625 C-85.01476832 -4.08306282 -74.77792718 -6.03041836 -61.55664062 -5.671875 C-56.5275191 -5.58869174 -52.30503854 -5.88930789 -47.48217773 -7.27392578 C-31.57291135 -10.86830296 -14.10485468 -7.79249688 0 0 Z " fill="#0B0708" transform="translate(176.375,7.75)"/>
<path d="M0 0 C2.72035949 1.65651119 5.2747108 3.4135739 7.82421875 5.3203125 C8.43136719 5.74570312 9.03851563 6.17109375 9.6640625 6.609375 C27.35244874 20.17740774 34.26223153 40.74521204 37.44042969 61.82470703 C39.38565923 74.47364875 42.84587953 85.48831603 49.44921875 96.5078125 C54.07581535 104.23221726 56.36180998 111.34958232 56.82421875 120.3203125 C56.93830078 121.92712891 56.93830078 121.92712891 57.0546875 123.56640625 C57.57703436 137.13330701 54.61235128 150.39460934 51.26904297 163.49584961 C47.94210469 177.14140929 55.08216931 189.26066005 61.38671875 200.8203125 C67.38375167 211.83281804 73.49957518 224.16611879 70.13671875 236.9296875 C69.43650728 239.09764992 68.65659697 241.20100314 67.82421875 243.3203125 C66.90487549 242.94664551 65.98553223 242.57297852 65.03833008 242.18798828 C54.07233121 237.84369783 42.97557758 234.90664171 31.51171875 232.1953125 C10.93198062 227.29383811 10.93198062 227.29383811 2.94116211 224.11547852 C0.86950271 223.33732205 -1.13525586 222.82466549 -3.30078125 222.3828125 C-7.9403479 221.28043613 -12.53350959 219.43362354 -16.17578125 216.3203125 C-19.84989761 207.06492387 -20.45793145 193.99845841 -18.17578125 184.3203125 C-14.8346994 180.50683931 -11.82825444 179.15532923 -7.17578125 177.3203125 C1.37503961 171.25642593 8.51687586 164.2782131 13.06640625 154.70703125 C15.43668833 151.48871491 18.23336644 150.6650564 21.88671875 149.4453125 C31.14558306 146.03597159 40.23480845 141.53644537 44.82421875 132.3203125 C48.09683426 124.68420965 49.46783876 116.02190959 47.1328125 107.921875 C45.05313053 103.24041517 42.53823805 100.54390651 37.82421875 98.3203125 C34.81617128 97.62495906 31.91380612 97.14376465 28.82421875 97.3203125 C27.83421875 97.9803125 26.84421875 98.6403125 25.82421875 99.3203125 C21.796936 99.93464377 19.33309482 100.18662537 15.76953125 98.140625 C6.09219953 90.27073266 1.80768383 79.22577652 -2.82861328 68.03857422 C-8.57868872 54.32950784 -15.9261062 42.79946543 -29.86328125 36.4453125 C-35.80085393 34.47389839 -42.01433897 34.98872803 -48.17578125 35.3203125 C-48.91280273 35.35753418 -49.64982422 35.39475586 -50.40917969 35.43310547 C-62.46468031 36.12539652 -71.23644536 37.93692972 -79.92578125 46.9453125 C-88.20532895 57.14305328 -91.21671312 68.44301198 -92.05078125 81.2578125 C-93.58149905 100.93066016 -97.70504633 115.51234224 -112.98828125 128.7578125 C-115.17578125 130.3203125 -115.17578125 130.3203125 -117.17578125 130.3203125 C-117.46453125 131.0628125 -117.75328125 131.8053125 -118.05078125 132.5703125 C-119.17578125 135.3203125 -119.17578125 135.3203125 -120.22265625 137.23046875 C-122.20676039 141.58086102 -121.8364003 146.28313257 -120.3828125 150.765625 C-118.7560801 154.54263586 -117.04624088 158.32505028 -114.17578125 161.3203125 C-113.18578125 161.6503125 -112.19578125 161.9803125 -111.17578125 162.3203125 C-111.60890625 161.5984375 -112.04203125 160.8765625 -112.48828125 160.1328125 C-113.32359375 158.740625 -113.32359375 158.740625 -114.17578125 157.3203125 C-114.73265625 156.4540625 -115.28953125 155.5878125 -115.86328125 154.6953125 C-117.17578125 152.3203125 -117.17578125 152.3203125 -117.17578125 149.3203125 C-113.54277995 149.81572177 -110.43091501 150.60476903 -107.17578125 152.3203125 C-105.22097774 154.94521241 -103.91465243 157.59373836 -102.51171875 160.546875 C-97.19392437 171.58674053 -85.30500835 178.33223952 -75.0390625 184.2265625 C-73.17578125 185.3203125 -73.17578125 185.3203125 -72.17578125 186.3203125 C-71.89364591 189.83289754 -71.94385719 193.36026407 -71.92578125 196.8828125 C-71.90515625 197.86056641 -71.88453125 198.83832031 -71.86328125 199.84570312 C-71.83207456 205.66965102 -71.81591507 211.34593731 -75.17578125 216.3203125 C-80.45809064 221.25398136 -87.41743641 222.82569975 -94.23828125 224.5703125 C-96.44838807 225.1623054 -98.65800023 225.75614722 -100.8671875 226.3515625 C-102.04039551 226.66480469 -103.21360352 226.97804687 -104.42236328 227.30078125 C-110.51328106 228.95524155 -116.57379756 230.71247037 -122.63375854 232.47644043 C-124.63150657 233.0574363 -126.63024268 233.63492264 -128.62915039 234.21191406 C-133.91887318 235.74707578 -139.18605701 237.29237419 -144.39453125 239.0859375 C-148.17578125 240.3203125 -148.17578125 240.3203125 -151.17578125 240.3203125 C-150.90864499 233.05626108 -147.35655926 227.6959391 -143.80078125 221.5078125 C-137.83833534 211.11258748 -133.57617945 202.08412389 -133.67578125 189.9453125 C-133.68150146 189.11805664 -133.68722168 188.29080078 -133.69311523 187.43847656 C-133.90321719 180.19172754 -135.78813836 174.72295757 -139.17578125 168.3203125 C-140.38825644 165.83198274 -141.56401714 163.32686014 -142.73828125 160.8203125 C-143.03758545 160.18843018 -143.33688965 159.55654785 -143.64526367 158.90551758 C-149.8437584 145.65621375 -154.15898671 130.98441869 -149.67578125 116.5078125 C-146.30427214 107.48546417 -141.76862836 98.85923313 -137.01953125 90.4921875 C-131.44874035 80.61844975 -128.35182187 70.88159901 -126.33203125 59.71484375 C-122.33268664 38.03372195 -111.52320168 18.97577485 -93.48828125 5.7578125 C-85.02900228 0.02775045 -76.54471141 -4.92710952 -66.12109375 -4.70703125 C-65.17621094 -4.69478516 -64.23132813 -4.68253906 -63.2578125 -4.66992188 C-61.29419454 -4.63490359 -59.33064385 -4.5958729 -57.3671875 -4.55273438 C-7.51787863 -3.97624577 -7.51787863 -3.97624577 0 0 Z " fill="#5D4140" transform="translate(173.17578125,10.6796875)"/>
<path d="M0 0 C1.78470703 -0.05607422 1.78470703 -0.05607422 3.60546875 -0.11328125 C11.34243585 -0.19022346 16.49671254 0.74281632 22.75 5.375 C23.32105469 5.78331055 23.89210938 6.19162109 24.48046875 6.61230469 C34.54994049 14.37785116 39.46376452 27.59978031 44.03613281 39.02685547 C47.74893336 48.09928849 52.97632307 58.24356523 61.75 63.375 C64.72314798 64.35494957 67.64905009 64.96716532 70.75 65.375 C68.4182476 89.31115222 60.96756263 117.51618094 42.05737305 133.5222168 C28.08235858 144.85748458 12.05491858 153.83107307 -6.25 152.375 C-19.61873929 150.29632407 -32.8925564 141.60002874 -43.25 133.375 C-43.83007812 132.95863281 -44.41015625 132.54226562 -45.0078125 132.11328125 C-57.08448026 123.1032019 -61.93032502 106.38169883 -65.25 92.375 C-64.59773438 91.84132813 -63.94546875 91.30765625 -63.2734375 90.7578125 C-53.74883323 82.63801712 -48.86908395 74.27550883 -45.69921875 62.29296875 C-45.25865959 60.64171265 -44.75975703 59.0062225 -44.25 57.375 C-39.89787402 55.19893701 -34.18889259 55.88529438 -29.58984375 57.046875 C-27.44846644 57.76632348 -25.34295399 58.52568534 -23.25 59.375 C-23.25 58.385 -23.25 57.395 -23.25 56.375 C-30.30112439 54.16288254 -36.89657821 54.17322928 -44.25 54.375 C-43.34529851 36.94759226 -42.03719174 21.62606351 -29.3984375 8.28515625 C-20.48497179 0.36027492 -11.44232824 0.13461563 0 0 Z " fill="#FDD6CD" transform="translate(127.25,48.625)"/>
<path d="M0 0 C0.06731323 1.08099976 0.06731323 1.08099976 0.13598633 2.18383789 C0.34848581 5.47771222 0.58032176 8.76995664 0.8125 12.0625 C0.88275391 13.19623047 0.95300781 14.32996094 1.02539062 15.49804688 C1.60027096 24.17383949 1.60027096 24.17383949 5 32 C8.09824387 34.31489997 8.09824387 34.31489997 11.6875 35.9375 C12.86699219 36.52402344 14.04648438 37.11054688 15.26171875 37.71484375 C16.16535156 38.13894531 17.06898438 38.56304687 18 39 C18 43.62 18 48.24 18 53 C14.14639532 53.81524346 10.29216208 54.6272844 6.4375 55.4375 C5.35146484 55.66759766 4.26542969 55.89769531 3.14648438 56.13476562 C-2.22353212 57.26100009 -7.55442507 58.32027974 -13 59 C-13 59.99 -13 60.98 -13 62 C-12.18660156 61.81824219 -11.37320313 61.63648438 -10.53515625 61.44921875 C-1.06292631 59.37150802 8.44231336 57.63151794 18 56 C18.02685938 58.14576637 18.04633088 60.29162645 18.0625 62.4375 C18.07410156 63.63246094 18.08570313 64.82742188 18.09765625 66.05859375 C18 69 18 69 17 70 C14.50507612 70.09502416 12.03793986 70.12557566 9.54272461 70.11352539 C8.76229294 70.11367142 7.98186127 70.11381744 7.17778015 70.1139679 C4.5859402 70.11326858 1.99417122 70.10547536 -0.59765625 70.09765625 C-2.3898464 70.09579213 -4.18203706 70.0943682 -5.97422791 70.09336853 C-10.70070797 70.08954284 -15.42715752 70.07971212 -20.15362549 70.06866455 C-24.9728555 70.05845153 -29.79209042 70.05387115 -34.61132812 70.04882812 C-44.07423219 70.03808989 -53.53711356 70.02101286 -63 70 C-63.93777474 65.5187996 -64.077475 61.57102507 -64 57 C-57.45242812 56.69475189 -51.92747409 57.78787415 -45.625 59.5 C-43.84684618 59.97061296 -42.06822215 60.43945399 -40.2890625 60.90625 C-39.51256348 61.11572266 -38.73606445 61.32519531 -37.93603516 61.54101562 C-36.00727317 62.07689347 -36.00727317 62.07689347 -34 62 C-34 61.34 -34 60.68 -34 60 C-43.00414481 57.48394819 -51.95653703 55.31654231 -61.1484375 53.61328125 C-64 53 -64 53 -65 52 C-65.09919077 50.39836084 -65.12969898 48.79220082 -65.125 47.1875 C-65.12757812 46.31480469 -65.13015625 45.44210938 -65.1328125 44.54296875 C-64.89254766 39.94260373 -64.89254766 39.94260373 -64 38 C-61.34765625 36.296875 -61.34765625 36.296875 -58.0625 34.75 C-56.44021484 33.96882813 -56.44021484 33.96882813 -54.78515625 33.171875 C-52 32 -52 32 -50 32 C-48.00774871 21.65031721 -46.48470035 11.54641106 -46 1 C-45.43152344 1.19335938 -44.86304687 1.38671875 -44.27734375 1.5859375 C-42.66127273 2.13092305 -41.04259149 2.6682076 -39.421875 3.19921875 C-37.50105257 3.83432939 -35.59192159 4.50478283 -33.6875 5.1875 C-23.0440936 7.53265734 -15.06737555 5.374313 -5.2734375 1.3125 C-2 0 -2 0 0 0 Z " fill="#FBD5CC" transform="translate(151,198)"/>
<path d="M0 0 C1.49660156 0.41958984 1.49660156 0.41958984 3.0234375 0.84765625 C11.23938731 3.1434759 19.46447231 5.39956563 27.70605469 7.60180664 C32.12914971 8.78543819 36.54922281 9.9800324 40.96826172 11.17871094 C42.87534243 11.69533354 44.78312411 12.20938236 46.69189453 12.71972656 C57.97516211 15.75091892 68.3553452 18.61772687 75 29 C78.71087457 37.17552053 79 45.06043148 79 54 C51.28 54 23.56 54 -5 54 C-3.88720993 43.98488937 -3.88720993 43.98488937 -3.28125 40.1171875 C-1.27218148 26.7446035 -0.33890228 13.51489884 0 0 Z " fill="#F65A89" transform="translate(173,237)"/>
<path d="M0 0 C0.0093457 0.66306152 0.01869141 1.32612305 0.02832031 2.00927734 C0.30278162 17.58630181 1.62357052 31.80754519 6.12890625 46.7421875 C7 50 7 50 7 54 C-21.38 54 -49.76 54 -79 54 C-79 41.01895922 -77.03330498 31.86473748 -67.75 22.5 C-56.55457861 13.30694676 -38.88382657 10.50590569 -25.1875 6.6875 C-22.32964861 5.88346576 -19.47233595 5.07753814 -16.61506653 4.2714386 C-14.85486344 3.77562371 -13.09421135 3.28139928 -11.33305359 2.78898621 C-10.54405167 2.56817886 -9.75504974 2.34737152 -8.94213867 2.11987305 C-8.2509343 1.92701218 -7.55972992 1.73415131 -6.84757996 1.53544617 C-1.54945713 0 -1.54945713 0 0 0 Z " fill="#F55A89" transform="translate(83,237)"/>
<path d="M0 0 C0.05534912 0.72590332 0.11069824 1.45180664 0.16772461 2.19970703 C0.42156553 5.5083557 0.67949446 8.81667359 0.9375 12.125 C1.06801758 13.83816406 1.06801758 13.83816406 1.20117188 15.5859375 C1.33168945 17.24882812 1.33168945 17.24882812 1.46484375 18.9453125 C1.543396 19.96125488 1.62194824 20.97719727 1.70288086 22.02392578 C2.00468906 25.04696767 2.46782134 28.00966274 3 31 C-5.91988507 35.26603199 -14.74385261 36.33657147 -24.5625 36.25 C-25.88411133 36.26160156 -25.88411133 36.26160156 -27.23242188 36.2734375 C-35.53416999 36.24893049 -42.6867334 35.12543244 -50 31 C-49.79503906 30.00742188 -49.59007813 29.01484375 -49.37890625 27.9921875 C-47.57166568 18.97272868 -46.41712597 10.20553872 -46 1 C-45.43152344 1.19335938 -44.86304687 1.38671875 -44.27734375 1.5859375 C-42.66127273 2.13092305 -41.04259149 2.6682076 -39.421875 3.19921875 C-37.50105257 3.83432939 -35.59192159 4.50478283 -33.6875 5.1875 C-23.0440936 7.53265734 -15.06737555 5.374313 -5.2734375 1.3125 C-2 0 -2 0 0 0 Z " fill="#F1A9A3" transform="translate(151,198)"/>
<path d="M0 0 C25.74 0 51.48 0 78 0 C77 12 77 12 75 19 C51.9 19 28.8 19 5 19 C1 7 1 7 0 0 Z " fill="#FEF9F0" transform="translate(89,272)"/>
<path d="M0 0 C5.65477225 0.28273861 8.90907797 0.78875674 13 5 C15.4587595 8.66216643 15.38486058 12.47987629 15.375 16.75 C15.37338867 17.46647705 15.37177734 18.1829541 15.37011719 18.92114258 C15.23926959 24.55721047 14.31648725 28.48171947 11 33 C10.443125 33.86625 9.88625 34.7325 9.3125 35.625 C3.00837685 42.09950486 -4.49985321 45.29901878 -13 48 C-10.74901636 39.6440759 -8.45479329 31.29859271 -6 23 C-5.69835937 21.92105469 -5.39671875 20.84210938 -5.0859375 19.73046875 C-3.64509984 16.10764312 -2.1603284 15.37065789 1.1796875 13.6796875 C3.53191944 12.8013863 5.51771624 12.69911712 8 13 C8 12.01 8 11.02 8 10 C4.37 10.66 0.74 11.32 -3 12 C-1.125 1.125 -1.125 1.125 0 0 Z " fill="#F7C0BA" transform="translate(203,111)"/>
<path d="M0 0 C3.30190811 1.52395759 5.17696579 3.28318556 7.4375 6.125 C8.0625 8.6875 8.0625 8.6875 7.4375 11.125 C3.28097644 15.68376777 -2.84639796 17.83583312 -8.921875 18.30859375 C-10.80307606 18.31192921 -12.68408824 18.22745882 -14.5625 18.125 C-15.25390625 16.40234375 -15.25390625 16.40234375 -15.5625 14.125 C-12.58631591 8.80970637 -6.53744761 0.31889988 0 0 Z " fill="#7A5857" transform="translate(184.5625,37.875)"/>
<path d="M0 0 C2.83679248 1.20895081 4.58602432 2.91578169 6.77734375 5.078125 C7.56496094 5.83480469 8.35257813 6.59148438 9.1640625 7.37109375 C11.38998528 10.28330509 11.86916344 12.26223015 12.08984375 15.890625 C11.08984375 16.890625 11.08984375 16.890625 8.27734375 17.328125 C2.35381578 17.31573268 -2.86857263 13.67218838 -7.91015625 10.890625 C-8.24629641 5.3825101 -8.24629641 5.3825101 -6.73828125 3.17578125 C-2.45755874 -0.14071911 -2.45755874 -0.14071911 0 0 Z " fill="#7A5858" transform="translate(70.91015625,39.109375)"/>
<path d="M0 0 C2.5 1.5625 2.5 1.5625 4 4 C3.93913078 7.46954545 3.6274029 9.91947278 1.875 12.9375 C-1.13913252 14.64550843 -3.62088399 14.36204814 -7 14 C-8.9375 13 -8.9375 13 -10 11 C-10.52960415 7.41957756 -10.65886567 4.24021772 -8.9375 1 C-5.82090489 -0.60856522 -3.43737531 -0.42213381 0 0 Z " fill="#090807" transform="translate(166,114)"/>
<path d="M0 0 C2 1.125 2 1.125 3 3 C2.87844565 6.40352169 2.59933376 8.96781407 0.875 11.9375 C-2.13913252 13.64550843 -4.62088399 13.36204814 -8 13 C-9.9375 12 -9.9375 12 -11 10 C-11.46000079 7.23999526 -11.50420748 4.75595226 -11 2 C-7.94260267 -2.03576448 -4.55750868 -1.16009312 0 0 Z " fill="#080707" transform="translate(97,115)"/>
<path d="M0 0 C-0.37165521 2.35877171 -0.6094064 3.65328129 -2.42578125 5.265625 C-8.50505307 8.43741899 -14.22983892 8.92038791 -21 8 C-24.18760154 6.95694844 -27.08316355 5.64992769 -30 4 C-30 3.01 -30 2.02 -30 1 C-24.25 1.875 -24.25 1.875 -22 3 C-13.79565099 3.58926264 -7.30875123 0 0 0 Z " fill="#161212" transform="translate(143,168)"/>
<path d="M0 0 C1.19625 -0.01675781 2.3925 -0.03351563 3.625 -0.05078125 C7.23516929 0.33781336 9.15066819 1.09455421 12 3.3125 C12 3.9725 12 4.6325 12 5.3125 C11.05125 5.1475 10.1025 4.9825 9.125 4.8125 C1.61136518 3.77613658 -4.23660762 3.51840184 -11 7.3125 C-11.99 6.9825 -12.98 6.6525 -14 6.3125 C-13.02217567 3.64570636 -12.41604142 2.52847779 -9.85546875 1.19921875 C-6.46093939 0.14510361 -3.55232567 0.01148381 0 0 Z " fill="#100D0D" transform="translate(165,101.6875)"/>
<path d="M0 0 C0.66 0 1.32 0 2 0 C2.50692692 1.5811292 3.00526443 3.16501383 3.5 4.75 C3.7784375 5.63171875 4.056875 6.5134375 4.34375 7.421875 C5 10 5 10 5 14 C-0.75 13.125 -0.75 13.125 -3 12 C-3.29162929 7.04230204 -3.12940055 3.97193147 0 0 Z " fill="#EAB6B0" transform="translate(58,144)"/>
<path d="M0 0 C1.216875 0.185625 2.43375 0.37125 3.6875 0.5625 C7.02977939 0.98993182 9.71968417 0.92258883 13 0 C12.625 1.9375 12.625 1.9375 12 4 C8.87293041 5.5635348 5.42017557 5.39958487 2 5 C1.01 4.34 0.02 3.68 -1 3 C-0.67 2.01 -0.34 1.02 0 0 Z " fill="#FFA7A6" transform="translate(122,150)"/>
</svg>
